LibertinusSerif-SemiBold.ufo
<glyph name="quotesingle" format="2">
	<unicode hex="0027"/>
	<advance width="207"/>
	<outline>
		<contour>
			<point x="81.6667" y="418.667" type="line"/>
			<point x="95.3333" y="415.333" type="line"/>
			<point x="118" y="421.333" type="line"/>
			<point x="153.667" y="609" type="line"/>
			<point x="153.667" y="626.333"/>
			<point x="148.667" y="644.667"/>
			<point x="115.667" y="644.667" type="curve" smooth="yes"/>
			<point x="73.3333" y="644.667"/>
			<point x="51.6667" y="614.667"/>
			<point x="51.6667" y="592" type="curve"/>
		</contour>
	</outline>
</glyph>
<glyph name="parenleft" format="2">
	<unicode hex="0028"/>
	<advance width="309"/>
	<outline>
		<contour>
			<point x="38.6667" y="252.667" type="curve" smooth="yes"/>
			<point x="38.6667" y="207.667"/>
			<point x="43.3333" y="-19.3333"/>
			<point x="264" y="-210" type="curve"/>
			<point x="270.95" y="-205.475"/>
			<point x="286.97" y="-188.899"/>
			<point x="291" y="-183" type="curve"/>
			<point x="258.667" y="-146.333"/>
			<point x="143" y="-11"/>
			<point x="143" y="252.667" type="curve" smooth="yes"/>
			<point x="143" y="516.333"/>
			<point x="260.333" y="651.667"/>
			<point x="291" y="687" type="curve"/>
			<point x="286.699" y="694.341"/>
			<point x="272.492" y="711.093"/>
			<point x="265.333" y="715.667" type="curve"/>
			<point x="138.333" y="606.333"/>
			<point x="38.6667" y="436"/>
		</contour>
	</outline>
</glyph>
<glyph name="asterisk" format="2">
	<unicode hex="002A"/>
	<advance width="412"/>
	<outline>
		<contour>
			<point x="187.333" y="559.667" type="curve"/>
			<point x="154.333" y="522"/>
			<point x="104" y="522.667"/>
			<point x="104" y="472.333" type="curve" smooth="yes"/>
			<point x="104" y="457.333"/>
			<point x="116" y="444.333"/>
			<point x="133" y="444.333" type="curve" smooth="yes"/>
			<point x="185" y="444.333"/>
			<point x="178" y="501.333"/>
			<point x="203" y="546.333" type="curve"/>
			<point x="228" y="507.333"/>
			<point x="228.333" y="444.333"/>
			<point x="274" y="444.333" type="curve" smooth="yes"/>
			<point x="288" y="444.333"/>
			<point x="305" y="455.333"/>
			<point x="305" y="473.333" type="curve" smooth="yes"/>
			<point x="305" y="520.667"/>
			<point x="254.667" y="522.667"/>
			<point x="220.667" y="559" type="curve"/>
			<point x="238.667" y="562"/>
			<point x="256" y="562.333"/>
			<point x="275" y="562.333" type="curve" smooth="yes"/>
			<point x="309.667" y="562.333"/>
			<point x="344" y="571.333"/>
			<point x="344" y="601.333" type="curve" smooth="yes"/>
			<point x="344" y="610.667"/>
			<point x="337.667" y="629.333"/>
			<point x="314.667" y="633.333" type="curve" smooth="yes"/>
			<point x="311" y="634"/>
			<point x="307.667" y="634"/>
			<point x="304.333" y="633.667" type="curve"/>
			<point x="272.667" y="632.333"/>
			<point x="259.667" y="599.333"/>
			<point x="215.667" y="580.667" type="curve"/>
			<point x="217.667" y="610.667"/>
			<point x="238.667" y="649.333"/>
			<point x="238.667" y="676.333" type="curve" smooth="yes"/>
			<point x="238.667" y="700.333"/>
			<point x="219" y="711.333"/>
			<point x="201" y="711.333" type="curve" smooth="yes"/>
			<point x="183" y="711.333"/>
			<point x="165.667" y="693.333"/>
			<point x="165.667" y="672.333" type="curve" smooth="yes"/>
			<point x="165.667" y="646.333"/>
			<point x="189.333" y="620.667"/>
			<point x="193.333" y="581" type="curve"/>
			<point x="149.333" y="599.667"/>
			<point x="132" y="632.667"/>
			<point x="98" y="632.667" type="curve" smooth="yes"/>
			<point x="74" y="632.667"/>
			<point x="65" y="615.333"/>
			<point x="65" y="601.333" type="curve" smooth="yes"/>
			<point x="65" y="561.333"/>
			<point x="99.6667" y="559"/>
			<point x="146" y="564.333" type="curve"/>
			<point x="156.333" y="565"/>
			<point x="165.333" y="563.667"/>
			<point x="174.667" y="562" type="curve"/>
			<point x="179" y="561"/>
			<point x="183" y="560.667"/>
		</contour>
	</outline>
</glyph>
<glyph name="plus" format="2">
	<unicode hex="002B"/>
	<advance width="541"/>
	<outline>
		<contour>
			<point x="47.3333" y="233.333" type="curve" smooth="yes"/>
			<point x="47.3333" y="220.667"/>
			<point x="54.6667" y="212"/>
			<point x="65.6667" y="212" type="curve" smooth="yes"/>
			<point x="238" y="212" type="line"/>
			<point x="238" y="46.6667" type="line" smooth="yes"/>
			<point x="238" y="35.6667"/>
			<point x="246.667" y="28.3333"/>
			<point x="259.333" y="28.3333" type="curve" smooth="yes"/>
			<point x="279" y="28.3333"/>
			<point x="304" y="47.3333"/>
			<point x="304" y="63.3333" type="curve" smooth="yes"/>
			<point x="304" y="212" type="line"/>
			<point x="459" y="212" type="line" smooth="yes"/>
			<point x="475.333" y="212"/>
			<point x="494.667" y="238.333"/>
			<point x="494.667" y="257" type="curve" smooth="yes"/>
			<point x="494.667" y="269"/>
			<point x="488" y="278"/>
			<point x="476.667" y="278" type="curve" smooth="yes"/>
			<point x="304" y="278" type="line"/>
			<point x="304" y="444.667" type="line" smooth="yes"/>
			<point x="304" y="456.667"/>
			<point x="295" y="462.667"/>
			<point x="281.667" y="462.667" type="curve" smooth="yes"/>
			<point x="264.333" y="462.667"/>
			<point x="238" y="443.333"/>
			<point x="238" y="427" type="curve" smooth="yes"/>
			<point x="238" y="278" type="line"/>
			<point x="82.3333" y="278" type="line" smooth="yes"/>
			<point x="66.3333" y="278"/>
			<point x="47.3333" y="253.667"/>
		</contour>
	</outline>
</glyph>
<glyph name="hyphen" format="2">
	<unicode hex="002D"/>
	<advance width="351"/>
	<outline>
		<contour>
			<point x="272.333" y="217.667" type="line" smooth="yes"/>
			<point x="292" y="217.667"/>
			<point x="312.667" y="257"/>
			<point x="312.667" y="269.667" type="curve" smooth="yes"/>
			<point x="312.667" y="280.333"/>
			<point x="306" y="290.333"/>
			<point x="284" y="290.333" type="curve" smooth="yes"/>
			<point x="77.6667" y="290.333" type="line" smooth="yes"/>
			<point x="59.6667" y="290.333"/>
			<point x="38.6667" y="255.333"/>
			<point x="38.6667" y="238" type="curve" smooth="yes"/>
			<point x="38.6667" y="227.333"/>
			<point x="49.3333" y="217.667"/>
			<point x="68.3333" y="217.667" type="curve" smooth="yes"/>
		</contour>
	</outline>
</glyph>
<glyph name="two" format="2">
	<unicode hex="0032"/>
	<advance width="498"/>
	<outline>
		<contour>
			<point x="53.6667" y="458.667" type="curve" smooth="yes"/>
			<point x="53.6667" y="438.333"/>
			<point x="70" y="417"/>
			<point x="93" y="411.667" type="curve"/>
			<point x="97" y="410.333"/>
			<point x="101.667" y="409.667"/>
			<point x="106.333" y="409.667" type="curve" smooth="yes"/>
			<point x="131.333" y="409.667"/>
			<point x="160.667" y="430.333"/>
			<point x="160.667" y="458.333" type="curve" smooth="yes"/>
			<point x="160.667" y="464.333"/>
			<point x="158.667" y="471"/>
			<point x="156" y="479.333" type="curve"/>
			<point x="153.333" y="486.333"/>
			<point name=".hr01" x="149.333" y="494.667"/>
			<point x="149.333" y="504.667" type="curve" smooth="yes"/>
			<point x="149.333" y="528.333"/>
			<point x="181.333" y="571"/>
			<point x="237.667" y="571" type="curve" smooth="yes"/>
			<point x="283.667" y="571"/>
			<point x="324" y="520.667"/>
			<point x="324" y="448.667" type="curve" smooth="yes"/>
			<point x="324" y="382.667"/>
			<point x="313.667" y="336.667"/>
			<point x="258.667" y="283.333" type="curve" smooth="yes"/>
			<point x="181.333" y="209" type="line"/>
			<point x="177.333" y="205" type="line" smooth="yes"/>
			<point x="67" y="98"/>
			<point x="47.6667" y="63.6667"/>
			<point x="43.6667" y="29.6667" type="curve"/>
			<point x="44" y="19.3333"/>
			<point name=".hr02" x="45.3333" y="9.66667"/>
			<point x="46" y="-0.666667" type="curve"/>
			<point x="67.3333" y="-0.666667"/>
			<point x="105.667" y="0"/>
			<point x="138.333" y="0" type="curve" smooth="yes"/>
			<point x="325.333" y="0" type="line" smooth="yes"/>
			<point x="357.333" y="0"/>
			<point x="394" y="-0.666667"/>
			<point x="415.333" y="-0.666667" type="curve"/>
			<point x="427.667" y="42.3333"/>
			<point x="439" y="113.333"/>
			<point x="444" y="161.333" type="curve"/>
			<point x="433.333" y="167"/>
			<point x="423" y="170.333"/>
			<point x="404.333" y="169.667" type="curve"/>
			<point x="386" y="106.667"/>
			<point x="363.667" y="79"/>
			<point x="327.667" y="75" type="curve" smooth="yes"/>
			<point x="322.333" y="74.3333"/>
			<point x="317" y="74.3333"/>
			<point x="311" y="74.3333" type="curve" smooth="yes"/>
			<point x="171" y="74.3333" type="line"/>
			<point x="173" y="109.667"/>
			<point x="197.333" y="146.667"/>
			<point x="224.667" y="172.333" type="curve"/>
			<point x="225.667" y="173.333"/>
			<point x="226" y="173.667"/>
			<point x="226.333" y="174" type="curve"/>
			<point x="282.667" y="226.333" type="line" smooth="yes"/>
			<point x="304" y="246.333"/>
			<point x="323" y="264.333"/>
			<point x="340.667" y="280.333" type="curve" smooth="yes"/>
			<point x="407" y="342"/>
			<point x="438.667" y="377.333"/>
			<point x="438.667" y="452" type="curve" smooth="yes"/>
			<point x="438.667" y="557.333"/>
			<point x="350.667" y="610"/>
			<point x="255" y="610" type="curve" smooth="yes"/>
			<point x="122.667" y="610"/>
			<point name=".hr03" x="53.6667" y="520"/>
		</contour>
	</outline>
</glyph>
<glyph name="four" format="2">
	<unicode hex="0034"/>
	<advance width="498"/>
	<outline>
		<contour>
			<point x="465.333" y="212.333" type="curve" smooth="yes"/>
			<point x="372.333" y="212.333" type="line"/>
			<point x="372.333" y="519" type="line" smooth="yes"/>
			<point x="372.333" y="555"/>
			<point x="372.333" y="587.333"/>
			<point x="373" y="609.333" type="curve"/>
			<point x="372.333" y="610" type="line"/>
			<point x="337.667" y="610" type="line" smooth="yes"/>
			<point x="327.333" y="610"/>
			<point x="317.667" y="608"/>
			<point x="308.333" y="606.333" type="curve"/>
			<point x="296.333" y="606.333" type="line"/>
			<point x="225.333" y="521"/>
			<point x="116.667" y="354"/>
			<point x="31.6667" y="224.667" type="curve"/>
			<point x="29.3333" y="220.667"/>
			<point x="25" y="215"/>
			<point x="24" y="211.333" type="curve"/>
			<point x="24.6667" y="202.333"/>
			<point x="40.6667" y="179.667"/>
			<point x="50.3333" y="171.333" type="curve"/>
			<point x="54" y="169.333"/>
			<point x="57.3333" y="167.333"/>
			<point x="62.3333" y="166.667" type="curve" smooth="yes"/>
			<point x="67.3333" y="166"/>
			<point x="73.6667" y="165.333"/>
			<point x="83.6667" y="165.333" type="curve" smooth="yes"/>
			<point x="264.333" y="165.333" type="line"/>
			<point x="264.333" y="118.333" type="line" smooth="yes"/>
			<point x="264.333" y="108.667"/>
			<point x="264.333" y="100"/>
			<point x="263.667" y="91.3333" type="curve" smooth="yes"/>
			<point x="258.333" y="36.6667"/>
			<point x="222.333" y="34.6667"/>
			<point x="175.333" y="31.6667" type="curve"/>
			<point x="166.667" y="25.6667"/>
			<point x="166.667" y="4"/>
			<point x="175.333" y="-2" type="curve"/>
			<point x="239.333" y="-1"/>
			<point x="273.333" y="0"/>
			<point x="313" y="0" type="curve" smooth="yes"/>
			<point x="327.333" y="0" type="line" smooth="yes"/>
			<point x="363.667" y="0"/>
			<point x="398.333" y="-1"/>
			<point x="457.667" y="-2" type="curve"/>
			<point x="466.333" y="4"/>
			<point x="466.333" y="25.6667"/>
			<point x="457.667" y="31.6667" type="curve"/>
			<point x="412.667" y="34.3333"/>
			<point x="384.333" y="35.6667"/>
			<point x="375.667" y="78.6667" type="curve" smooth="yes"/>
			<point x="373.667" y="89.3333"/>
			<point x="372.333" y="102.667"/>
			<point x="372.333" y="118.333" type="curve" smooth="yes"/>
			<point x="372.333" y="165.333" type="line"/>
			<point x="451.333" y="165.333" type="line" smooth="yes"/>
			<point x="465.333" y="165.333"/>
			<point x="480.333" y="184.333"/>
			<point x="480.333" y="196.333" type="curve" smooth="yes"/>
			<point x="480.333" y="206.333"/>
			<point x="476.333" y="212.333"/>
		</contour>
		<contour>
			<point x="264.333" y="503" type="curve"/>
			<point x="264.333" y="212.333" type="line"/>
			<point x="78" y="212.333" type="line"/>
			<point x="128.333" y="295.667"/>
			<point x="206" y="423.667"/>
		</contour>
	</outline>
</glyph>
<glyph name="five" format="2">
	<unicode hex="0035"/>
	<advance width="498"/>
	<outline>
		<contour>
			<point x="321.667" y="188.333" type="curve" smooth="yes"/>
			<point x="321.667" y="91.3333"/>
			<point x="281.667" y="30.6667"/>
			<point x="225" y="30.6667" type="curve" smooth="yes"/>
			<point x="201.667" y="30.6667"/>
			<point x="184" y="49.3333"/>
			<point x="169.333" y="71.6667" type="curve"/>
			<point x="166.333" y="75.6667"/>
			<point x="163.333" y="79.6667"/>
			<point x="160.333" y="83.6667" type="curve"/>
			<point x="146.667" y="99.3333"/>
			<point x="126.333" y="112.333"/>
			<point x="99.3333" y="112.333" type="curve" smooth="yes"/>
			<point x="69" y="112.333"/>
			<point x="52.6667" y="90"/>
			<point x="52.6667" y="68.6667" type="curve" smooth="yes"/>
			<point x="52.6667" y="52"/>
			<point x="67.3333" y="31.3333"/>
			<point x="90.6667" y="18.6667" type="curve" smooth="yes"/>
			<point x="123.333" y="1"/>
			<point x="171.333" y="-9"/>
			<point x="212.667" y="-10.3333" type="curve"/>
			<point x="219" y="-10.3333"/>
			<point x="225" y="-10.3333"/>
			<point x="231" y="-10" type="curve"/>
			<point x="353" y="-7"/>
			<point x="436" y="88"/>
			<point x="441.333" y="202.333" type="curve"/>
			<point x="442" y="208.333"/>
			<point x="442" y="215"/>
			<point x="441.667" y="221" type="curve"/>
			<point x="439.333" y="315.667"/>
			<point x="372" y="389.667"/>
			<point x="262.333" y="392.667" type="curve"/>
			<point x="257.667" y="393"/>
			<point x="251.333" y="393"/>
			<point x="245.667" y="393" type="curve"/>
			<point x="209.333" y="391.667"/>
			<point x="164.333" y="384.667"/>
			<point x="144.333" y="379" type="curve"/>
			<point x="163.667" y="522.667" type="line"/>
			<point x="194.667" y="519.333"/>
			<point x="244" y="517"/>
			<point x="288" y="516.333" type="curve"/>
			<point x="293.667" y="516.333"/>
			<point x="299.333" y="516.333"/>
			<point x="304.333" y="516.333" type="curve"/>
			<point x="337.333" y="516.667"/>
			<point x="359" y="518.667"/>
			<point x="411" y="522.333" type="curve"/>
			<point x="429" y="602.333" type="line"/>
			<point x="411.333" y="612.333" type="line"/>
			<point x="345.667" y="606"/>
			<point x="304.667" y="600.333"/>
			<point x="248.667" y="600" type="curve"/>
			<point x="243" y="600"/>
			<point x="237" y="600"/>
			<point x="232" y="600" type="curve"/>
			<point x="197" y="601.333"/>
			<point x="165" y="605.333"/>
			<point x="120.667" y="608.333" type="curve"/>
			<point x="82.6667" y="313.667" type="line"/>
			<point x="87.6667" y="312.667"/>
			<point x="93" y="312"/>
			<point x="97.6667" y="310.667" type="curve"/>
			<point x="154.667" y="331.333"/>
			<point x="180.667" y="337.667"/>
			<point x="216.333" y="339" type="curve"/>
			<point x="221.333" y="339"/>
			<point x="227" y="339"/>
			<point x="232.667" y="338.667" type="curve" smooth="yes"/>
			<point x="283.333" y="336.667"/>
			<point x="321.667" y="288.667"/>
		</contour>
	</outline>
</glyph>
<glyph name="eight" format="2">
	<unicode hex="0038"/>
	<advance width="498"/>
	<outline>
		<contour>
			<point x="431.667" y="485.667" type="curve" smooth="yes"/>
			<point x="431.667" y="562"/>
			<point x="365.333" y="610"/>
			<point x="261.667" y="610" type="curve" smooth="yes"/>
			<point x="143.667" y="610"/>
			<point x="67" y="550.333"/>
			<point x="67" y="459.667" type="curve" smooth="yes"/>
			<point x="67" y="405.667"/>
			<point x="93.6667" y="368.333"/>
			<point x="160.333" y="332" type="curve" smooth="yes"/>
			<point x="183" y="319.333" type="line"/>
			<point x="85" y="271.333"/>
			<point name=".hr01" x="38" y="214.333"/>
			<point x="38" y="142" type="curve" smooth="yes"/>
			<point x="38" y="48"/>
			<point x="115.333" y="-10"/>
			<point x="240" y="-10" type="curve" smooth="yes"/>
			<point x="365.333" y="-10"/>
			<point x="459.667" y="66.6667"/>
			<point x="459.667" y="169" type="curve" smooth="yes"/>
			<point x="459.667" y="227"/>
			<point x="429" y="279.333"/>
			<point x="378.333" y="310" type="curve" smooth="yes"/>
			<point x="315.667" y="346.333" type="line"/>
			<point x="385.333" y="371.333"/>
			<point x="431.667" y="426.667"/>
		</contour>
		<contour>
			<point x="245.333" y="28.6667" type="curve" smooth="yes"/>
			<point x="180.333" y="28.6667"/>
			<point x="142.333" y="71.3333"/>
			<point x="142.333" y="146" type="curve" smooth="yes"/>
			<point x="142.333" y="211"/>
			<point x="169.333" y="264.333"/>
			<point x="219.333" y="298" type="curve"/>
			<point x="270.667" y="270" type="line" smooth="yes"/>
			<point x="330" y="237"/>
			<point x="354" y="201"/>
			<point x="354" y="143.333" type="curve" smooth="yes"/>
			<point x="354" y="72.3333"/>
			<point x="312" y="28.6667"/>
		</contour>
		<contour>
			<point x="255.333" y="574.667" type="curve" smooth="yes"/>
			<point x="301.667" y="574.667"/>
			<point x="330.667" y="542.333"/>
			<point x="330.667" y="489" type="curve" smooth="yes"/>
			<point x="330.667" y="446.667"/>
			<point x="309.333" y="397"/>
			<point x="278" y="369.333" type="curve"/>
			<point x="234.667" y="393" type="line" smooth="yes"/>
			<point x="197" y="414"/>
			<point x="172.667" y="452"/>
			<point x="172.667" y="490" type="curve" smooth="yes"/>
			<point name=".hr02" x="172.667" y="539.667"/>
			<point x="206.333" y="574.667"/>
		</contour>
	</outline>
</glyph>
<glyph name="nine" format="2">
	<unicode hex="0039"/>
	<advance width="498"/>
	<outline>
		<contour>
			<point x="81.6667" y="25.3333" type="curve"/>
			<point x="79.6667" y="13.3333"/>
			<point x="81.6667" y="-2.33333"/>
			<point x="89.6667" y="-10.6667" type="curve"/>
			<point x="300" y="11"/>
			<point x="460.333" y="130"/>
			<point x="460.333" y="358.333" type="curve" smooth="yes"/>
			<point x="460.333" y="568.667"/>
			<point x="343.333" y="610"/>
			<point x="250.333" y="610" type="curve" smooth="yes"/>
			<point x="102.667" y="610"/>
			<point x="46" y="483.667"/>
			<point x="46" y="396.333" type="curve" smooth="yes"/>
			<point x="46" y="325.667"/>
			<point x="100.333" y="234.667"/>
			<point x="234" y="234.667" type="curve" smooth="yes"/>
			<point x="268" y="234.667"/>
			<point x="307" y="248"/>
			<point x="338.333" y="265.333" type="curve"/>
			<point x="315.333" y="120.333"/>
			<point x="220.667" y="44.6667"/>
		</contour>
		<contour>
			<point x="345.333" y="304.667" type="curve"/>
			<point x="309" y="281.333"/>
			<point x="284" y="279.667"/>
			<point x="266.333" y="279.667" type="curve" smooth="yes"/>
			<point x="194" y="279.667"/>
			<point x="163" y="350"/>
			<point x="163" y="414.333" type="curve" smooth="yes"/>
			<point x="163" y="523"/>
			<point x="198.333" y="572.333"/>
			<point x="238.667" y="572.333" type="curve" smooth="yes"/>
			<point x="323.667" y="572.333"/>
			<point x="348.667" y="466.333"/>
			<point x="348.667" y="362" type="curve" smooth="yes"/>
			<point x="348.667" y="346"/>
			<point x="348" y="320.667"/>
		</contour>
	</outline>
</glyph>
<glyph name="colon" format="2">
	<unicode hex="003A"/>
	<advance width="249"/>
	<outline>
		<contour>
			<point x="63.3333" y="60" type="curve" smooth="yes"/>
			<point x="63.3333" y="25"/>
			<point x="92.6667" y="-3"/>
			<point x="129" y="-3" type="curve" smooth="yes"/>
			<point x="165.333" y="-3"/>
			<point x="196" y="26.3333"/>
			<point x="196" y="61.3333" type="curve" smooth="yes"/>
			<point x="196" y="97"/>
			<point x="166.667" y="125"/>
			<point x="130.333" y="125" type="curve" smooth="yes"/>
			<point x="94" y="125"/>
			<point x="63.3333" y="95.6667"/>
		</contour>
		<contour>
			<point x="63.3333" y="358" type="curve" smooth="yes"/>
			<point x="63.3333" y="323"/>
			<point x="92.6667" y="295"/>
			<point x="129" y="295" type="curve" smooth="yes"/>
			<point x="165.333" y="295"/>
			<point x="196" y="324.333"/>
			<point x="196" y="359.333" type="curve" smooth="yes"/>
			<point x="196" y="395"/>
			<point x="166.667" y="423"/>
			<point x="130.333" y="423" type="curve" smooth="yes"/>
			<point x="94" y="423"/>
			<point x="63.3333" y="393.667"/>
		</contour>
	</outline>
</glyph>
<glyph name="equal" format="2">
	<unicode hex="003D"/>
	<advance width="551"/>
	<outline>
		<contour>
			<point x="492.333" y="329.333" type="curve"/>
			<point x="476.333" y="332"/>
			<point x="459" y="335"/>
			<point x="439.667" y="335" type="curve" smooth="yes"/>
			<point x="67.6667" y="335" type="line"/>
			<point x="63.6667" y="322.333"/>
			<point x="59.3333" y="303.333"/>
			<point x="59.3333" y="285.667" type="curve"/>
			<point x="75.3333" y="283"/>
			<point x="93.3333" y="280.333"/>
			<point x="112.333" y="280.333" type="curve" smooth="yes"/>
			<point x="483.333" y="280.333" type="line"/>
			<point x="487.667" y="293"/>
			<point x="492.333" y="313.333"/>
		</contour>
		<contour>
			<point x="492.333" y="190.667" type="curve"/>
			<point x="476.333" y="193.333"/>
			<point x="459" y="196.333"/>
			<point x="439.667" y="196.333" type="curve" smooth="yes"/>
			<point x="67.6667" y="196.333" type="line"/>
			<point x="63.6667" y="183.667"/>
			<point x="59.3333" y="165.333"/>
			<point x="59.3333" y="147.667" type="curve"/>
			<point x="75.3333" y="145"/>
			<point x="93.3333" y="142.333"/>
			<point x="112.333" y="142.333" type="curve" smooth="yes"/>
			<point x="483.333" y="142.333" type="line"/>
			<point x="487.667" y="155"/>
			<point x="492.333" y="174.667"/>
		</contour>
	</outline>
</glyph>
<glyph name="greater" format="2">
	<unicode hex="003E"/>
	<advance width="525"/>
	<outline>
		<contour>
			<point x="376.667" y="237.333" type="line"/>
			<point x="59.6667" y="121.667" type="line"/>
			<point x="55.3333" y="110.094"/>
			<point x="55" y="71.1722"/>
			<point x="59.6667" y="63.6667" type="curve"/>
			<point x="475.667" y="214" type="line"/>
			<point x="478.667" y="225.268"/>
			<point x="478.667" y="249.239"/>
			<point x="475.667" y="259.333" type="curve"/>
			<point x="59.6667" y="411.333" type="line"/>
			<point x="55" y="403.828"/>
			<point x="55.3333" y="364.906"/>
			<point x="59.6667" y="353.333" type="curve"/>
		</contour>
	</outline>
</glyph>
<glyph name="A" format="2">
	<unicode hex="0041"/>
	<advance width="725"/>
	<outline>
		<contour>
			<point x="161.667" y="79" type="curve" smooth="yes"/>
			<point x="215.333" y="220" type="line" smooth="yes"/>
			<point x="220.333" y="233"/>
			<point x="226.333" y="237"/>
			<point x="250.333" y="237" type="curve" smooth="yes"/>
			<point x="447.333" y="237" type="line"/>
			<point x="504" y="72" type="line" smooth="yes"/>
			<point x="514.667" y="40.6667"/>
			<point x="465.333" y="34.6667"/>
			<point x="430" y="31.6667" type="curve"/>
			<point x="424" y="25.6667"/>
			<point x="424" y="4"/>
			<point x="430" y="-2" type="curve"/>
			<point x="467" y="-1"/>
			<point x="548.667" y="0"/>
			<point x="587.667" y="0" type="curve" smooth="yes"/>
			<point x="628.667" y="0"/>
			<point x="678.667" y="-1"/>
			<point x="715" y="-2" type="curve"/>
			<point x="721" y="4"/>
			<point x="721" y="25.6667"/>
			<point x="715" y="31.6667" type="curve"/>
			<point x="676" y="35.6667"/>
			<point x="642.667" y="36"/>
			<point x="625" y="86" type="curve" smooth="yes"/>
			<point x="419" y="658" type="line"/>
			<point x="404" y="649"/>
			<point x="355" y="622"/>
			<point x="327.333" y="622" type="curve"/>
			<point x="107" y="102" type="line" smooth="yes"/>
			<point x="81" y="40"/>
			<point x="51" y="34.6667"/>
			<point x="7" y="31.6667" type="curve"/>
			<point x="1" y="25.6667"/>
			<point x="1" y="4"/>
			<point x="7" y="-2" type="curve"/>
			<point x="40.3333" y="-1"/>
			<point x="63.3333" y="0"/>
			<point x="99.3333" y="0" type="curve" smooth="yes"/>
			<point x="140.333" y="0"/>
			<point x="193.667" y="-1"/>
			<point x="230.667" y="-2" type="curve"/>
			<point x="236.667" y="4"/>
			<point x="236.667" y="25.6667"/>
			<point x="230.667" y="31.6667" type="curve"/>
			<point x="192.667" y="34.6667"/>
			<point x="145.667" y="38"/>
		</contour>
		<contour>
			<point x="269.667" y="283" type="line" smooth="yes"/>
			<point x="247.667" y="283"/>
			<point x="240.667" y="286"/>
			<point x="244.667" y="296" type="curve" smooth="yes"/>
			<point x="337.333" y="531.667" type="line"/>
			<point x="344" y="531.667" type="line"/>
			<point x="430" y="283" type="line"/>
		</contour>
	</outline>
	<anchor name="t.uni0302" x="354" y="740"/>
	<anchor name="m.uni0316_2" x="308" y="-110"/>
	<guideline x="0" y="740" angle="0"/>
</glyph>
<glyph name="B" format="2">
	<unicode hex="0042"/>
	<advance width="632"/>
	<outline>
		<contour>
			<point x="164.667" y="645" type="curve" smooth="yes"/>
			<point x="126" y="645"/>
			<point x="32" y="646.667"/>
			<point x="19" y="647" type="curve"/>
			<point x="10.3333" y="641"/>
			<point x="10.3333" y="619.333"/>
			<point x="19" y="613.333" type="curve"/>
			<point x="79" y="610.333"/>
			<point x="103.333" y="606"/>
			<point x="103.333" y="523" type="curve" smooth="yes"/>
			<point x="103.333" y="122" type="line" smooth="yes"/>
			<point x="103.333" y="39"/>
			<point x="79" y="34.6667"/>
			<point x="19" y="31.6667" type="curve"/>
			<point x="10.3333" y="25.6667"/>
			<point x="10.3333" y="4"/>
			<point x="19" y="-2" type="curve"/>
			<point x="32" y="-1.66667"/>
			<point x="126" y="0"/>
			<point x="165" y="0" type="curve" smooth="yes"/>
			<point x="203.667" y="0"/>
			<point x="255" y="-2"/>
			<point x="323" y="-2" type="curve" smooth="yes"/>
			<point x="526" y="-2"/>
			<point x="587.667" y="88.6667"/>
			<point x="587.667" y="185.333" type="curve" smooth="yes"/>
			<point x="587.667" y="276"/>
			<point x="536" y="332.333"/>
			<point x="436.333" y="359.333" type="curve"/>
			<point x="436.333" y="361.333" type="line"/>
			<point x="489" y="385.667"/>
			<point name=".hr01" x="532" y="439.667"/>
			<point x="532" y="491.667" type="curve" smooth="yes"/>
			<point x="532" y="560"/>
			<point x="497.667" y="647"/>
			<point x="301" y="647" type="curve" smooth="yes"/>
			<point x="256" y="647"/>
			<point x="198" y="645"/>
		</contour>
		<contour>
			<point x="225" y="333.333" type="line"/>
			<point x="295.333" y="333.333" type="line" smooth="yes"/>
			<point x="409.667" y="333.333"/>
			<point x="458.667" y="267"/>
			<point name=".hr02" x="458.667" y="179.667" type="curve" smooth="yes"/>
			<point x="458.667" y="115.333"/>
			<point x="435.333" y="37"/>
			<point x="296.667" y="37" type="curve" smooth="yes"/>
			<point x="233.333" y="37"/>
			<point x="225" y="55.6667"/>
			<point x="225" y="95.3333" type="curve" smooth="yes"/>
		</contour>
		<contour>
			<point x="225" y="558" type="line" smooth="yes"/>
			<point x="225" y="595"/>
			<point x="228.333" y="607.667"/>
			<point x="300.667" y="607.667" type="curve" smooth="yes"/>
			<point x="350" y="607.667"/>
			<point x="411.667" y="585.667"/>
			<point name=".hr03" x="411.667" y="486.333" type="curve" smooth="yes"/>
			<point x="411.667" y="404.667"/>
			<point x="362" y="372.667"/>
			<point x="287" y="372.667" type="curve" smooth="yes"/>
			<point x="225" y="372.667" type="line"/>
		</contour>
	</outline>
	<anchor name="m.uni0302" x="267" y="850"/>
	<anchor name="m.uni0316_2" x="268" y="-110"/>
	<anchor name="m.uni031A_3" x="509" y="732"/>
	<anchor name="t.uni0302" x="267.333" y="740"/>
</glyph>
<glyph name="C" format="2">
	<unicode hex="0043"/>
	<advance width="686"/>
	<outline>
		<contour>
			<point x="383.667" y="-10" type="curve" smooth="yes"/>
			<point x="480.667" y="-10"/>
			<point x="569.667" y="36"/>
			<point x="637.667" y="125" type="curve"/>
			<point x="632.667" y="134"/>
			<point x="619" y="144"/>
			<point x="608" y="144" type="curve"/>
			<point x="537" y="66"/>
			<point x="460.333" y="38.3333"/>
			<point x="382.667" y="38.3333" type="curve" smooth="yes"/>
			<point x="260.333" y="38.3333"/>
			<point x="168" y="179.667"/>
			<point x="168" y="332.333" type="curve" smooth="yes"/>
			<point x="168" y="477.667"/>
			<point x="244.333" y="618.333"/>
			<point x="373.667" y="618.333" type="curve" smooth="yes"/>
			<point x="511.667" y="618.333"/>
			<point x="560" y="539"/>
			<point x="586" y="453" type="curve"/>
			<point x="598" y="449"/>
			<point x="614.667" y="452"/>
			<point x="625.667" y="458" type="curve"/>
			<point x="620.667" y="510"/>
			<point x="613" y="558"/>
			<point x="603.667" y="613" type="curve"/>
			<point x="552.667" y="618"/>
			<point x="507.667" y="658"/>
			<point x="384.667" y="658" type="curve" smooth="yes"/>
			<point x="189.333" y="658"/>
			<point x="37" y="522"/>
			<point x="37" y="313.333" type="curve" smooth="yes"/>
			<point x="37" y="106"/>
			<point x="175.333" y="-10"/>
		</contour>
	</outline>
	<anchor name="t.uni0302" x="340" y="740"/>
	<anchor name="m.uni0316_2" x="363" y="-110"/>
	<anchor name="m.uni031A_3" x="609" y="732"/>
</glyph>
<glyph name="D" format="2">
	<unicode hex="0044"/>
	<advance width="723"/>
	<outline>
		<contour>
			<point x="27" y="-2" type="curve"/>
			<point x="47.3333" y="-1.66667"/>
			<point x="133.667" y="0"/>
			<point x="173" y="0" type="curve" smooth="yes"/>
			<point x="212" y="0"/>
			<point x="280.667" y="-2"/>
			<point x="341.667" y="-2" type="curve" smooth="yes"/>
			<point x="526" y="-2"/>
			<point x="676.667" y="84"/>
			<point x="676.667" y="308.667" type="curve" smooth="yes"/>
			<point x="676.667" y="494"/>
			<point x="545.667" y="646.333"/>
			<point x="317.667" y="646.333" type="curve" smooth="yes"/>
			<point x="258.667" y="646.333"/>
			<point x="212.333" y="645"/>
			<point x="172.667" y="645" type="curve" smooth="yes"/>
			<point x="134" y="645"/>
			<point x="47.6667" y="646.667"/>
			<point x="27" y="647" type="curve"/>
			<point x="18.3333" y="641"/>
			<point x="18.3333" y="619.333"/>
			<point x="27" y="613.333" type="curve"/>
			<point x="87" y="610.333"/>
			<point x="111.333" y="606"/>
			<point x="111.333" y="523" type="curve" smooth="yes"/>
			<point x="111.333" y="122" type="line" smooth="yes"/>
			<point x="111.333" y="39"/>
			<point x="87" y="34.6667"/>
			<point x="27" y="31.6667" type="curve"/>
			<point x="18.3333" y="25.6667"/>
			<point x="18.3333" y="4"/>
		</contour>
		<contour>
			<point x="233" y="107.333" type="curve" smooth="yes"/>
			<point x="233" y="540.667" type="line" smooth="yes"/>
			<point x="233" y="589"/>
			<point x="262" y="607"/>
			<point x="302.333" y="607" type="curve" smooth="yes"/>
			<point x="505.667" y="607"/>
			<point x="544" y="436"/>
			<point x="544" y="284" type="curve" smooth="yes"/>
			<point x="544" y="95.3333"/>
			<point x="431" y="37.3333"/>
			<point x="333.333" y="37.3333" type="curve" smooth="yes"/>
			<point x="254" y="37.3333"/>
			<point x="233" y="52"/>
		</contour>
	</outline>
	<anchor name="m.uni0302" x="306" y="850"/>
	<anchor name="m.uni0316_2" x="289" y="-110"/>
	<anchor name="m.uni031A_3" x="619" y="732"/>
	<anchor name="t.uni0302" x="303.333" y="740"/>
</glyph>
<glyph name="G" format="2">
	<unicode hex="0047"/>
	<advance width="716"/>
	<outline>
		<contour>
			<point x="389" y="658" type="curve" smooth="yes"/>
			<point x="194.667" y="658"/>
			<point x="34.3333" y="521.667"/>
			<point x="34.3333" y="307" type="curve" smooth="yes"/>
			<point x="34.3333" y="105"/>
			<point x="178.333" y="-10"/>
			<point x="374" y="-10" type="curve" smooth="yes"/>
			<point x="488" y="-10"/>
			<point x="591" y="21"/>
			<point x="656.333" y="76.3333" type="curve"/>
			<point x="646" y="85.3333"/>
			<point x="641" y="93.3333"/>
			<point x="641" y="104.333" type="curve" smooth="yes"/>
			<point x="641" y="221" type="line" smooth="yes"/>
			<point x="641" y="256"/>
			<point x="656.667" y="266"/>
			<point x="685" y="269" type="curve"/>
			<point x="691" y="275"/>
			<point x="691" y="299.667"/>
			<point x="685" y="305.667" type="curve"/>
			<point x="658.333" y="304.667"/>
			<point x="618.667" y="303.667"/>
			<point x="580" y="303.667" type="curve" smooth="yes"/>
			<point x="544.333" y="303.667"/>
			<point x="484.667" y="304.667"/>
			<point x="440" y="305.667" type="curve"/>
			<point x="434" y="299.667"/>
			<point x="434" y="275"/>
			<point x="440" y="269" type="curve"/>
			<point x="493" y="265"/>
			<point x="519.333" y="261"/>
			<point x="519.333" y="221" type="curve" smooth="yes"/>
			<point x="519.333" y="70.6667" type="line"/>
			<point x="486.667" y="38.6667"/>
			<point x="448.333" y="30"/>
			<point x="396.333" y="30" type="curve" smooth="yes"/>
			<point x="231" y="30"/>
			<point x="167" y="195"/>
			<point x="167" y="327" type="curve" smooth="yes"/>
			<point x="167" y="472.667"/>
			<point x="228.333" y="618"/>
			<point x="375" y="618" type="curve" smooth="yes"/>
			<point x="510" y="618"/>
			<point x="567.667" y="539"/>
			<point x="593" y="453" type="curve"/>
			<point x="607.333" y="451.333"/>
			<point x="621.667" y="453.333"/>
			<point x="633.333" y="459" type="curve"/>
			<point x="626.667" y="501"/>
			<point x="621.667" y="547.667"/>
			<point x="611.667" y="619.667" type="curve"/>
			<point x="557" y="623"/>
			<point x="509.333" y="658"/>
		</contour>
	</outline>
	<anchor name="t.uni0302" x="365" y="740"/>
	<anchor name="t.uni0315_1" x="613.333" y="606"/>
	<anchor name="m.uni0316_2" x="367" y="-110"/>
	<anchor name="m.uni031A_3" x="631" y="732"/>
</glyph>
<glyph name="J" format="2">
	<unicode hex="004A"/>
	<advance width="356"/>
	<outline>
		<contour>
			<point x="262.667" y="522.333" type="line" smooth="yes"/>
			<point x="262.667" y="605.333"/>
			<point x="279.667" y="610.333"/>
			<point x="339.667" y="613.333" type="curve"/>
			<point x="345.667" y="619.333"/>
			<point x="345.667" y="641"/>
			<point x="339.667" y="647" type="curve"/>
			<point x="294.333" y="646"/>
			<point x="252.667" y="645"/>
			<point x="201" y="645" type="curve" smooth="yes"/>
			<point x="145.667" y="645"/>
			<point x="94" y="646"/>
			<point x="44" y="647" type="curve"/>
			<point x="38" y="641"/>
			<point x="38" y="619.333"/>
			<point x="44" y="613.333" type="curve"/>
			<point x="124" y="610.333"/>
			<point x="141" y="605.333"/>
			<point x="141" y="522.333" type="curve" smooth="yes"/>
			<point x="141" y="81" type="line" smooth="yes"/>
			<point x="141" y="-99"/>
			<point x="119.667" y="-127.667"/>
			<point x="80" y="-127.667" type="curve" smooth="yes"/>
			<point x="61.6667" y="-127.667"/>
			<point x="45" y="-117"/>
			<point x="36" y="-103.333" type="curve" smooth="yes"/>
			<point x="25.3333" y="-88"/>
			<point x="19" y="-65"/>
			<point x="-16" y="-65" type="curve" smooth="yes"/>
			<point x="-32.6667" y="-65"/>
			<point x="-69.3333" y="-90"/>
			<point x="-69.3333" y="-116.667" type="curve" smooth="yes"/>
			<point x="-69.3333" y="-160"/>
			<point x="-5.66667" y="-182"/>
			<point x="21" y="-182" type="curve" smooth="yes"/>
			<point x="75.3333" y="-182"/>
			<point x="119.667" y="-164"/>
			<point x="160.667" y="-129" type="curve" smooth="yes"/>
			<point x="204.667" y="-92"/>
			<point x="262.667" y="-40"/>
			<point x="262.667" y="103" type="curve" smooth="yes"/>
		</contour>
	</outline>
	<anchor name="t.uni0302" x="194.667" y="740"/>
</glyph>
<glyph name="Q" format="2">
	<unicode hex="0051"/>
	<advance width="721"/>
	<outline>
		<contour>
			<point x="37" y="309.333" type="curve" smooth="yes"/>
			<point x="37" y="126.333"/>
			<point x="167.333" y="9"/>
			<point x="321.667" y="-8" type="curve"/>
			<point x="265.667" y="-36.6667"/>
			<point x="187" y="-98"/>
			<point x="152.333" y="-153" type="curve"/>
			<point x="191.333" y="-179.667" type="line"/>
			<point x="202.667" y="-163.333"/>
			<point x="215.667" y="-148.333"/>
			<point x="228" y="-134.333" type="curve"/>
			<point x="242.667" y="-124.333"/>
			<point x="256.333" y="-120.667"/>
			<point x="264.333" y="-120.667" type="curve" smooth="yes"/>
			<point x="306.667" y="-120.667"/>
			<point x="343.333" y="-141.667"/>
			<point x="382.333" y="-165" type="curve" smooth="yes"/>
			<point x="429.333" y="-192.667"/>
			<point x="479.333" y="-222.333"/>
			<point x="550.333" y="-222.333" type="curve" smooth="yes"/>
			<point x="613.333" y="-222.333"/>
			<point x="655.333" y="-189.667"/>
			<point x="694.333" y="-133.667" type="curve"/>
			<point x="677.333" y="-115" type="line"/>
			<point x="655.333" y="-142"/>
			<point x="619.333" y="-152"/>
			<point x="590.333" y="-152" type="curve" smooth="yes"/>
			<point x="549" y="-152"/>
			<point x="510.333" y="-132.667"/>
			<point x="469.667" y="-111.333" type="curve" smooth="yes"/>
			<point x="424" y="-88"/>
			<point x="376" y="-63.3333"/>
			<point x="318" y="-63.3333" type="curve" smooth="yes"/>
			<point x="314.667" y="-63.3333"/>
			<point x="311" y="-63.3333"/>
			<point x="308" y="-63.6667" type="curve"/>
			<point x="353.333" y="-31.6667"/>
			<point x="397.667" y="-12"/>
			<point x="426.333" y="-4.33333" type="curve"/>
			<point x="594" y="25.6667"/>
			<point x="684.667" y="164.667"/>
			<point x="684.667" y="329" type="curve" smooth="yes"/>
			<point x="684.667" y="530.667"/>
			<point x="538.333" y="658"/>
			<point x="356.667" y="658" type="curve" smooth="yes"/>
			<point x="160" y="658"/>
			<point x="37" y="500.667"/>
		</contour>
		<contour>
			<point x="169.667" y="328.333" type="curve" smooth="yes"/>
			<point x="169.667" y="534.333"/>
			<point x="252" y="618"/>
			<point x="344.333" y="618" type="curve" smooth="yes"/>
			<point x="459.667" y="618"/>
			<point x="552" y="511.333"/>
			<point x="552" y="308.667" type="curve" smooth="yes"/>
			<point x="552" y="138.333"/>
			<point x="484.667" y="30"/>
			<point x="379.333" y="30" type="curve" smooth="yes"/>
			<point x="265.333" y="30"/>
			<point x="169.667" y="139"/>
		</contour>
	</outline>
	<anchor name="m.uni0302" x="348" y="850"/>
	<anchor name="t.uni0315_1" x="620" y="606"/>
	<anchor name="m.uni031A_3" x="619" y="732"/>
	<anchor name="t.uni0302" x="349" y="740"/>
</glyph>
<glyph name="S" format="2">
	<unicode hex="0053"/>
	<advance width="498"/>
	<outline>
		<contour>
			<point x="416" y="630.667" type="curve"/>
			<point x="358.667" y="638.667"/>
			<point x="345.333" y="658"/>
			<point x="248.333" y="658" type="curve" smooth="yes"/>
			<point x="150" y="658"/>
			<point x="44.3333" y="593"/>
			<point x="44.3333" y="485" type="curve" smooth="yes"/>
			<point x="44.3333" y="372"/>
			<point x="118.667" y="326"/>
			<point x="210" y="278.667" type="curve" smooth="yes"/>
			<point x="268" y="249.667"/>
			<point x="344.667" y="208.333"/>
			<point x="344.667" y="126.333" type="curve" smooth="yes"/>
			<point x="344.667" y="66.6667"/>
			<point x="301" y="30"/>
			<point x="233.667" y="30" type="curve" smooth="yes"/>
			<point x="158" y="30"/>
			<point x="92" y="81"/>
			<point x="71.3333" y="174.667" type="curve"/>
			<point x="56.3333" y="180"/>
			<point x="42.3333" y="176.667"/>
			<point x="29" y="172.333" type="curve"/>
			<point x="32.3333" y="149"/>
			<point x="33" y="138"/>
			<point x="33.6667" y="121" type="curve"/>
			<point x="64" y="71.6667"/>
			<point x="78.6667" y="34.6667"/>
			<point x="106.333" y="3.33333" type="curve"/>
			<point x="159.333" y="3.33333"/>
			<point x="175.667" y="-6.33333"/>
			<point x="279.333" y="1" type="curve"/>
			<point x="370.667" y="13"/>
			<point x="456.667" y="85.3333"/>
			<point x="456.667" y="184" type="curve" smooth="yes"/>
			<point x="456.667" y="289.333"/>
			<point x="364" y="354.333"/>
			<point x="278.667" y="388" type="curve" smooth="yes"/>
			<point x="232" y="406"/>
			<point x="151.333" y="456"/>
			<point x="151.333" y="522" type="curve" smooth="yes"/>
			<point x="151.333" y="578"/>
			<point x="191" y="619.333"/>
			<point x="244.667" y="619.333" type="curve" smooth="yes"/>
			<point x="333.667" y="619.333"/>
			<point x="362.667" y="547.333"/>
			<point x="381.333" y="481.333" type="curve"/>
			<point x="394.333" y="478"/>
			<point x="415.333" y="478.333"/>
			<point x="425.667" y="486.667" type="curve"/>
			<point x="415.333" y="537.667"/>
			<point x="414.333" y="576.333"/>
		</contour>
	</outline>
	<anchor name="t.uni0302" x="232" y="740"/>
	<anchor name="m.uni0316_2" x="234" y="-110"/>
	<anchor name="m.uni031A_3" x="481" y="732"/>
</glyph>
<glyph name="W" format="2">
	<unicode hex="0057"/>
	<advance width="1002"/>
	<outline>
		<contour>
			<point x="641.333" y="12.3333" type="line" smooth="yes"/>
			<point x="648" y="-6"/>
			<point x="657" y="-12"/>
			<point x="671" y="-12" type="curve" smooth="yes"/>
			<point x="683.333" y="-12"/>
			<point x="695" y="-5"/>
			<point x="701.333" y="12" type="curve" smooth="yes"/>
			<point x="893.667" y="533" type="line" smooth="yes"/>
			<point x="912" y="584"/>
			<point x="944.667" y="610.333"/>
			<point x="992.333" y="613.333" type="curve"/>
			<point x="998.333" y="619.333"/>
			<point x="998.333" y="641"/>
			<point x="992.333" y="647" type="curve"/>
			<point x="960.667" y="646"/>
			<point x="927.333" y="645"/>
			<point x="895.333" y="645" type="curve" smooth="yes"/>
			<point x="859.333" y="645"/>
			<point x="813.333" y="646"/>
			<point x="775.333" y="647" type="curve"/>
			<point x="769.333" y="641"/>
			<point x="769.333" y="619.333"/>
			<point x="775.333" y="613.333" type="curve"/>
			<point x="827" y="606.333"/>
			<point x="853" y="591.333"/>
			<point x="840" y="552.333" type="curve" smooth="yes"/>
			<point x="704.667" y="159.667" type="line"/>
			<point x="699.667" y="160.667" type="line"/>
			<point x="563.667" y="566.667" type="line" smooth="yes"/>
			<point x="550.667" y="606.667"/>
			<point x="587" y="610.333"/>
			<point x="630.333" y="613.333" type="curve"/>
			<point x="636.333" y="619.333"/>
			<point x="636.333" y="641"/>
			<point x="630.333" y="647" type="curve"/>
			<point x="592" y="646"/>
			<point x="510.667" y="645"/>
			<point x="471.333" y="645" type="curve" smooth="yes"/>
			<point x="433" y="645"/>
			<point x="384" y="646"/>
			<point x="348.667" y="647" type="curve"/>
			<point x="342.667" y="641"/>
			<point x="342.667" y="619.333"/>
			<point x="348.667" y="613.333" type="curve"/>
			<point x="392.333" y="609.667"/>
			<point x="422.333" y="594"/>
			<point x="436.667" y="557.333" type="curve" smooth="yes"/>
		</contour>
		<contour>
			<point x="280.333" y="12.3333" type="line" smooth="yes"/>
			<point x="286.667" y="-7"/>
			<point x="298.667" y="-12"/>
			<point x="309.667" y="-12" type="curve" smooth="yes"/>
			<point x="320.667" y="-12"/>
			<point x="333.333" y="-7.33333"/>
			<point x="341" y="12.3333" type="curve" smooth="yes"/>
			<point x="503" y="419.333" type="line"/>
			<point x="474.333" y="496.333" type="line"/>
			<point x="348.667" y="165.667" type="line"/>
			<point x="345" y="166.667" type="line"/>
			<point x="219" y="572.667" type="line" smooth="yes"/>
			<point x="208.333" y="606.333"/>
			<point x="241.333" y="610.667"/>
			<point x="285" y="613.333" type="curve"/>
			<point x="291" y="619.333"/>
			<point x="291" y="641"/>
			<point x="285" y="647" type="curve"/>
			<point x="249.333" y="646"/>
			<point x="168" y="645"/>
			<point x="129" y="645" type="curve" smooth="yes"/>
			<point x="90" y="645"/>
			<point x="43" y="646"/>
			<point x="8.66667" y="647" type="curve"/>
			<point x="2.66667" y="641"/>
			<point x="2.66667" y="619.333"/>
			<point x="8.66667" y="613.333" type="curve"/>
			<point x="49.6667" y="609.667"/>
			<point x="76" y="604.667"/>
			<point x="92.3333" y="558" type="curve" smooth="yes"/>
		</contour>
	</outline>
	<anchor name="m.uni0302" x="510" y="850"/>
	<anchor name="m.uni0316_2" x="489.667" y="-110"/>
	<anchor name="m.uni031A_3" x="979" y="732"/>
	<anchor name="t.uni0302" x="470.667" y="740"/>
</glyph>
<glyph name="Z" format="2">
	<unicode hex="005A"/>
	<advance width="617"/>
	<outline>
		<contour>
			<point x="27" y="15" type="curve" smooth="yes"/>
			<point x="27" y="5"/>
			<point x="32" y="0"/>
			<point x="46" y="0" type="curve" smooth="yes"/>
			<point x="366.667" y="0" type="line" smooth="yes"/>
			<point x="427" y="0"/>
			<point x="535.667" y="-4"/>
			<point x="564" y="-6.33333" type="curve"/>
			<point x="565.333" y="-6.33333"/>
			<point x="567.333" y="-4.33333"/>
			<point x="567.333" y="-3.66667" type="curve"/>
			<point x="570.667" y="41.3333"/>
			<point x="580.667" y="110.333"/>
			<point x="594" y="169.667" type="curve"/>
			<point x="585" y="173"/>
			<point x="570" y="174.667"/>
			<point x="557.667" y="174.667" type="curve"/>
			<point x="534" y="97.6667"/>
			<point x="493.667" y="44"/>
			<point x="413.333" y="43.3333" type="curve" smooth="yes"/>
			<point x="215.667" y="42" type="line"/>
			<point x="198" y="42"/>
			<point x="190.667" y="45.6667"/>
			<point x="190.667" y="52.6667" type="curve" smooth="yes"/>
			<point x="190.667" y="57.6667"/>
			<point x="194.333" y="63.6667"/>
			<point x="199.333" y="72" type="curve"/>
			<point x="560.333" y="591" type="line" smooth="yes"/>
			<point x="580.333" y="619.667"/>
			<point x="583" y="625.667"/>
			<point x="583" y="636.667" type="curve" smooth="yes"/>
			<point x="583" y="643"/>
			<point x="579.333" y="647"/>
			<point x="567.333" y="647" type="curve" smooth="yes"/>
			<point x="554.667" y="647"/>
			<point x="528.333" y="645"/>
			<point x="499" y="645" type="curve" smooth="yes"/>
			<point x="291.333" y="645" type="line" smooth="yes"/>
			<point x="224.333" y="645"/>
			<point x="114" y="650"/>
			<point x="76.6667" y="653.333" type="curve"/>
			<point x="75.3333" y="653.333"/>
			<point x="72.6667" y="651.333"/>
			<point x="72.6667" y="650.333" type="curve"/>
			<point x="69" y="602.667"/>
			<point x="58.3333" y="533.333"/>
			<point x="48.3333" y="487.667" type="curve"/>
			<point x="58.3333" y="484"/>
			<point x="72.6667" y="482.667"/>
			<point x="84.3333" y="482.667" type="curve"/>
			<point x="104.667" y="559"/>
			<point x="145.333" y="601.667"/>
			<point x="214.333" y="602" type="curve" smooth="yes"/>
			<point x="412" y="603.333" type="line"/>
			<point x="419.333" y="603.333"/>
			<point x="422.667" y="601"/>
			<point x="422.667" y="596.333" type="curve" smooth="yes"/>
			<point x="422.667" y="592.667"/>
			<point x="418.333" y="585.333"/>
			<point x="414" y="579" type="curve" smooth="yes"/>
			<point x="35" y="38" type="line"/>
			<point x="29" y="30"/>
			<point x="27" y="22"/>
		</contour>
	</outline>
	<anchor name="m.uni0302" x="320" y="850"/>
	<anchor name="m.uni0316_2" x="287" y="-110"/>
	<anchor name="m.uni031A_3" x="619" y="732"/>
	<anchor name="t.uni0302" x="315.333" y="740"/>
</glyph>
<glyph name="bracketleft" format="2">
	<unicode hex="005B"/>
	<advance width="383"/>
	<outline>
		<contour>
			<point x="100.667" y="-193" type="line"/>
			<point x="334.667" y="-193" type="line"/>
			<point x="340.667" y="-187"/>
			<point x="340.667" y="-169"/>
			<point x="334.667" y="-163" type="curve"/>
			<point x="196.667" y="-152"/>
			<point x="189.667" y="-137"/>
			<point x="189.667" y="-50" type="curve" smooth="yes"/>
			<point x="189.667" y="561" type="line" smooth="yes"/>
			<point x="189.667" y="648"/>
			<point x="197.667" y="663"/>
			<point x="334.667" y="673" type="curve"/>
			<point x="340.667" y="679"/>
			<point x="340.667" y="697"/>
			<point x="334.667" y="703" type="curve"/>
			<point x="100.667" y="703" type="line"/>
		</contour>
	</outline>
</glyph>
<glyph name="bracketright" format="2">
	<unicode hex="005D"/>
	<advance width="383"/>
	<outline>
		<contour>
			<point x="284" y="702" type="line"/>
			<point x="50" y="702" type="line"/>
			<point x="44" y="696"/>
			<point x="44" y="678"/>
			<point x="50" y="672" type="curve"/>
			<point x="188" y="661"/>
			<point x="195" y="646"/>
			<point x="195" y="559" type="curve" smooth="yes"/>
			<point x="195" y="-52" type="line" smooth="yes"/>
			<point x="195" y="-139"/>
			<point x="187" y="-154"/>
			<point x="50" y="-164" type="curve"/>
			<point x="44" y="-170"/>
			<point x="44" y="-188"/>
			<point x="50" y="-194" type="curve"/>
			<point x="284" y="-194" type="line"/>
		</contour>
	</outline>
</glyph>
<glyph name="grave" format="2">
	<unicode hex="0060"/>
	<advance width="392"/>
	<outline>
		<contour>
			<point x="191.333" y="664.333" type="line"/>
			<point x="187.333" y="665.333"/>
			<point x="178" y="666.333"/>
			<point x="173" y="666.333" type="curve" smooth="yes"/>
			<point x="137.667" y="666.333"/>
			<point x="110.667" y="645.333"/>
			<point x="102.667" y="637.333" type="curve"/>
			<point x="100.667" y="626.333" type="line"/>
			<point x="219.333" y="520" type="line" smooth="yes"/>
			<point x="236" y="505"/>
			<point x="245" y="500"/>
			<point x="252.333" y="500" type="curve" smooth="yes"/>
			<point x="261" y="500"/>
			<point x="268.667" y="506.667"/>
			<point x="268.667" y="514.333" type="curve" smooth="yes"/>
			<point x="268.667" y="522"/>
			<point x="265" y="531.667"/>
			<point x="260.667" y="539.667" type="curve" smooth="yes"/>
		</contour>
	</outline>
	<anchor name="_t.uni0302" x="175" y="500"/>
</glyph>
<glyph name="c" format="2">
	<unicode hex="0063"/>
	<advance width="447"/>
	<outline>
		<contour>
			<point x="414" y="88.3333" type="curve"/>
			<point x="412.667" y="99.3333"/>
			<point x="408.667" y="113.333"/>
			<point x="398.333" y="113.667" type="curve"/>
			<point x="360.333" y="74.3333"/>
			<point x="323.333" y="54.3333"/>
			<point x="289.667" y="54.3333" type="curve" smooth="yes"/>
			<point x="215.333" y="54.3333"/>
			<point x="155.667" y="115"/>
			<point x="155.667" y="234" type="curve" smooth="yes"/>
			<point x="155.667" y="344.667"/>
			<point x="188.333" y="403.333"/>
			<point x="245.667" y="403.333" type="curve" smooth="yes"/>
			<point x="290" y="403.333"/>
			<point x="302.667" y="365.667"/>
			<point x="306" y="332.667" type="curve" smooth="yes"/>
			<point x="309" y="305.667"/>
			<point x="331.667" y="289.333"/>
			<point x="360" y="289.333" type="curve" smooth="yes"/>
			<point x="388.333" y="289.333"/>
			<point x="413" y="310.333"/>
			<point x="413" y="341.333" type="curve" smooth="yes"/>
			<point x="413" y="389.667"/>
			<point x="358" y="442.333"/>
			<point x="253.333" y="442.333" type="curve" smooth="yes"/>
			<point x="141.667" y="442.333"/>
			<point x="37" y="349.333"/>
			<point x="37" y="203.333" type="curve" smooth="yes"/>
			<point x="37" y="69"/>
			<point x="118.333" y="-10"/>
			<point x="248.333" y="-10" type="curve" smooth="yes"/>
			<point x="308.333" y="-10"/>
			<point x="372" y="24.3333"/>
		</contour>
	</outline>
	<anchor name="t.uni0302" x="242" y="500"/>
	<anchor name="m.uni0316_2" x="236" y="-110"/>
	<anchor name="b.uni0321_4" x="361" y="42"/>
</glyph>
<glyph name="d" format="2">
	<unicode hex="0064"/>
	<advance width="543"/>
	<outline>
		<contour>
			<point x="359.333" y="1.33333" type="curve"/>
			<point x="363.333" y="-7.66667"/>
			<point x="369.667" y="-10.6667"/>
			<point x="381" y="-10" type="curve"/>
			<point x="413" y="2.66667"/>
			<point x="464.667" y="17"/>
			<point name=".hr01" x="531" y="25.3333" type="curve"/>
			<point x="534.333" y="31.3333"/>
			<point name=".hr02" x="533" y="49.6667"/>
			<point name=".hr03" x="529.667" y="55.6667" type="curve"/>
			<point x="472.333" y="60.6667"/>
			<point x="462" y="77.6667"/>
			<point x="462" y="132" type="curve" smooth="yes"/>
			<point x="462" y="583" type="line" smooth="yes"/>
			<point x="462" y="648"/>
			<point x="465.333" y="684.667"/>
			<point x="465.333" y="686" type="curve" smooth="yes"/>
			<point x="465.333" y="694.333"/>
			<point x="459.333" y="698"/>
			<point x="450.333" y="698" type="curve"/>
			<point x="417.333" y="686.667"/>
			<point x="339" y="674.667"/>
			<point x="278.333" y="671.667" type="curve"/>
			<point x="275.667" y="661"/>
			<point x="277" y="647"/>
			<point x="282.333" y="639" type="curve"/>
			<point x="340.333" y="635.667"/>
			<point x="349" y="631"/>
			<point x="349" y="573.667" type="curve" smooth="yes"/>
			<point x="349" y="115.667" type="line" smooth="yes"/>
			<point x="349" y="75.6667"/>
			<point x="352.333" y="40.6667"/>
		</contour>
		<contour>
			<point x="362.333" y="423.333" type="line"/>
			<point x="337.667" y="434.333"/>
			<point x="305" y="442.333"/>
			<point x="272" y="442.333" type="curve" smooth="yes"/>
			<point x="141.667" y="442.333"/>
			<point x="37.6667" y="331.333"/>
			<point x="37.6667" y="199.667" type="curve" smooth="yes"/>
			<point x="37.6667" y="83.3333"/>
			<point x="105" y="-10"/>
			<point name=".hr04" x="219" y="-10" type="curve" smooth="yes"/>
			<point x="258.667" y="-10"/>
			<point x="316.667" y="23.6667"/>
			<point x="359" y="62.6667" type="curve"/>
			<point x="357.333" y="105" type="line"/>
			<point x="328.667" y="76.3333"/>
			<point x="290" y="49.6667"/>
			<point x="255.667" y="49.6667" type="curve" smooth="yes"/>
			<point x="204.333" y="49.6667"/>
			<point x="159.667" y="106.667"/>
			<point x="159.667" y="226.333" type="curve" smooth="yes"/>
			<point x="159.667" y="296.667"/>
			<point x="173" y="402.667"/>
			<point x="266.333" y="402.667" type="curve" smooth="yes"/>
			<point x="302" y="402.667"/>
			<point x="328.333" y="395.667"/>
			<point x="362.333" y="340.667" type="curve"/>
		</contour>
	</outline>
	<anchor name="m.uni0302" x="218" y="645"/>
	<anchor name="t.uni0315_1" x="500" y="466"/>
	<anchor name="m.uni0316_2" x="221" y="-110"/>
	<anchor name="m.uni031A_3" x="490" y="580"/>
	<anchor name="b.uni0321_4" x="312" y="20"/>
</glyph>
<glyph name="g" format="2">
	<unicode hex="0067"/>
	<advance width="514"/>
	<outline>
		<contour>
			<point x="50.6667" y="293" type="curve" smooth="yes"/>
			<point x="50.6667" y="193.667"/>
			<point x="141" y="140"/>
			<point x="230.667" y="140" type="curve" smooth="yes"/>
			<point x="320" y="140"/>
			<point x="407.667" y="191"/>
			<point x="407.667" y="290.333" type="curve" smooth="yes"/>
			<point x="407.667" y="343.333"/>
			<point x="384.333" y="377"/>
			<point x="352" y="405.667" type="curve"/>
			<point x="359.667" y="415.667"/>
			<point x="388.333" y="432.333"/>
			<point x="399.333" y="432.333" type="curve" smooth="yes"/>
			<point x="407.667" y="432.333"/>
			<point x="414.667" y="427.333"/>
			<point x="418.667" y="420.333" type="curve"/>
			<point x="422.667" y="409"/>
			<point x="439" y="391.667"/>
			<point x="459.333" y="391.667" type="curve" smooth="yes"/>
			<point x="484.333" y="391.667"/>
			<point x="501" y="405.667"/>
			<point x="501" y="437" type="curve" smooth="yes"/>
			<point x="501" y="456.667"/>
			<point x="477.333" y="481.333"/>
			<point x="443" y="481.333" type="curve" smooth="yes"/>
			<point x="405" y="481.333"/>
			<point x="350.333" y="453.667"/>
			<point x="322.333" y="425" type="curve"/>
			<point x="306.333" y="434.333"/>
			<point name=".hr01" x="281.333" y="442.333"/>
			<point x="231.667" y="442.333" type="curve" smooth="yes"/>
			<point x="144" y="442.333"/>
			<point x="50.6667" y="389.667"/>
		</contour>
		<contour>
			<point x="18" y="-112" type="curve" smooth="yes"/>
			<point name=".hr02" x="18" y="-220.333"/>
			<point x="107.333" y="-238"/>
			<point x="199" y="-238" type="curve" smooth="yes"/>
			<point x="336.667" y="-238"/>
			<point x="491.333" y="-167.667"/>
			<point x="491.333" y="-58.3333" type="curve" smooth="yes"/>
			<point x="491.333" y="55.3333"/>
			<point x="337.333" y="64.3333"/>
			<point x="255.333" y="64.3333" type="curve" smooth="yes"/>
			<point x="231" y="64.3333"/>
			<point x="206.333" y="61.3333"/>
			<point x="187" y="60" type="curve" smooth="yes"/>
			<point x="157.333" y="58"/>
			<point name=".hr03" x="129" y="66"/>
			<point x="129" y="107" type="curve" smooth="yes"/>
			<point x="129" y="126"/>
			<point x="140.333" y="148"/>
			<point x="157" y="165.667" type="curve"/>
			<point x="130" y="178.333" type="line"/>
			<point x="96" y="152"/>
			<point x="45.3333" y="94.3333"/>
			<point x="45.3333" y="70" type="curve" smooth="yes"/>
			<point x="45.3333" y="5.66667"/>
			<point x="118" y="-21.6667"/>
			<point x="174" y="-21.6667" type="curve" smooth="yes"/>
			<point x="235.667" y="-21.6667"/>
			<point x="343.667" y="-22.6667"/>
			<point x="348.333" y="-58" type="curve"/>
			<point x="365" y="-82"/>
			<point x="395" y="-110.667"/>
			<point x="373" y="-147.667" type="curve" smooth="yes"/>
			<point x="352.333" y="-183.667"/>
			<point x="283" y="-197.667"/>
			<point x="227.667" y="-197.667" type="curve" smooth="yes"/>
			<point x="171.667" y="-197.667"/>
			<point x="113.667" y="-155.333"/>
			<point name=".hr04" x="113.667" y="-98.6667" type="curve" smooth="yes"/>
			<point x="113.667" y="-59"/>
			<point x="114.667" y="-33.3333"/>
			<point x="141.667" y="-3.33333" type="curve"/>
			<point x="118.333" y="2.66667" type="line"/>
			<point x="65.3333" y="-21.3333"/>
			<point x="18" y="-83.6667"/>
		</contour>
		<contour>
			<point x="158" y="304" type="curve" smooth="yes"/>
			<point x="158" y="376.667"/>
			<point name=".hr05" x="178.333" y="406.667"/>
			<point x="222.667" y="406.667" type="curve" smooth="yes"/>
			<point x="275" y="406.667"/>
			<point x="299.667" y="365.333"/>
			<point x="299.667" y="285" type="curve" smooth="yes"/>
			<point x="299.667" y="190"/>
			<point x="265.333" y="175.667"/>
			<point x="235.667" y="175.667" type="curve" smooth="yes"/>
			<point x="166.333" y="175.667"/>
			<point x="158" y="248.667"/>
		</contour>
	</outline>
	<anchor name="m.uni0302" x="231" y="645"/>
	<anchor name="m.uni0316_2" x="229" y="-319"/>
	<anchor name="m.uni031A_3" x="492" y="580"/>
</glyph>
<glyph name="h" format="2">
	<unicode hex="0068"/>
	<advance width="592"/>
	<outline>
		<contour>
			<point x="21.3333" y="-2" type="curve"/>
			<point x="60.3333" y="-1"/>
			<point x="102.667" y="0"/>
			<point x="152.667" y="0" type="curve" smooth="yes"/>
			<point x="197.333" y="0"/>
			<point x="229" y="-1"/>
			<point x="267" y="-2" type="curve"/>
			<point x="273" y="4"/>
			<point x="273" y="25.6667"/>
			<point x="267" y="31.6667" type="curve"/>
			<point x="222" y="35"/>
			<point x="209" y="42.3333"/>
			<point x="209" y="125.333" type="curve" smooth="yes"/>
			<point x="209" y="583" type="line" smooth="yes"/>
			<point x="209" y="648"/>
			<point x="212.333" y="684.667"/>
			<point x="212.333" y="686" type="curve" smooth="yes"/>
			<point x="212.333" y="694.333"/>
			<point x="206.333" y="698"/>
			<point x="197.333" y="698" type="curve"/>
			<point x="164.333" y="686.667"/>
			<point x="86" y="674.667"/>
			<point x="25.3333" y="671.667" type="curve"/>
			<point x="22.6667" y="661"/>
			<point x="24" y="648.333"/>
			<point x="29.3333" y="640.333" type="curve"/>
			<point x="89" y="635.667"/>
			<point x="96" y="630.333"/>
			<point x="96" y="563" type="curve" smooth="yes"/>
			<point x="96" y="125.333" type="line" smooth="yes"/>
			<point x="96" y="42.3333"/>
			<point x="81.3333" y="35"/>
			<point x="21.3333" y="31.6667" type="curve"/>
			<point x="15.3333" y="25.6667"/>
			<point x="15.3333" y="4"/>
		</contour>
		<contour>
			<point x="332.333" y="-2" type="curve"/>
			<point x="369.667" y="-1"/>
			<point x="402.333" y="0"/>
			<point x="447.667" y="0" type="curve" smooth="yes"/>
			<point x="497.667" y="0"/>
			<point x="538" y="-1"/>
			<point x="577.667" y="-2" type="curve"/>
			<point x="583.333" y="4"/>
			<point x="583.333" y="25.6667"/>
			<point x="577.667" y="31.6667" type="curve"/>
			<point x="518.333" y="35.3333"/>
			<point x="504" y="42.6667"/>
			<point x="504" y="126" type="curve" smooth="yes"/>
			<point x="504" y="279.667" type="line" smooth="yes"/>
			<point x="504" y="380.667"/>
			<point x="470.667" y="442.333"/>
			<point x="378.667" y="442.333" type="curve" smooth="yes"/>
			<point x="323.333" y="442.333"/>
			<point x="250.333" y="398"/>
			<point x="192.333" y="350.667" type="curve"/>
			<point x="193" y="312.667" type="line"/>
			<point x="239.667" y="350.333"/>
			<point x="284.333" y="375.667"/>
			<point x="319.333" y="375.667" type="curve" smooth="yes"/>
			<point x="365.333" y="375.667"/>
			<point x="391" y="340.333"/>
			<point x="391" y="288" type="curve" smooth="yes"/>
			<point x="391" y="126" type="line" smooth="yes"/>
			<point x="391" y="42.6667"/>
			<point x="377" y="35.3333"/>
			<point x="332.333" y="31.6667" type="curve"/>
			<point x="326.667" y="25.6667"/>
			<point x="326.667" y="4"/>
		</contour>
	</outline>
	<anchor name="m.uni0302" x="299" y="645"/>
	<anchor name="m.uni0316_2" x="300.667" y="-110"/>
	<anchor name="m.uni031A_3" x="429" y="580"/>
	<anchor name="b.uni0321_4" x="423" y="10"/>
</glyph>
<glyph name="j" format="2">
	<unicode hex="006A"/>
	<advance width="299"/>
	<outline>
		<component base="uni0237"/>
		<contour>
			<point x="96.3333" y="597" type="curve" smooth="yes"/>
			<point x="96.3333" y="566.333"/>
			<point x="120.333" y="535.667"/>
			<point x="155" y="535.667" type="curve" smooth="yes"/>
			<point x="194.333" y="535.667"/>
			<point x="219.667" y="568.667"/>
			<point x="219.667" y="593" type="curve" smooth="yes"/>
			<point x="219.667" y="621"/>
			<point x="197.333" y="654.333"/>
			<point x="160.333" y="654.333" type="curve" smooth="yes"/>
			<point x="121" y="654.333"/>
			<point x="96.3333" y="625"/>
		</contour>
	</outline>
	<anchor name="m.uni0316_2" x="109" y="-319"/>
</glyph>
<glyph name="k" format="2">
	<unicode hex="006B"/>
	<advance width="579"/>
	<outline>
		<contour>
			<point x="21.6667" y="-2" type="curve"/>
			<point x="60.6667" y="-1"/>
			<point x="102" y="0"/>
			<point x="152" y="0" type="curve" smooth="yes"/>
			<point x="193" y="0"/>
			<point x="233.333" y="-1"/>
			<point x="257" y="-2" type="curve"/>
			<point x="263" y="4"/>
			<point x="263" y="25.6667"/>
			<point x="257" y="31.6667" type="curve"/>
			<point x="223.333" y="35.6667"/>
			<point x="208.333" y="42.3333"/>
			<point x="208.333" y="125.333" type="curve" smooth="yes"/>
			<point x="208.333" y="583" type="line" smooth="yes"/>
			<point x="208.333" y="648"/>
			<point x="211.667" y="682"/>
			<point x="211.667" y="686" type="curve" smooth="yes"/>
			<point x="211.667" y="694.333"/>
			<point x="205.667" y="698"/>
			<point x="196.667" y="698" type="curve"/>
			<point x="163.667" y="686.667"/>
			<point x="85.3333" y="674.667"/>
			<point x="24.6667" y="671.667" type="curve"/>
			<point x="22" y="661"/>
			<point x="23.3333" y="648.333"/>
			<point x="28.6667" y="640.333" type="curve"/>
			<point x="86.6667" y="637"/>
			<point x="95.3333" y="632.333"/>
			<point x="95.3333" y="575" type="curve" smooth="yes"/>
			<point x="95.3333" y="125.333" type="line" smooth="yes"/>
			<point x="95.3333" y="42.3333"/>
			<point x="81" y="35"/>
			<point x="21.6667" y="31.6667" type="curve"/>
			<point x="15.6667" y="25.6667"/>
			<point x="15.6667" y="4"/>
		</contour>
		<contour>
			<point x="190.333" y="209.333" type="line"/>
			<point x="243.333" y="209.333"/>
			<point x="268" y="200"/>
			<point x="283.333" y="177" type="curve" smooth="yes"/>
			<point x="349" y="76.3333" type="line" smooth="yes"/>
			<point x="366" y="51.3333"/>
			<point x="373.333" y="29.6667"/>
			<point x="373.667" y="2.33333" type="curve"/>
			<point x="373.667" y="0"/>
			<point x="375.333" y="-2"/>
			<point x="378.333" y="-2" type="curve"/>
			<point x="388.333" y="-1.66667"/>
			<point x="420.333" y="0"/>
			<point x="450.333" y="0" type="curve" smooth="yes"/>
			<point x="488" y="0"/>
			<point x="535.667" y="-1"/>
			<point x="567" y="-2" type="curve"/>
			<point x="573" y="4"/>
			<point x="573" y="25.6667"/>
			<point x="567" y="31.6667" type="curve"/>
			<point x="526.667" y="36"/>
			<point x="504.667" y="37.6667"/>
			<point x="477.667" y="76.3333" type="curve" smooth="yes"/>
			<point x="356.333" y="245.667" type="line"/>
			<point x="353" y="250"/>
			<point x="350.667" y="254.667"/>
			<point x="350.667" y="259" type="curve" smooth="yes"/>
			<point x="350.667" y="261.667"/>
			<point x="351.333" y="265"/>
			<point x="353.333" y="267" type="curve"/>
			<point x="416" y="334" type="line" smooth="yes"/>
			<point x="461.333" y="383.333"/>
			<point x="487" y="396"/>
			<point x="541" y="400.667" type="curve"/>
			<point x="547" y="406.667"/>
			<point x="547" y="428.333"/>
			<point x="541" y="434.333" type="curve"/>
			<point x="518.667" y="433.333"/>
			<point x="467.333" y="432.333"/>
			<point x="438" y="432.333" type="curve" smooth="yes"/>
			<point x="400.667" y="432.333"/>
			<point x="357" y="433.333"/>
			<point x="324.667" y="434.333" type="curve"/>
			<point x="318.667" y="428.333"/>
			<point x="318.667" y="406.667"/>
			<point x="324.667" y="400.667" type="curve"/>
			<point x="358" y="398"/>
			<point x="373.333" y="391.667"/>
			<point x="373.333" y="378.333" type="curve" smooth="yes"/>
			<point x="373.333" y="352.667"/>
			<point x="312.333" y="287.667"/>
			<point x="288" y="270.667" type="curve" smooth="yes"/>
			<point x="266.667" y="256"/>
			<point x="223.667" y="244"/>
			<point x="190.333" y="244" type="curve"/>
		</contour>
	</outline>
	<anchor name="m.uni0302" x="306" y="784"/>
	<anchor name="m.uni0316_2" x="290" y="-214"/>
	<anchor name="m.uni031A_3" x="536" y="696"/>
</glyph>
<glyph name="o" format="2">
	<unicode hex="006F"/>
	<advance width="535"/>
	<outline>
		<contour>
			<point x="38.3333" y="206.333" type="curve" smooth="yes"/>
			<point x="38.3333" y="85"/>
			<point x="130.333" y="-10"/>
			<point x="267" y="-10" type="curve" smooth="yes"/>
			<point x="404.333" y="-10"/>
			<point x="497" y="75.6667"/>
			<point x="497" y="215.333" type="curve" smooth="yes"/>
			<point x="497" y="337.333"/>
			<point x="418.667" y="442.333"/>
			<point x="268.333" y="442.333" type="curve" smooth="yes"/>
			<point x="126.333" y="442.333"/>
			<point x="38.3333" y="346"/>
		</contour>
		<contour>
			<point x="252.667" y="402.667" type="curve" smooth="yes"/>
			<point x="326.667" y="402.667"/>
			<point x="375" y="322.667"/>
			<point x="375" y="183.333" type="curve" smooth="yes"/>
			<point x="375" y="61.3333"/>
			<point x="322" y="29.6667"/>
			<point x="282.333" y="29.6667" type="curve" smooth="yes"/>
			<point x="193" y="29.6667"/>
			<point x="160.333" y="153.667"/>
			<point x="160.333" y="228.667" type="curve" smooth="yes"/>
			<point x="160.333" y="319"/>
			<point x="178" y="402.667"/>
		</contour>
	</outline>
	<anchor name="t.uni0302" x="252.667" y="500"/>
	<anchor name="t.uni0315_1" x="420" y="396"/>
	<anchor name="m.uni0316_2" x="243" y="-110"/>
	<anchor name="b.uni0321_4" x="372" y="44"/>
</glyph>
<glyph name="r" format="2">
	<unicode hex="0072"/>
	<advance width="409"/>
	<outline>
		<contour>
			<point x="98.6667" y="120" type="line"/>
			<point x="98.6667" y="38.3333"/>
			<point x="87.3333" y="36.3333"/>
			<point x="26" y="31.6667" type="curve"/>
			<point x="20" y="25.6667"/>
			<point x="20" y="4"/>
			<point x="26" y="-2" type="curve"/>
			<point x="65.6667" y="-1"/>
			<point x="106.667" y="0"/>
			<point x="156" y="0" type="curve" smooth="yes"/>
			<point x="204.667" y="0"/>
			<point x="246.667" y="-1"/>
			<point x="287" y="-2" type="curve"/>
			<point x="293" y="4"/>
			<point x="293" y="25.6667"/>
			<point x="287" y="31.6667" type="curve"/>
			<point x="223" y="36"/>
			<point x="211.667" y="38.3333"/>
			<point x="211.667" y="120" type="curve"/>
		</contour>
		<contour>
			<point name=".hr01" x="211.667" y="120" type="line"/>
			<point x="211.667" y="265.667" type="line" smooth="yes"/>
			<point x="211.667" y="301.667"/>
			<point x="238.333" y="359.667"/>
			<point x="272.333" y="359.667" type="curve" smooth="yes"/>
			<point x="281.333" y="359.667"/>
			<point x="291.667" y="353"/>
			<point x="299.667" y="342.667" type="curve" smooth="yes"/>
			<point x="306.667" y="334"/>
			<point name=".hr02" x="322" y="324.333"/>
			<point x="343" y="324.333" type="curve" smooth="yes"/>
			<point x="370.333" y="324.333"/>
			<point x="396.667" y="352.667"/>
			<point x="396.667" y="389" type="curve" smooth="yes"/>
			<point x="396.667" y="412.667"/>
			<point x="370.667" y="442.333"/>
			<point x="332.667" y="442.333" type="curve" smooth="yes"/>
			<point x="293.667" y="442.333"/>
			<point x="254.667" y="407.667"/>
			<point x="216.333" y="350.667" type="curve"/>
			<point x="213.676" y="347"/>
			<point x="210.929" y="349.667"/>
			<point x="210.667" y="351.333" type="curve"/>
			<point x="208.667" y="384.667"/>
			<point x="205" y="426"/>
			<point x="203.333" y="429.333" type="curve"/>
			<point x="202" y="437"/>
			<point x="196" y="443.333"/>
			<point x="184" y="443.333" type="curve"/>
			<point x="142.667" y="431.667"/>
			<point x="98.6667" y="419.333"/>
			<point x="31.6667" y="411.667" type="curve"/>
			<point x="29.6667" y="405.667"/>
			<point x="31.6667" y="387.667"/>
			<point x="33.6667" y="381.667" type="curve"/>
			<point x="88.3333" y="376.667"/>
			<point x="98.6667" y="369"/>
			<point x="98.6667" y="311.667" type="curve" smooth="yes"/>
			<point x="98.6667" y="120" type="line"/>
		</contour>
	</outline>
	<anchor name="m.uni0302" x="191" y="646"/>
	<anchor name="m.uni0316_2" x="135" y="-110"/>
	<anchor name="m.uni031A_3" x="349" y="580"/>
</glyph>
<glyph name="s" format="2">
	<unicode hex="0073"/>
	<advance width="415"/>
	<outline>
		<contour>
			<point x="48" y="143.333" type="curve"/>
			<point x="52" y="95"/>
			<point x="53" y="38.6667"/>
			<point x="58.3333" y="-1" type="curve"/>
			<point x="65" y="1"/>
			<point x="73" y="2"/>
			<point x="80.6667" y="2" type="curve" smooth="yes"/>
			<point x="92.3333" y="2"/>
			<point x="106.333" y="0.666667"/>
			<point x="123.667" y="-2.66667" type="curve" smooth="yes"/>
			<point x="145" y="-6.66667"/>
			<point x="170" y="-10"/>
			<point x="196.333" y="-10" type="curve" smooth="yes"/>
			<point x="269.667" y="-10"/>
			<point x="368" y="27.6667"/>
			<point x="368" y="123" type="curve" smooth="yes"/>
			<point x="368" y="187.333"/>
			<point x="320.333" y="226.667"/>
			<point x="264.333" y="254.333" type="curve" smooth="yes"/>
			<point x="216.333" y="278"/>
			<point name=".hr01" x="161.667" y="292.333"/>
			<point x="161.667" y="348.333" type="curve" smooth="yes"/>
			<point x="161.667" y="382.333"/>
			<point x="186.333" y="402.667"/>
			<point x="216.667" y="402.667" type="curve" smooth="yes"/>
			<point x="247.667" y="402.667"/>
			<point x="289.667" y="378.667"/>
			<point x="310.667" y="309.667" type="curve"/>
			<point x="321.333" y="306.333"/>
			<point x="333.333" y="307.333"/>
			<point x="340.667" y="313.333" type="curve"/>
			<point x="346.333" y="348.667"/>
			<point x="349" y="385"/>
			<point x="351.333" y="417" type="curve"/>
			<point x="313.667" y="423.333"/>
			<point x="277" y="442.333"/>
			<point x="215.667" y="442.333" type="curve" smooth="yes"/>
			<point x="124.333" y="442.333"/>
			<point x="62.6667" y="393"/>
			<point x="62.6667" y="317.667" type="curve" smooth="yes"/>
			<point x="62.6667" y="255.333"/>
			<point x="106.333" y="219"/>
			<point x="164.333" y="187.333" type="curve" smooth="yes"/>
			<point x="216.333" y="158.333"/>
			<point x="265.333" y="139.333"/>
			<point x="265.333" y="88" type="curve" smooth="yes"/>
			<point x="265.333" y="46"/>
			<point x="228" y="27.6667"/>
			<point x="195.667" y="27.6667" type="curve" smooth="yes"/>
			<point x="141" y="27.6667"/>
			<point x="104.333" y="76"/>
			<point name=".hr02" x="85" y="145" type="curve"/>
			<point x="72.3333" y="149"/>
			<point x="60.6667" y="148"/>
		</contour>
	</outline>
	<anchor name="t.uni0302" x="202" y="500"/>
	<anchor name="m.uni0316_2" x="196" y="-110"/>
	<anchor name="m.uni031A_3" x="366" y="580"/>
	<anchor name="b.uni0321_4" x="290" y="13"/>
</glyph>
<glyph name="t" format="2">
	<unicode hex="0074"/>
	<advance width="344"/>
	<outline>
		<contour>
			<point x="63.6667" y="432.333" type="line" smooth="yes"/>
			<point x="49.6667" y="432.333"/>
			<point x="34.3333" y="427.333"/>
			<point x="22.3333" y="417.333" type="curve"/>
			<point x="22.3333" y="392" type="line" smooth="yes"/>
			<point x="22.3333" y="387"/>
			<point x="23.3333" y="386"/>
			<point x="27.3333" y="386" type="curve" smooth="yes"/>
			<point x="90.3333" y="386" type="line"/>
			<point x="90.3333" y="99.6667" type="line" smooth="yes"/>
			<point x="90.3333" y="27.3333"/>
			<point x="124.667" y="-10"/>
			<point x="189.333" y="-10" type="curve" smooth="yes"/>
			<point x="241.333" y="-10"/>
			<point x="298.667" y="16"/>
			<point x="325" y="49.3333" type="curve"/>
			<point x="324.333" y="60.6667"/>
			<point x="318.333" y="66.6667"/>
			<point x="307" y="73.6667" type="curve"/>
			<point x="289.667" y="60.3333"/>
			<point x="263" y="55"/>
			<point x="241.667" y="55" type="curve" smooth="yes"/>
			<point x="218" y="55"/>
			<point x="200.667" y="76.3333"/>
			<point x="200.667" y="130.333" type="curve" smooth="yes"/>
			<point x="200.667" y="386" type="line"/>
			<point x="302.667" y="386" type="line" smooth="yes"/>
			<point x="312.667" y="386"/>
			<point x="326.667" y="390"/>
			<point x="326.667" y="399" type="curve" smooth="yes"/>
			<point x="326.667" y="426.333" type="line" smooth="yes"/>
			<point x="326.667" y="430.333"/>
			<point x="323.667" y="432.333"/>
			<point x="318.667" y="432.333" type="curve" smooth="yes"/>
			<point x="200.667" y="432.333" type="line"/>
			<point x="201.667" y="468" type="line" smooth="yes"/>
			<point x="203.667" y="534.333"/>
			<point x="206.667" y="565.667"/>
			<point x="208.667" y="578.333" type="curve"/>
			<point x="208.667" y="584.333"/>
			<point x="205.667" y="587.333"/>
			<point x="200.667" y="587.333" type="curve" smooth="yes"/>
			<point x="191" y="587.333"/>
			<point x="104.333" y="556"/>
			<point x="99.6667" y="548.333" type="curve"/>
			<point x="94" y="538"/>
			<point x="90.3333" y="505"/>
			<point x="90.3333" y="432.333" type="curve"/>
		</contour>
	</outline>
	<anchor name="m.uni0316_2" x="163" y="-110"/>
	<anchor name="m.uni031A_3" x="279" y="580"/>
	<anchor name="b.uni0321_4" x="237" y="15"/>
	<anchor name="t.uni0302" x="147" y="650"/>
</glyph>
<glyph name="z" format="2">
	<unicode hex="007A"/>
	<advance width="443"/>
	<outline>
		<contour>
			<point x="64.3333" y="443.667" type="curve"/>
			<point x="62.3333" y="443.667"/>
			<point x="58.3333" y="439.667"/>
			<point x="58.3333" y="437.667" type="curve"/>
			<point x="57.3333" y="392.667"/>
			<point x="51.6667" y="351"/>
			<point x="43.3333" y="302" type="curve"/>
			<point x="52.3333" y="298"/>
			<point x="71" y="296"/>
			<point x="83" y="299" type="curve"/>
			<point x="103" y="372"/>
			<point x="134" y="392.333"/>
			<point x="164" y="393.333" type="curve" smooth="yes"/>
			<point x="274.333" y="396.667" type="line"/>
			<point x="276.333" y="394.667" type="line"/>
			<point x="32.6667" y="32" type="line" smooth="yes"/>
			<point x="24.6667" y="20"/>
			<point x="23.6667" y="17"/>
			<point x="23.6667" y="12" type="curve" smooth="yes"/>
			<point x="23.6667" y="5"/>
			<point x="31.6667" y="0"/>
			<point x="46.6667" y="0" type="curve"/>
			<point x="385.333" y="-3" type="line"/>
			<point x="397.333" y="31"/>
			<point x="410.333" y="83"/>
			<point x="417.333" y="133" type="curve"/>
			<point x="411.333" y="137"/>
			<point x="392.667" y="139"/>
			<point x="380.667" y="139" type="curve"/>
			<point x="366.667" y="110" type="line" smooth="yes"/>
			<point x="341.667" y="57"/>
			<point x="320.667" y="37.6667"/>
			<point x="268.667" y="37.3333" type="curve" smooth="yes"/>
			<point x="160.333" y="37" type="line"/>
			<point x="159.667" y="39.6667" type="line"/>
			<point x="403.667" y="404.667" type="line" smooth="yes"/>
			<point x="411" y="415.667"/>
			<point x="413.667" y="425.333"/>
			<point x="413.667" y="428.667" type="curve" smooth="yes"/>
			<point x="413.667" y="432.667"/>
			<point x="408.667" y="435.667"/>
			<point x="401.667" y="435.667" type="curve" smooth="yes"/>
			<point x="396.667" y="435.667"/>
			<point x="342" y="433.667"/>
			<point x="313" y="433.667" type="curve" smooth="yes"/>
			<point x="123.333" y="433.667" type="line" smooth="yes"/>
			<point x="91.3333" y="433.667"/>
			<point x="81.3333" y="440"/>
		</contour>
	</outline>
	<anchor name="t.uni0302" x="220" y="500"/>
	<anchor name="m.uni0316_2" x="207" y="-110"/>
	<anchor name="m.uni031A_3" x="399" y="580"/>
</glyph>
<glyph name="braceleft" format="2">
	<unicode hex="007B"/>
	<advance width="297"/>
	<outline>
		<contour>
			<point x="198" y="552" type="line" smooth="yes"/>
			<point x="193" y="655"/>
			<point x="240" y="672"/>
			<point x="278" y="683" type="curve"/>
			<point x="284" y="689"/>
			<point x="284" y="701"/>
			<point x="278" y="707" type="curve"/>
			<point x="188" y="707"/>
			<point x="102" y="667"/>
			<point x="106" y="554" type="curve" smooth="yes"/>
			<point x="112" y="370" type="line"/>
			<point x="112" y="320"/>
			<point x="88" y="268.667"/>
			<point x="14" y="261.667" type="curve"/>
			<point x="5" y="252.667"/>
			<point x="6" y="240.333"/>
			<point x="14" y="232.333" type="curve"/>
			<point x="88" y="223.333"/>
			<point x="114" y="182"/>
			<point x="112" y="121" type="curve" smooth="yes"/>
			<point x="106" y="-49" type="line" smooth="yes"/>
			<point x="101" y="-179"/>
			<point x="177" y="-212"/>
			<point x="278" y="-212" type="curve"/>
			<point x="284" y="-206"/>
			<point x="284" y="-194"/>
			<point x="278" y="-188" type="curve"/>
			<point x="234" y="-188"/>
			<point x="194" y="-138"/>
			<point x="198" y="-54" type="curve" smooth="yes"/>
			<point x="206" y="95" type="line" smooth="yes"/>
			<point x="210" y="177"/>
			<point x="169" y="217"/>
			<point x="101" y="245" type="curve"/>
			<point x="101" y="249" type="line"/>
			<point x="168" y="268"/>
			<point x="210" y="297"/>
			<point x="206" y="386" type="curve" smooth="yes"/>
		</contour>
	</outline>
</glyph>
<glyph name="bar" format="2">
	<unicode hex="007C"/>
	<advance width="215"/>
	<outline>
		<contour>
			<point x="135" y="-232.667" type="line"/>
			<point x="135" y="698" type="line"/>
			<point x="80.3333" y="698" type="line"/>
			<point x="80.3333" y="-232.667" type="line"/>
		</contour>
	</outline>
</glyph>
<glyph name="asciitilde" format="2">
	<unicode hex="007E"/>
	<advance width="465"/>
	<outline>
		<contour>
			<point x="150.667" y="271.333" type="curve" smooth="yes"/>
			<point x="174.333" y="271.333"/>
			<point x="192.333" y="263.333"/>
			<point x="214.333" y="244.667" type="curve" smooth="yes"/>
			<point x="239.667" y="222.667"/>
			<point name=".hr01" x="276.667" y="209"/>
			<point x="301" y="209" type="curve" smooth="yes"/>
			<point x="335" y="209"/>
			<point x="409.333" y="224.667"/>
			<point x="439" y="319" type="curve"/>
			<point x="437.333" y="323.667"/>
			<point x="432.333" y="333.667"/>
			<point name=".hr02" x="426" y="340" type="curve"/>
			<point x="423.333" y="341"/>
			<point x="419.333" y="341.667"/>
			<point x="416" y="342.333" type="curve"/>
			<point x="392.667" y="287.667"/>
			<point name=".hr03" x="340.333" y="277.333"/>
			<point x="312.333" y="277.333" type="curve" smooth="yes"/>
			<point x="298.333" y="277.333"/>
			<point x="275.667" y="287.333"/>
			<point x="254.667" y="305.667" type="curve" smooth="yes"/>
			<point x="252.333" y="307.667"/>
			<point x="249.333" y="309.667"/>
			<point x="247" y="311.667" type="curve"/>
			<point x="224.667" y="329"/>
			<point x="192.333" y="338.667"/>
			<point name=".hr04" x="165.333" y="339.333" type="curve"/>
			<point x="163" y="339.667"/>
			<point x="161" y="339.667"/>
			<point x="158" y="339.667" type="curve"/>
			<point x="113.333" y="338.333"/>
			<point x="49.6667" y="309.667"/>
			<point x="25" y="236.667" type="curve"/>
			<point x="25" y="229.333"/>
			<point x="28" y="217"/>
			<point x="32.6667" y="207.667" type="curve"/>
			<point x="36.6667" y="206"/>
			<point x="41" y="205"/>
			<point x="45" y="204.333" type="curve"/>
			<point x="68.6667" y="257"/>
			<point x="120.333" y="271.333"/>
		</contour>
	</outline>
</glyph>
<glyph name="exclamdown" format="2">
	<unicode hex="00A1"/>
	<advance width="273"/>
	<outline>
		<contour>
			<point x="136.667" y="-225.667" type="curve" smooth="yes"/>
			<point x="165.333" y="-225.667"/>
			<point x="202.333" y="-206.667"/>
			<point x="202.333" y="-151.333" type="curve" smooth="yes"/>
			<point x="202.333" y="-102"/>
			<point x="193" y="-71"/>
			<point x="185.333" y="-18.3333" type="curve" smooth="yes"/>
			<point x="174" y="54.3333"/>
			<point x="162.667" y="164.333"/>
			<point x="161.333" y="203.333" type="curve" smooth="yes"/>
			<point x="160.333" y="228"/>
			<point x="157.333" y="243.667"/>
			<point x="136.667" y="243.667" type="curve" smooth="yes"/>
			<point x="118" y="243.667"/>
			<point x="113.667" y="225.333"/>
			<point x="113.333" y="209" type="curve" smooth="yes"/>
			<point x="112" y="171.667"/>
			<point x="103.333" y="85"/>
			<point x="88.3333" y="-16.3333" type="curve" smooth="yes"/>
			<point x="81" y="-67"/>
			<point x="71" y="-106.333"/>
			<point x="71" y="-151.333" type="curve" smooth="yes"/>
			<point x="71" y="-203.333"/>
			<point x="104" y="-225.667"/>
		</contour>
		<contour>
			<point x="167.667" y="379.333" type="curve" smooth="yes"/>
			<point x="167.667" y="395"/>
			<point x="154.333" y="407"/>
			<point x="137.333" y="407" type="curve" smooth="yes"/>
			<point x="120.333" y="407"/>
			<point x="105.667" y="393.667"/>
			<point x="105.667" y="378" type="curve" smooth="yes"/>
			<point x="105.667" y="361.667"/>
			<point x="119" y="349.667"/>
			<point x="136" y="349.667" type="curve" smooth="yes"/>
			<point x="153" y="349.667"/>
			<point x="167.667" y="363"/>
		</contour>
	</outline>
</glyph>
<glyph name="cent" format="2">
	<unicode hex="00A2"/>
	<advance width="515"/>
	<outline>
		<contour>
			<point x="252" y="593" type="line"/>
			<point x="252" y="513" type="line"/>
			<point x="154.667" y="501.667"/>
			<point x="69" y="419"/>
			<point x="63.6667" y="293.667" type="curve"/>
			<point x="63" y="286.667"/>
			<point x="63" y="280"/>
			<point x="63.3333" y="273" type="curve"/>
			<point x="64.3333" y="210.333"/>
			<point x="86.3333" y="156.333"/>
			<point x="123.667" y="120.667" type="curve" smooth="yes"/>
			<point x="156.667" y="89.3333"/>
			<point x="196.333" y="74"/>
			<point x="252" y="70.3333" type="curve"/>
			<point x="252" y="-12.3333" type="line"/>
			<point x="286.667" y="-12.3333" type="line"/>
			<point x="286.667" y="70.6667" type="line"/>
			<point x="341" y="76"/>
			<point x="396.667" y="108.667"/>
			<point x="434" y="166.667" type="curve"/>
			<point x="433" y="177.333"/>
			<point x="429" y="191.333"/>
			<point x="418.667" y="191.667" type="curve"/>
			<point x="384" y="156.667"/>
			<point x="351.667" y="136.667"/>
			<point x="322.333" y="134" type="curve"/>
			<point x="315.667" y="133"/>
			<point x="308" y="133.333"/>
			<point x="301.333" y="133.333" type="curve"/>
			<point x="296.333" y="134"/>
			<point x="291.667" y="135.333"/>
			<point x="286.667" y="136.333" type="curve"/>
			<point x="286.667" y="472.333" type="line"/>
			<point x="314" y="463.333"/>
			<point x="324" y="436.667"/>
			<point x="327" y="412" type="curve"/>
			<point x="328" y="407"/>
			<point x="328.667" y="401.333"/>
			<point x="331" y="397" type="curve"/>
			<point x="338" y="375.667"/>
			<point x="357" y="364"/>
			<point x="381" y="364" type="curve" smooth="yes"/>
			<point x="405" y="364"/>
			<point x="426.667" y="379"/>
			<point name=".hr01" x="431.333" y="403.333" type="curve"/>
			<point x="432.667" y="407.333"/>
			<point x="433.333" y="411.333"/>
			<point x="433.333" y="415.333" type="curve" smooth="yes"/>
			<point x="433.333" y="461.333"/>
			<point x="383" y="511"/>
			<point name=".hr02" x="286.667" y="514.667" type="curve"/>
			<point x="286.667" y="593" type="line"/>
		</contour>
		<contour>
			<point x="252" y="149.667" type="line"/>
			<point x="208.333" y="175.667"/>
			<point x="177" y="233"/>
			<point x="177" y="310" type="curve" smooth="yes"/>
			<point x="177" y="408"/>
			<point x="205.333" y="464.333"/>
			<point x="252" y="474.333" type="curve"/>
		</contour>
	</outline>
</glyph>
<glyph name="sterling" format="2">
	<unicode hex="00A3"/>
	<advance width="515"/>
	<outline>
		<contour>
			<point x="79.3333" y="294.667" type="curve" smooth="yes"/>
			<point x="133.667" y="294.667" type="line"/>
			<point x="133.667" y="283" type="line" smooth="yes"/>
			<point x="133.667" y="179"/>
			<point x="120" y="127"/>
			<point x="96.3333" y="98" type="curve"/>
			<point x="92.3333" y="95"/>
			<point x="87.6667" y="92"/>
			<point x="83.3333" y="89.3333" type="curve" smooth="yes"/>
			<point x="77.6667" y="85.6667"/>
			<point x="71.3333" y="81.6667"/>
			<point x="65.6667" y="77" type="curve"/>
			<point x="40" y="60.6667"/>
			<point x="17.3333" y="37.3333"/>
			<point x="17.3333" y="15.6667" type="curve" smooth="yes"/>
			<point x="17.3333" y="-1"/>
			<point x="31" y="-15.6667"/>
			<point x="52" y="-15.6667" type="curve" smooth="yes"/>
			<point x="79.3333" y="-15.6667"/>
			<point x="106" y="-2.33333"/>
			<point x="106" y="24.6667" type="curve" smooth="yes"/>
			<point x="106" y="37"/>
			<point x="109.667" y="51"/>
			<point x="144.667" y="51" type="curve" smooth="yes"/>
			<point x="168.667" y="51"/>
			<point x="190.333" y="42.6667"/>
			<point x="212" y="29" type="curve" smooth="yes"/>
			<point x="240.667" y="11"/>
			<point name=".hr01" x="274" y="-10.3333"/>
			<point x="321.667" y="-10.3333" type="curve" smooth="yes"/>
			<point x="393.333" y="-10.3333"/>
			<point x="441.333" y="43.6667"/>
			<point x="462" y="95.6667" type="curve"/>
			<point name=".hr02" x="458" y="102.667"/>
			<point x="449.333" y="107.667"/>
			<point x="440.667" y="109.333" type="curve"/>
			<point x="414.667" y="74"/>
			<point name=".hr03" x="369.667" y="57.3333"/>
			<point x="339.667" y="57.3333" type="curve" smooth="yes"/>
			<point x="318.667" y="57.3333"/>
			<point x="304.667" y="63.6667"/>
			<point x="289.667" y="72" type="curve" smooth="yes"/>
			<point x="264.667" y="85.3333"/>
			<point name=".hr04" x="236.667" y="103"/>
			<point x="163" y="103" type="curve"/>
			<point x="199.667" y="133"/>
			<point x="245.667" y="183"/>
			<point x="248.667" y="294.667" type="curve"/>
			<point x="329.667" y="294.667" type="line" smooth="yes"/>
			<point x="333" y="294.667"/>
			<point x="336.667" y="294.667"/>
			<point x="340.667" y="295.333" type="curve"/>
			<point x="356.333" y="296"/>
			<point x="373.333" y="301.667"/>
			<point x="373.333" y="312.333" type="curve" smooth="yes"/>
			<point x="373.333" y="329.667" type="line" smooth="yes"/>
			<point x="373.333" y="333"/>
			<point x="370.333" y="335.667"/>
			<point x="365.333" y="337" type="curve" smooth="yes"/>
			<point x="360.333" y="338.333"/>
			<point x="354.333" y="339"/>
			<point x="346.667" y="339" type="curve" smooth="yes"/>
			<point x="248.667" y="339" type="line"/>
			<point x="248.667" y="412.667" type="line" smooth="yes"/>
			<point x="248.667" y="500.333"/>
			<point x="269" y="570.333"/>
			<point x="315.667" y="570.333" type="curve" smooth="yes"/>
			<point x="337.667" y="570.333"/>
			<point x="342" y="549.333"/>
			<point x="357" y="534" type="curve" smooth="yes"/>
			<point x="370.333" y="521"/>
			<point x="384" y="510.333"/>
			<point x="401" y="510.333" type="curve" smooth="yes"/>
			<point x="431.667" y="510.333"/>
			<point x="452.667" y="531"/>
			<point x="452.667" y="562" type="curve" smooth="yes"/>
			<point x="452.667" y="605.333"/>
			<point x="386.333" y="613"/>
			<point x="363.333" y="613" type="curve" smooth="yes"/>
			<point x="309.667" y="613"/>
			<point x="257.333" y="594"/>
			<point x="218.333" y="557.333" type="curve" smooth="yes"/>
			<point x="166.667" y="507.333"/>
			<point x="133.667" y="454"/>
			<point x="133.667" y="361.667" type="curve" smooth="yes"/>
			<point x="133.667" y="339" type="line"/>
			<point x="101" y="339" type="line" smooth="yes"/>
			<point x="96" y="339"/>
			<point x="91.6667" y="339"/>
			<point x="87.3333" y="338.333" type="curve"/>
			<point x="66" y="337"/>
			<point x="58.6667" y="326.667"/>
			<point x="58.6667" y="318.667" type="curve" smooth="yes"/>
			<point x="58.6667" y="308" type="line" smooth="yes"/>
			<point x="58.6667" y="304.667"/>
			<point x="59.3333" y="301.667"/>
			<point x="62" y="299" type="curve"/>
			<point x="65.3333" y="296"/>
			<point x="70.3333" y="294.667"/>
		</contour>
	</outline>
</glyph>
<glyph name="currency" format="2">
	<unicode hex="00A4"/>
	<advance width="464"/>
	<outline>
		<contour>
			<point x="230.333" y="121" type="curve" smooth="yes"/>
			<point x="270.667" y="121"/>
			<point x="306.333" y="132"/>
			<point x="338" y="152" type="curve"/>
			<point x="388" y="95.6667" type="line"/>
			<point x="436.667" y="147.667" type="line"/>
			<point x="423.996" y="158.567"/>
			<point x="397.107" y="181.346"/>
			<point x="383.667" y="192.333" type="curve"/>
			<point x="409.333" y="226.667"/>
			<point x="424" y="262.667"/>
			<point x="424" y="300.667" type="curve" smooth="yes"/>
			<point x="424" y="340.667"/>
			<point x="410" y="376.667"/>
			<point x="382.667" y="410" type="curve"/>
			<point x="438.667" y="455.667" type="line"/>
			<point x="386.333" y="510.667" type="line"/>
			<point x="377.171" y="499.169"/>
			<point x="349.218" y="466.353"/>
			<point x="336" y="450.667" type="curve"/>
			<point x="305.333" y="470"/>
			<point x="272.667" y="481"/>
			<point x="231.667" y="481" type="curve" smooth="yes"/>
			<point x="192" y="481"/>
			<point x="157.667" y="471"/>
			<point x="126" y="452" type="curve"/>
			<point x="76.6667" y="506.667" type="line"/>
			<point x="27" y="454.667" type="line"/>
			<point x="39.7471" y="443.802"/>
			<point x="66.5654" y="422.881"/>
			<point x="80" y="412.667" type="curve"/>
			<point x="51.6667" y="378.667"/>
			<point x="36.6667" y="341.667"/>
			<point x="36.6667" y="300.667" type="curve" smooth="yes"/>
			<point x="36.6667" y="261"/>
			<point x="51.6667" y="224.667"/>
			<point x="79.3333" y="190.333" type="curve"/>
			<point x="25" y="146.667" type="line"/>
			<point x="80" y="93" type="line"/>
			<point x="89.1372" y="104.578"/>
			<point x="114.023" y="135.458"/>
			<point x="125.667" y="150.333" type="curve"/>
			<point x="156.333" y="131.333"/>
			<point x="191" y="121"/>
		</contour>
		<contour>
			<point x="112" y="301.667" type="curve" smooth="yes"/>
			<point x="112" y="372.667"/>
			<point x="164.333" y="429.667"/>
			<point x="232.333" y="429.667" type="curve" smooth="yes"/>
			<point x="292.667" y="429.667"/>
			<point x="348.667" y="375"/>
			<point x="348.667" y="300.667" type="curve" smooth="yes"/>
			<point x="348.667" y="230.333"/>
			<point x="299.667" y="172.667"/>
			<point x="230.333" y="172.667" type="curve" smooth="yes"/>
			<point x="161.333" y="172.667"/>
			<point x="112" y="229.333"/>
		</contour>
	</outline>
</glyph>
<glyph name="yen" format="2">
	<unicode hex="00A5"/>
	<advance width="515"/>
	<outline>
		<contour>
			<point x="459.667" y="173.667" type="line"/>
			<point x="456.333" y="175"/>
			<point x="451.667" y="175.667"/>
			<point x="447.667" y="175.667" type="curve" smooth="yes"/>
			<point x="324.667" y="175.667" type="line"/>
			<point x="324.667" y="245" type="line"/>
			<point x="432" y="245" type="line" smooth="yes"/>
			<point x="442.333" y="245"/>
			<point x="453" y="246.333"/>
			<point x="459.667" y="249.667" type="curve"/>
			<point x="459.667" y="274.667" type="line" smooth="yes"/>
			<point x="459.667" y="278.667"/>
			<point x="459.333" y="282"/>
			<point x="459" y="285.667" type="curve"/>
			<point x="455" y="286"/>
			<point x="451" y="286"/>
			<point x="447.667" y="286" type="curve" smooth="yes"/>
			<point x="328" y="286" type="line"/>
			<point x="332.333" y="310.667"/>
			<point x="338" y="326"/>
			<point x="351" y="352.667" type="curve" smooth="yes"/>
			<point x="414" y="485" type="line" smooth="yes"/>
			<point x="418" y="493"/>
			<point x="422.333" y="501.333"/>
			<point x="426" y="509.667" type="curve" smooth="yes"/>
			<point x="446" y="553"/>
			<point x="463.667" y="564.333"/>
			<point x="509.333" y="568.333" type="curve"/>
			<point x="515.333" y="574.333"/>
			<point x="516" y="596"/>
			<point x="510" y="602" type="curve"/>
			<point x="482.667" y="601"/>
			<point x="460" y="600"/>
			<point x="440.333" y="600" type="curve" smooth="yes"/>
			<point x="436.667" y="600"/>
			<point x="432.667" y="600"/>
			<point x="428.333" y="600" type="curve" smooth="yes"/>
			<point x="407.333" y="600"/>
			<point x="374" y="601"/>
			<point x="338.667" y="602" type="curve"/>
			<point x="332.667" y="596"/>
			<point x="332.667" y="574.333"/>
			<point x="338.667" y="568.333" type="curve"/>
			<point x="378.333" y="565.667"/>
			<point x="393.667" y="561.333"/>
			<point x="384.333" y="535.667" type="curve"/>
			<point x="381" y="525"/>
			<point x="376" y="512.667"/>
			<point x="368.667" y="498" type="curve"/>
			<point x="367.333" y="494.333"/>
			<point x="365.667" y="490.667"/>
			<point x="364.333" y="487" type="curve"/>
			<point x="313.333" y="368.333" type="line"/>
			<point x="305.333" y="350.333" type="line"/>
			<point x="301.667" y="343"/>
			<point x="298.333" y="339"/>
			<point x="294.667" y="339.667" type="curve"/>
			<point x="290" y="343.333"/>
			<point x="285" y="350.333"/>
			<point x="279.667" y="361.667" type="curve" smooth="yes"/>
			<point x="200.667" y="526.333" type="line"/>
			<point x="198.333" y="531" type="line" smooth="yes"/>
			<point x="184.667" y="558.667"/>
			<point x="189.667" y="566.333"/>
			<point x="239" y="568.333" type="curve"/>
			<point x="245" y="574.333"/>
			<point x="245" y="596"/>
			<point x="239" y="602" type="curve"/>
			<point x="207" y="601.333"/>
			<point x="174" y="600.333"/>
			<point x="141.667" y="600.333" type="curve"/>
			<point x="129.667" y="600"/>
			<point x="118.333" y="600"/>
			<point x="110" y="600" type="curve" smooth="yes"/>
			<point x="80.6667" y="600"/>
			<point x="34.6667" y="601"/>
			<point x="8.66667" y="602" type="curve"/>
			<point x="2.66667" y="596"/>
			<point x="3.33333" y="574.333"/>
			<point x="9.33333" y="568.333" type="curve"/>
			<point x="47.6667" y="565"/>
			<point x="70.6667" y="545.667"/>
			<point x="92" y="507.667" type="curve" smooth="yes"/>
			<point x="95.3333" y="502"/>
			<point x="98" y="496.667"/>
			<point x="101" y="491" type="curve" smooth="yes"/>
			<point x="185.667" y="329.667" type="line" smooth="yes"/>
			<point x="196" y="309.667"/>
			<point x="202" y="297.333"/>
			<point x="206.333" y="286" type="curve"/>
			<point x="88" y="286" type="line"/>
			<point x="82" y="280"/>
			<point x="80" y="269"/>
			<point x="80" y="260.333" type="curve" smooth="yes"/>
			<point x="80" y="256.333" type="line" smooth="yes"/>
			<point x="80" y="252.333"/>
			<point x="80" y="249"/>
			<point x="80.3333" y="245.333" type="curve"/>
			<point x="84" y="245"/>
			<point x="88" y="245"/>
			<point x="92" y="245" type="curve" smooth="yes"/>
			<point x="209.667" y="245" type="line"/>
			<point x="209.667" y="175.667" type="line"/>
			<point x="88" y="175.667" type="line"/>
			<point x="82" y="169.667"/>
			<point x="80" y="159.333"/>
			<point x="80" y="150.667" type="curve" smooth="yes"/>
			<point x="80" y="146.333" type="line" smooth="yes"/>
			<point x="80" y="142.333"/>
			<point x="80" y="139"/>
			<point x="80.3333" y="135.333" type="curve"/>
			<point x="84" y="135"/>
			<point x="88" y="134.667"/>
			<point x="92" y="134.667" type="curve" smooth="yes"/>
			<point x="209.667" y="134.667" type="line"/>
			<point x="209.667" y="123.667" type="line" smooth="yes"/>
			<point x="209.667" y="39"/>
			<point x="192.667" y="34.6667"/>
			<point x="111" y="31.6667" type="curve"/>
			<point x="105" y="25.6667"/>
			<point x="105" y="4"/>
			<point x="111" y="-2" type="curve"/>
			<point x="158.333" y="-1"/>
			<point x="203.333" y="0"/>
			<point x="261" y="0" type="curve" smooth="yes"/>
			<point x="279" y="0" type="line" smooth="yes"/>
			<point x="334.333" y="0"/>
			<point x="374.333" y="-1"/>
			<point x="423.333" y="-2" type="curve"/>
			<point x="429.333" y="4"/>
			<point x="429.333" y="25.6667"/>
			<point x="423.333" y="31.6667" type="curve"/>
			<point x="341.667" y="34.6667"/>
			<point x="324.667" y="39"/>
			<point x="324.667" y="123.667" type="curve" smooth="yes"/>
			<point x="324.667" y="134.667" type="line"/>
			<point x="432" y="134.667" type="line" smooth="yes"/>
			<point x="442.333" y="134.667"/>
			<point x="453" y="136"/>
			<point x="459.667" y="139.333" type="curve"/>
		</contour>
	</outline>
</glyph>
<glyph name="dieresis" format="2">
	<unicode hex="00A8"/>
	<advance width="400"/>
	<outline>
		<contour>
			<point x="57.3333" y="575" type="curve" smooth="yes"/>
			<point x="57.3333" y="546.333"/>
			<point x="81" y="523.333"/>
			<point x="109.667" y="523.333" type="curve" smooth="yes"/>
			<point x="139" y="523.333"/>
			<point x="162" y="546.333"/>
			<point x="162" y="575" type="curve" smooth="yes"/>
			<point x="162" y="604.333"/>
			<point x="139" y="627.667"/>
			<point x="109.667" y="627.667" type="curve" smooth="yes"/>
			<point x="81" y="627.667"/>
			<point x="57.3333" y="604.333"/>
		</contour>
		<contour>
			<point x="238" y="575" type="curve" smooth="yes"/>
			<point x="238" y="546.333"/>
			<point x="261" y="523.333"/>
			<point x="290.333" y="523.333" type="curve" smooth="yes"/>
			<point x="319" y="523.333"/>
			<point x="342.667" y="546.333"/>
			<point x="342.667" y="575" type="curve" smooth="yes"/>
			<point x="342.667" y="604.333"/>
			<point x="319" y="627.667"/>
			<point x="290.333" y="627.667" type="curve" smooth="yes"/>
			<point x="261" y="627.667"/>
			<point x="238" y="604.333"/>
		</contour>
	</outline>
	<anchor name="_t.uni0302" x="200" y="523.333"/>
	<guideline x="190" y="0" angle="90"/>
	<guideline x="0" y="530" angle="0"/>
</glyph>
<glyph name="logicalnot" format="2">
	<unicode hex="00AC"/>
	<advance width="573"/>
	<outline>
		<contour>
			<point x="475" y="121.667" type="line"/>
			<point x="490.652" y="118.667"/>
			<point x="528.676" y="119.667"/>
			<point x="542.333" y="121.667" type="curve"/>
			<point x="542.333" y="389.667" type="line"/>
			<point x="29.3333" y="389.667" type="line"/>
			<point x="27" y="375.963"/>
			<point x="28" y="348.758"/>
			<point x="29.3333" y="339" type="curve"/>
			<point x="475" y="339" type="line"/>
		</contour>
	</outline>
</glyph>
<glyph name="uni00AD" format="2">
	<unicode hex="00AD"/>
	<advance width="346"/>
	<outline>
		<contour>
			<point x="272.333" y="217.667" type="line" smooth="yes"/>
			<point x="292" y="217.667"/>
			<point x="312.667" y="257"/>
			<point x="312.667" y="269.667" type="curve" smooth="yes"/>
			<point x="312.667" y="280.333"/>
			<point x="306" y="290.333"/>
			<point x="284" y="290.333" type="curve" smooth="yes"/>
			<point x="77.6667" y="290.333" type="line" smooth="yes"/>
			<point x="59.6667" y="290.333"/>
			<point x="38.6667" y="255.333"/>
			<point x="38.6667" y="238" type="curve" smooth="yes"/>
			<point x="38.6667" y="227.333"/>
			<point x="49.3333" y="217.667"/>
			<point x="68.3333" y="217.667" type="curve" smooth="yes"/>
		</contour>
	</outline>
</glyph>
<glyph name="registered" format="2">
	<unicode hex="00AE"/>
	<advance width="659"/>
	<outline>
		<contour>
			<point x="321" y="19" type="curve" smooth="yes"/>
			<point x="479" y="19"/>
			<point x="608.667" y="148"/>
			<point x="608.667" y="306" type="curve" smooth="yes"/>
			<point x="608.667" y="464"/>
			<point x="479" y="592"/>
			<point x="321" y="592" type="curve" smooth="yes"/>
			<point x="163" y="592"/>
			<point x="32.6667" y="464"/>
			<point x="32.6667" y="306" type="curve" smooth="yes"/>
			<point x="32.6667" y="149"/>
			<point x="162" y="19"/>
		</contour>
		<contour>
			<point x="321" y="548.667" type="curve" smooth="yes"/>
			<point x="454" y="548.667"/>
			<point x="560.667" y="439.667"/>
			<point x="560.667" y="306" type="curve" smooth="yes"/>
			<point x="560.667" y="172.333"/>
			<point x="453.667" y="63"/>
			<point x="321" y="63" type="curve" smooth="yes"/>
			<point x="186.333" y="63"/>
			<point x="80.6667" y="173.333"/>
			<point x="80.6667" y="306" type="curve" smooth="yes"/>
			<point x="80.6667" y="439"/>
			<point x="187" y="548.667"/>
		</contour>
		<contour>
			<point x="425.333" y="371.333" type="curve" smooth="yes"/>
			<point x="425.333" y="401.333"/>
			<point x="405.333" y="446.333"/>
			<point x="330.333" y="446.333" type="curve" smooth="yes"/>
			<point x="303.667" y="446.333"/>
			<point x="275" y="445.667"/>
			<point x="257" y="445" type="curve" smooth="yes"/>
			<point x="233" y="444.333"/>
			<point x="210.333" y="444"/>
			<point x="196.333" y="443" type="curve"/>
			<point x="195.333" y="439.333"/>
			<point x="195" y="433.333"/>
			<point x="195.333" y="428.667" type="curve"/>
			<point x="195.667" y="426.333"/>
			<point x="196.667" y="424.667"/>
			<point x="197.667" y="423.667" type="curve"/>
			<point x="200.333" y="423"/>
			<point x="203.667" y="422"/>
			<point x="206.667" y="422" type="curve"/>
			<point x="212" y="421.667"/>
			<point x="218" y="421.667"/>
			<point x="222.667" y="421" type="curve"/>
			<point x="226" y="420.333"/>
			<point x="227.667" y="415.333"/>
			<point x="228.333" y="410.667" type="curve"/>
			<point x="229.333" y="402"/>
			<point x="229.667" y="392"/>
			<point x="229.667" y="381.333" type="curve" smooth="yes"/>
			<point x="229.667" y="233.333" type="line" smooth="yes"/>
			<point x="229.667" y="219.333"/>
			<point x="229" y="207.667"/>
			<point x="227" y="197" type="curve" smooth="yes"/>
			<point x="226" y="191.333"/>
			<point x="223.333" y="190"/>
			<point x="217.667" y="189.333" type="curve"/>
			<point x="214" y="189"/>
			<point x="210.333" y="189"/>
			<point x="206.667" y="188.667" type="curve"/>
			<point x="203.667" y="188.667"/>
			<point x="200.333" y="188.333"/>
			<point x="197.667" y="187.667" type="curve"/>
			<point x="196" y="186.667"/>
			<point x="195" y="184.333"/>
			<point x="194.667" y="182" type="curve"/>
			<point x="194.333" y="176.667"/>
			<point x="194.667" y="171.333"/>
			<point x="195.667" y="167" type="curve"/>
			<point x="213.667" y="168"/>
			<point x="234" y="168.333"/>
			<point x="252" y="169" type="curve"/>
			<point x="258.333" y="169" type="line" smooth="yes"/>
			<point x="275" y="169"/>
			<point x="308" y="167.333"/>
			<point x="319.333" y="167" type="curve"/>
			<point x="320.667" y="167" type="line"/>
			<point x="321.667" y="171.333"/>
			<point x="322" y="176.667"/>
			<point x="321.667" y="182" type="curve"/>
			<point x="321.333" y="184.333"/>
			<point x="320.333" y="186.667"/>
			<point x="319.333" y="187.667" type="curve"/>
			<point x="316.667" y="188.333"/>
			<point x="313.333" y="188.667"/>
			<point x="309.667" y="188.667" type="curve"/>
			<point x="306" y="189"/>
			<point x="302.333" y="189"/>
			<point x="298.667" y="189.333" type="curve" smooth="yes"/>
			<point x="292.333" y="190"/>
			<point x="291" y="192"/>
			<point x="290" y="196.333" type="curve"/>
			<point x="288" y="207"/>
			<point x="287.333" y="218"/>
			<point x="287.333" y="232" type="curve" smooth="yes"/>
			<point x="287.333" y="286" type="line"/>
			<point x="292.333" y="286"/>
			<point x="313.667" y="285"/>
			<point x="317.667" y="282.667" type="curve"/>
			<point x="365.667" y="204" type="line"/>
			<point x="378" y="180.333"/>
			<point x="399.333" y="169.333"/>
			<point x="420.667" y="166.667" type="curve" smooth="yes"/>
			<point x="426.333" y="166"/>
			<point x="431.333" y="166"/>
			<point x="436" y="166.333" type="curve" smooth="yes"/>
			<point x="442" y="166.667"/>
			<point x="449.667" y="168"/>
			<point x="458.667" y="171" type="curve"/>
			<point x="459" y="175.667"/>
			<point x="458.667" y="181.333"/>
			<point x="457.333" y="185.333" type="curve"/>
			<point x="441.333" y="184.333"/>
			<point x="428.667" y="193"/>
			<point x="416.333" y="214" type="curve" smooth="yes"/>
			<point x="368.333" y="296" type="line"/>
			<point x="378.667" y="299.333"/>
			<point x="425.333" y="323.667"/>
		</contour>
		<contour>
			<point x="366" y="371.333" type="curve" smooth="yes"/>
			<point x="366" y="330"/>
			<point x="348.667" y="316"/>
			<point x="325.333" y="312" type="curve" smooth="yes"/>
			<point x="312.667" y="310"/>
			<point x="299.333" y="310"/>
			<point name=".hr01" x="287.333" y="310" type="curve"/>
			<point name=".hr02" x="287.333" y="391" type="line"/>
			<point x="287.333" y="411.667" type="line"/>
			<point x="290.667" y="419"/>
			<point x="303.667" y="425"/>
			<point x="319.333" y="425" type="curve" smooth="yes"/>
			<point x="353.333" y="425"/>
			<point x="366" y="405.333"/>
		</contour>
	</outline>
</glyph>
<glyph name="macron" format="2">
	<unicode hex="00AF"/>
	<advance width="397"/>
	<outline>
		<contour>
			<point x="315" y="530" type="line" smooth="yes"/>
			<point x="328" y="530"/>
			<point x="339" y="551.333"/>
			<point x="339" y="563.333" type="curve" smooth="yes"/>
			<point x="339" y="569.333"/>
			<point x="335" y="580.667"/>
			<point x="325" y="580.667" type="curve" smooth="yes"/>
			<point x="81" y="580.667" type="line" smooth="yes"/>
			<point x="69" y="580.667"/>
			<point x="59" y="560.333"/>
			<point x="59" y="548.333" type="curve" smooth="yes"/>
			<point x="59" y="541.333"/>
			<point x="62" y="530"/>
			<point x="71" y="530" type="curve" smooth="yes"/>
		</contour>
	</outline>
</glyph>
<glyph name="uni00B2" format="2">
	<unicode hex="00B2"/>
	<advance width="329"/>
	<outline>
		<contour>
			<point x="37.6667" y="621" type="curve" smooth="yes"/>
			<point x="37.6667" y="600"/>
			<point x="47" y="584.333"/>
			<point x="69" y="584.333" type="curve" smooth="yes"/>
			<point x="86.3333" y="584.333"/>
			<point x="103.667" y="594"/>
			<point x="106.667" y="610.667" type="curve"/>
			<point x="107.667" y="613.667"/>
			<point x="107.333" y="617.667"/>
			<point x="107.333" y="621.667" type="curve" smooth="yes"/>
			<point x="107.333" y="626.333"/>
			<point x="107.333" y="631"/>
			<point x="107.667" y="635.667" type="curve"/>
			<point x="107.667" y="637.667"/>
			<point x="107.667" y="640.333"/>
			<point x="108" y="643" type="curve"/>
			<point x="108.333" y="648"/>
			<point x="109" y="653.333"/>
			<point x="110.667" y="656" type="curve"/>
			<point x="116.333" y="667"/>
			<point x="128" y="672"/>
			<point x="150" y="672" type="curve" smooth="yes"/>
			<point x="157.667" y="672"/>
			<point x="170.333" y="668.333"/>
			<point x="177" y="660.333" type="curve"/>
			<point x="186.667" y="649.333"/>
			<point x="193.333" y="632"/>
			<point x="193.333" y="606.667" type="curve" smooth="yes"/>
			<point x="193.333" y="577.333"/>
			<point x="180.667" y="550.333"/>
			<point x="153.333" y="525.333" type="curve" smooth="yes"/>
			<point x="146.333" y="518.667"/>
			<point x="138.333" y="512.667"/>
			<point x="131" y="505.667" type="curve"/>
			<point x="119.333" y="495.667"/>
			<point x="107.333" y="484.667"/>
			<point x="96.3333" y="474.667" type="curve"/>
			<point x="62.6667" y="441.667"/>
			<point x="38.3333" y="404.333"/>
			<point x="38.3333" y="364" type="curve"/>
			<point x="264.333" y="364" type="line"/>
			<point x="273.333" y="392.333"/>
			<point x="286" y="432.667"/>
			<point x="290" y="470.667" type="curve"/>
			<point x="285" y="474.667"/>
			<point name=".hr01" x="274.333" y="476.333"/>
			<point x="263.333" y="476.333" type="curve"/>
			<point x="252.333" y="447"/>
			<point name=".hr02" x="231.667" y="412.667"/>
			<point x="200.667" y="412.667" type="curve" smooth="yes"/>
			<point x="118.333" y="412.667" type="line"/>
			<point x="121.667" y="429"/>
			<point x="129.333" y="447"/>
			<point x="147.667" y="463.667" type="curve"/>
			<point x="157.333" y="472"/>
			<point x="166.667" y="480.333"/>
			<point x="177.667" y="489.333" type="curve" smooth="yes"/>
			<point x="190" y="499.667" type="line" smooth="yes"/>
			<point x="209" y="515.333"/>
			<point x="230.667" y="534.667"/>
			<point x="244.333" y="549.667" type="curve" smooth="yes"/>
			<point x="265.333" y="572.667"/>
			<point x="273.333" y="591.667"/>
			<point x="273.333" y="616.333" type="curve" smooth="yes"/>
			<point x="273.333" y="648.333"/>
			<point x="263.333" y="668"/>
			<point x="242.333" y="683" type="curve" smooth="yes"/>
			<point x="219.333" y="699.667"/>
			<point x="187" y="702"/>
			<point x="160.667" y="702" type="curve" smooth="yes"/>
			<point x="81.6667" y="702"/>
			<point x="37.6667" y="648.333"/>
		</contour>
	</outline>
</glyph>
<glyph name="acute" format="2">
	<unicode hex="00B4"/>
	<advance width="341"/>
	<outline>
		<contour>
			<point x="183" y="666" type="curve"/>
			<point x="102.333" y="539" type="line" smooth="yes"/>
			<point x="95.6667" y="528.667"/>
			<point x="93.3333" y="520.667"/>
			<point x="93.3333" y="513.667" type="curve" smooth="yes"/>
			<point x="93.3333" y="507.333"/>
			<point x="101" y="500"/>
			<point x="108.667" y="500" type="curve" smooth="yes"/>
			<point x="117.667" y="500"/>
			<point x="129.667" y="504"/>
			<point x="144" y="517" type="curve" smooth="yes"/>
			<point x="262.333" y="625.333" type="line"/>
			<point x="254.667" y="644.333" type="line"/>
			<point x="241.667" y="658.333"/>
			<point x="220.333" y="668"/>
			<point x="198.333" y="668" type="curve" smooth="yes"/>
			<point x="193.333" y="668"/>
			<point x="186" y="667"/>
		</contour>
	</outline>
	<anchor name="_t.uni0302" x="175" y="500"/>
</glyph>
<glyph name="periodcentered" format="2">
	<unicode hex="00B7"/>
	<advance width="250"/>
	<outline>
		<contour>
			<point x="125" y="190.333" type="curve" smooth="yes"/>
			<point x="159.667" y="190.333"/>
			<point x="188.333" y="219.667"/>
			<point x="188.333" y="253" type="curve" smooth="yes"/>
			<point x="188.333" y="287.667"/>
			<point x="157" y="315.667"/>
			<point x="125" y="315.667" type="curve" smooth="yes"/>
			<point x="91" y="315.667"/>
			<point x="61.6667" y="285.667"/>
			<point x="61.6667" y="253" type="curve" smooth="yes"/>
			<point x="61.6667" y="220.333"/>
			<point x="88.3333" y="190.333"/>
		</contour>
	</outline>
</glyph>
<glyph name="uni00B9" format="2">
	<unicode hex="00B9"/>
	<advance width="329"/>
	<outline>
		<contour>
			<point x="135" y="633.333" type="curve" smooth="yes"/>
			<point x="147" y="633.333"/>
			<point x="149" y="624.333"/>
			<point x="149" y="592.333" type="curve" smooth="yes"/>
			<point x="149" y="449" type="line" smooth="yes"/>
			<point x="149" y="398"/>
			<point x="118" y="395"/>
			<point x="78" y="393" type="curve"/>
			<point x="73" y="385"/>
			<point x="74" y="369.333"/>
			<point x="78" y="363.333" type="curve"/>
			<point x="108" y="364.333"/>
			<point x="151.667" y="364.333"/>
			<point x="186.667" y="364.333" type="curve" smooth="yes"/>
			<point x="223.667" y="364.333"/>
			<point x="250.667" y="364.333"/>
			<point x="280.667" y="363.333" type="curve"/>
			<point x="284.667" y="370.333"/>
			<point x="284.667" y="385"/>
			<point x="280.667" y="393" type="curve"/>
			<point x="246.667" y="395"/>
			<point x="225.667" y="398"/>
			<point x="225.667" y="449" type="curve" smooth="yes"/>
			<point x="225.667" y="705.333" type="line"/>
			<point x="220.667" y="710.333"/>
			<point x="203.333" y="708.333"/>
			<point x="198.333" y="705.333" type="curve"/>
			<point x="153.667" y="681"/>
			<point x="115" y="666.333"/>
			<point x="68" y="649.333" type="curve"/>
			<point x="68" y="637.333"/>
			<point x="70" y="624.333"/>
			<point x="78" y="618.333" type="curve"/>
			<point x="103" y="627.333"/>
			<point x="122" y="633.333"/>
		</contour>
	</outline>
</glyph>
<glyph name="onequarter" format="2">
	<unicode hex="00BC"/>
	<advance width="687"/>
	<outline>
		<contour>
			<point x="597.333" y="-35.3333" type="curve" smooth="yes"/>
			<point x="597.333" y="-13.3333" type="line"/>
			<point x="652" y="-13.3333" type="line"/>
			<point x="656" y="26" type="line"/>
			<point x="597.333" y="26" type="line"/>
			<point x="597.333" y="216.667" type="line" smooth="yes"/>
			<point x="597.333" y="225.667"/>
			<point x="588.667" y="226.667"/>
			<point x="583" y="226.667" type="curve" smooth="yes"/>
			<point x="570.667" y="226.667"/>
			<point x="557" y="226.667"/>
			<point x="545.333" y="226.333" type="curve"/>
			<point x="535.333" y="216.667"/>
			<point x="525" y="204.333"/>
			<point x="515.333" y="192" type="curve" smooth="yes"/>
			<point x="477.667" y="145"/>
			<point x="427" y="82.3333"/>
			<point x="390.667" y="29" type="curve"/>
			<point x="386" y="22.6667"/>
			<point x="381.667" y="17"/>
			<point x="377.333" y="10" type="curve"/>
			<point x="373.333" y="4" type="line"/>
			<point x="375.667" y="0"/>
			<point x="377.667" y="-5"/>
			<point x="381" y="-9.66667" type="curve"/>
			<point x="384.333" y="-11.6667"/>
			<point x="389.333" y="-13.3333"/>
			<point x="396.333" y="-13.3333" type="curve" smooth="yes"/>
			<point x="524.667" y="-13.3333" type="line"/>
			<point x="524.667" y="-35.3333" type="line" smooth="yes"/>
			<point x="524.667" y="-83"/>
			<point x="499.667" y="-86"/>
			<point x="459.667" y="-88" type="curve"/>
			<point x="454.667" y="-96"/>
			<point x="455.667" y="-111.667"/>
			<point x="459.667" y="-117.667" type="curve"/>
			<point x="488.333" y="-116.667"/>
			<point x="513.333" y="-116.667"/>
			<point x="545" y="-116.667" type="curve" smooth="yes"/>
			<point x="559.667" y="-116.667" type="line" smooth="yes"/>
			<point x="593.667" y="-116.667"/>
			<point x="620.333" y="-116.667"/>
			<point x="647.667" y="-117.667" type="curve"/>
			<point x="651.667" y="-110.667"/>
			<point x="651.667" y="-96"/>
			<point x="647.667" y="-88" type="curve"/>
			<point x="613.667" y="-86"/>
			<point x="597.333" y="-83"/>
		</contour>
		<contour>
			<point x="132" y="584.333" type="curve" smooth="yes"/>
			<point x="144" y="584.333"/>
			<point x="146" y="575.333"/>
			<point x="146" y="543.333" type="curve" smooth="yes"/>
			<point x="146" y="400" type="line" smooth="yes"/>
			<point x="146" y="349"/>
			<point x="115" y="346"/>
			<point x="75" y="344" type="curve"/>
			<point x="70" y="336"/>
			<point x="71" y="320.333"/>
			<point x="75" y="314.333" type="curve"/>
			<point x="105" y="315.333"/>
			<point x="148.667" y="315.333"/>
			<point x="183.667" y="315.333" type="curve" smooth="yes"/>
			<point x="220.667" y="315.333"/>
			<point x="247.667" y="315.333"/>
			<point x="277.667" y="314.333" type="curve"/>
			<point x="281.667" y="321.333"/>
			<point x="281.667" y="336"/>
			<point x="277.667" y="344" type="curve"/>
			<point x="244.667" y="346"/>
			<point x="224" y="348.667"/>
			<point x="223" y="395.333" type="curve"/>
			<point x="222.667" y="396.667"/>
			<point x="222.667" y="398.333"/>
			<point x="222.667" y="400" type="curve" smooth="yes"/>
			<point x="222.667" y="656.333" type="line"/>
			<point x="219" y="660"/>
			<point x="209" y="660"/>
			<point x="201.333" y="657.667" type="curve"/>
			<point x="198.667" y="657.667"/>
			<point x="196.667" y="657"/>
			<point x="195.333" y="656.333" type="curve"/>
			<point x="150.667" y="632"/>
			<point x="112" y="617.333"/>
			<point x="65" y="600.333" type="curve"/>
			<point x="65" y="588.333"/>
			<point x="67" y="575.333"/>
			<point x="75" y="569.333" type="curve"/>
			<point x="100" y="578.333"/>
			<point x="119" y="584.333"/>
		</contour>
		<contour>
			<point x="567" y="601" type="line"/>
			<point x="108.667" y="-54" type="line"/>
			<point x="150" y="-62" type="line"/>
			<point x="608.667" y="593" type="line"/>
		</contour>
		<contour>
			<point x="524.667" y="157.333" type="curve"/>
			<point x="524.667" y="26" type="line"/>
			<point x="428.667" y="26" type="line"/>
			<point x="452.333" y="60"/>
			<point x="490.333" y="113"/>
		</contour>
	</outline>
</glyph>
<glyph name="threequarters" format="2">
	<unicode hex="00BE"/>
	<advance width="687"/>
	<outline>
		<contour>
			<point x="601.333" y="-33.3333" type="curve" smooth="yes"/>
			<point x="601.333" y="-11.3333" type="line"/>
			<point x="656" y="-11.3333" type="line"/>
			<point x="660" y="28" type="line"/>
			<point x="601.333" y="28" type="line"/>
			<point x="601.333" y="218.667" type="line" smooth="yes"/>
			<point x="601.333" y="227.667"/>
			<point x="592.667" y="228.667"/>
			<point x="587" y="228.667" type="curve" smooth="yes"/>
			<point x="574.667" y="228.667"/>
			<point x="561" y="228.667"/>
			<point x="549.333" y="228.333" type="curve"/>
			<point x="539.333" y="218.667"/>
			<point x="529" y="206.333"/>
			<point x="519.333" y="194" type="curve" smooth="yes"/>
			<point x="481.667" y="147"/>
			<point x="431" y="84.3333"/>
			<point x="394.667" y="31" type="curve"/>
			<point x="390" y="24.6667"/>
			<point x="385.667" y="19"/>
			<point x="381.333" y="12" type="curve"/>
			<point x="377.333" y="6" type="line"/>
			<point x="379.667" y="2"/>
			<point x="381.667" y="-3"/>
			<point x="385" y="-7.66667" type="curve"/>
			<point x="388.333" y="-9.66667"/>
			<point x="393.333" y="-11.3333"/>
			<point x="400.333" y="-11.3333" type="curve" smooth="yes"/>
			<point x="528.667" y="-11.3333" type="line"/>
			<point x="528.667" y="-33.3333" type="line" smooth="yes"/>
			<point x="528.667" y="-81"/>
			<point x="503.667" y="-84"/>
			<point x="463.667" y="-86" type="curve"/>
			<point x="458.667" y="-94"/>
			<point x="459.667" y="-109.667"/>
			<point x="463.667" y="-115.667" type="curve"/>
			<point x="492.333" y="-114.667"/>
			<point x="517.333" y="-114.667"/>
			<point x="549" y="-114.667" type="curve" smooth="yes"/>
			<point x="563.667" y="-114.667" type="line" smooth="yes"/>
			<point x="597.667" y="-114.667"/>
			<point x="624.333" y="-114.667"/>
			<point x="651.667" y="-115.667" type="curve"/>
			<point x="655.667" y="-108.667"/>
			<point x="655.667" y="-94"/>
			<point x="651.667" y="-86" type="curve"/>
			<point x="617.667" y="-84"/>
			<point x="601.333" y="-81"/>
		</contour>
		<contour>
			<point x="191.333" y="580.333" type="curve" smooth="yes"/>
			<point x="191.333" y="538"/>
			<point x="150.333" y="509.333"/>
			<point x="106.333" y="503.333" type="curve"/>
			<point x="105.333" y="493.667"/>
			<point x="105.333" y="483.333"/>
			<point x="107" y="474.333" type="curve"/>
			<point x="118.333" y="476.667"/>
			<point x="128" y="477.667"/>
			<point x="136.333" y="477.667" type="curve" smooth="yes"/>
			<point x="171.667" y="477.667"/>
			<point x="211.333" y="468.333"/>
			<point name=".hr01" x="211.333" y="420" type="curve" smooth="yes"/>
			<point x="211.333" y="357.333"/>
			<point x="166" y="337.667"/>
			<point x="143" y="337.667" type="curve" smooth="yes"/>
			<point x="122" y="337.667"/>
			<point x="109.667" y="345.333"/>
			<point x="102" y="353" type="curve"/>
			<point x="99.6667" y="356"/>
			<point x="97" y="360.333"/>
			<point x="93.6667" y="365.667" type="curve" smooth="yes"/>
			<point x="87.3333" y="376.333"/>
			<point x="78.3333" y="386"/>
			<point x="62.3333" y="386.333" type="curve"/>
			<point x="58.6667" y="386.667"/>
			<point x="56" y="386.667"/>
			<point x="53" y="386" type="curve" smooth="yes"/>
			<point x="37.6667" y="382.667"/>
			<point x="26.6667" y="370.333"/>
			<point x="26.6667" y="355.333" type="curve" smooth="yes"/>
			<point x="26.6667" y="352.667"/>
			<point x="27.3333" y="349.667"/>
			<point x="28.3333" y="347" type="curve"/>
			<point x="38" y="317.667"/>
			<point x="93" y="308.333"/>
			<point x="132.667" y="307.667" type="curve"/>
			<point x="133.667" y="307.667"/>
			<point x="134.333" y="307.667"/>
			<point x="135" y="307.667" type="curve"/>
			<point x="221.667" y="307.667"/>
			<point x="295.333" y="354.333"/>
			<point x="295.333" y="428" type="curve" smooth="yes"/>
			<point x="295.333" y="483.333"/>
			<point x="255.667" y="505.667"/>
			<point x="220" y="514" type="curve"/>
			<point x="218.667" y="514.667"/>
			<point x="219.333" y="516"/>
			<point x="220" y="516.667" type="curve"/>
			<point x="249" y="534.667"/>
			<point x="268.333" y="559"/>
			<point name=".hr02" x="268.333" y="585.333" type="curve" smooth="yes"/>
			<point x="268.333" y="625.667"/>
			<point x="226.667" y="651"/>
			<point x="166" y="651" type="curve" smooth="yes"/>
			<point x="68.3333" y="651"/>
			<point x="36.6667" y="593.667"/>
			<point x="36.6667" y="575.333" type="curve" smooth="yes"/>
			<point x="36.6667" y="571.667"/>
			<point x="38.6667" y="550.667"/>
			<point x="66.3333" y="550.667" type="curve" smooth="yes"/>
			<point x="93.3333" y="550.667"/>
			<point x="100.333" y="574"/>
			<point x="102" y="587" type="curve"/>
			<point x="105.667" y="607.667"/>
			<point x="130.333" y="621"/>
			<point x="150.667" y="621" type="curve" smooth="yes"/>
			<point x="170.667" y="621"/>
			<point x="191.333" y="608.333"/>
		</contour>
		<contour>
			<point x="575.333" y="601" type="line"/>
			<point x="117" y="-54" type="line"/>
			<point x="158.333" y="-62" type="line"/>
			<point x="617" y="593" type="line"/>
		</contour>
		<contour>
			<point x="528.667" y="159.333" type="curve"/>
			<point x="528.667" y="28" type="line"/>
			<point x="432.667" y="28" type="line"/>
			<point x="456.333" y="62"/>
			<point x="494.333" y="115"/>
		</contour>
	</outline>
</glyph>
<glyph name="germandbls" format="2">
	<unicode hex="00DF"/>
	<advance width="590"/>
	<outline>
		<contour>
			<point x="97.3333" y="124.667" type="line" smooth="yes"/>
			<point x="97.3333" y="42.3333"/>
			<point x="82.6667" y="34.6667"/>
			<point x="23" y="31.6667" type="curve"/>
			<point x="17" y="25.6667"/>
			<point x="17" y="4"/>
			<point x="23" y="-2" type="curve"/>
			<point x="57.6667" y="-1"/>
			<point x="97.3333" y="0"/>
			<point x="142" y="0" type="curve" smooth="yes"/>
			<point x="148" y="0"/>
			<point x="153.667" y="0"/>
			<point x="159.667" y="0" type="curve" smooth="yes"/>
			<point x="192.667" y="0"/>
			<point x="222.667" y="-0.333333"/>
			<point x="244.333" y="-2" type="curve"/>
			<point x="250.333" y="4"/>
			<point x="250.333" y="25.6667"/>
			<point x="244.333" y="31.6667" type="curve"/>
			<point x="225" y="36"/>
			<point x="210.333" y="42.3333"/>
			<point x="210.333" y="126" type="curve" smooth="yes"/>
			<point x="210.333" y="445.333" type="line" smooth="yes"/>
			<point x="210.333" y="553.333"/>
			<point x="230.333" y="659"/>
			<point x="313" y="659" type="curve" smooth="yes"/>
			<point x="366" y="659"/>
			<point x="379" y="612"/>
			<point x="379" y="567.333" type="curve" smooth="yes"/>
			<point x="379" y="494.333"/>
			<point x="366.333" y="461"/>
			<point x="299.333" y="409" type="curve"/>
			<point x="299.333" y="389.333" type="line"/>
			<point x="383.333" y="325.333"/>
			<point name=".hr01" x="426.333" y="249"/>
			<point x="426.333" y="156" type="curve" smooth="yes"/>
			<point x="426.333" y="94.3333"/>
			<point x="414.333" y="31.6667"/>
			<point x="386" y="29.3333" type="curve"/>
			<point x="385.333" y="29"/>
			<point x="384.333" y="29"/>
			<point x="383.333" y="29" type="curve"/>
			<point x="365.333" y="29"/>
			<point x="343.667" y="35"/>
			<point x="340.667" y="48" type="curve"/>
			<point x="340" y="53.3333"/>
			<point x="340.333" y="57.6667"/>
			<point x="341" y="63" type="curve"/>
			<point x="344.333" y="75.6667"/>
			<point x="352.333" y="85.3333"/>
			<point x="352.333" y="101" type="curve" smooth="yes"/>
			<point x="352.333" y="114.333"/>
			<point x="347" y="123"/>
			<point x="336.333" y="127" type="curve"/>
			<point x="329.667" y="133.667"/>
			<point x="319.667" y="137.667"/>
			<point x="310.333" y="137.667" type="curve" smooth="yes"/>
			<point x="286.333" y="137.667"/>
			<point x="270.667" y="111.333"/>
			<point x="270.667" y="94" type="curve" smooth="yes"/>
			<point x="270.667" y="44"/>
			<point x="300" y="-10"/>
			<point x="383.333" y="-10" type="curve" smooth="yes"/>
			<point x="475.333" y="-10"/>
			<point x="549.333" y="68"/>
			<point x="549.333" y="173" type="curve" smooth="yes"/>
			<point x="549.333" y="289"/>
			<point x="451" y="369.667"/>
			<point x="360" y="409" type="curve"/>
			<point x="360" y="411" type="line"/>
			<point x="394.333" y="430"/>
			<point x="427.667" y="447"/>
			<point x="452.333" y="472.667" type="curve" smooth="yes"/>
			<point x="480" y="501.333"/>
			<point name=".hr02" x="496.667" y="540"/>
			<point x="496.667" y="580.333" type="curve" smooth="yes"/>
			<point x="496.667" y="609.333"/>
			<point x="476.667" y="652.333"/>
			<point x="437" y="675" type="curve" smooth="yes"/>
			<point x="411.667" y="690"/>
			<point x="369.667" y="698"/>
			<point x="328.667" y="698" type="curve" smooth="yes"/>
			<point x="250.333" y="698"/>
			<point x="97.3333" y="644.667"/>
			<point x="97.3333" y="480.333" type="curve" smooth="yes"/>
			<point x="97.3333" y="451.333"/>
			<point x="87.3333" y="434"/>
			<point x="59.6667" y="433.333" type="curve"/>
			<point x="53.6667" y="433"/>
			<point x="48.3333" y="432.333"/>
			<point x="43.3333" y="431" type="curve"/>
			<point x="35" y="427.667"/>
			<point x="29.6667" y="419"/>
			<point x="29" y="412.333" type="curve"/>
			<point x="29" y="406"/>
			<point x="29" y="400.667"/>
			<point x="29.6667" y="395.333" type="curve"/>
			<point x="31" y="392.667"/>
			<point x="36" y="392.667"/>
			<point x="41.3333" y="392" type="curve"/>
			<point x="83.3333" y="388.667" type="line"/>
			<point x="95.6667" y="387.333"/>
			<point x="97.3333" y="384.667"/>
			<point x="97.3333" y="374" type="curve" smooth="yes"/>
		</contour>
	</outline>
</glyph>
<glyph name="ae" format="2">
	<unicode hex="00E6"/>
	<advance width="706"/>
	<outline>
		<contour>
			<point x="37.6667" y="100" type="curve" smooth="yes"/>
			<point x="37.6667" y="14"/>
			<point x="110.333" y="-10"/>
			<point x="182" y="-10" type="curve" smooth="yes"/>
			<point x="218.333" y="-10"/>
			<point x="289" y="12.6667"/>
			<point x="335" y="67.3333" type="curve"/>
			<point x="364.667" y="9.33333"/>
			<point x="437" y="-10"/>
			<point x="501.667" y="-10" type="curve" smooth="yes"/>
			<point x="569.667" y="-10"/>
			<point x="627.667" y="26.3333"/>
			<point x="670.667" y="93" type="curve"/>
			<point x="669.667" y="103.333"/>
			<point x="663.667" y="118.667"/>
			<point x="654" y="119" type="curve"/>
			<point x="616.667" y="79.3333"/>
			<point name=".hr01" x="561" y="60.3333"/>
			<point x="517.667" y="60.3333" type="curve" smooth="yes"/>
			<point x="452" y="60.3333"/>
			<point x="401.667" y="120"/>
			<point x="401" y="217.333" type="curve"/>
			<point x="522.333" y="218.667"/>
			<point x="617.667" y="221.667"/>
			<point x="665.667" y="244.667" type="curve"/>
			<point x="669" y="264.667"/>
			<point x="670" y="278"/>
			<point x="670" y="301.333" type="curve" smooth="yes"/>
			<point x="670" y="358"/>
			<point x="642.667" y="442.333"/>
			<point x="505.333" y="442.333" type="curve" smooth="yes"/>
			<point x="448.333" y="442.333"/>
			<point x="399" y="425.333"/>
			<point x="361.333" y="372.333" type="curve"/>
			<point x="331.667" y="430.667"/>
			<point x="260" y="442.333"/>
			<point x="216.667" y="442.333" type="curve" smooth="yes"/>
			<point x="141.333" y="442.333"/>
			<point x="52" y="397.667"/>
			<point x="52" y="338.333" type="curve" smooth="yes"/>
			<point x="52" y="314.333"/>
			<point x="66.3333" y="288.667"/>
			<point x="100" y="288.667" type="curve" smooth="yes"/>
			<point name=".hr02" x="138.333" y="288.667"/>
			<point x="151" y="312.333"/>
			<point x="151" y="327" type="curve" smooth="yes"/>
			<point x="151" y="340"/>
			<point name=".hr03" x="144.333" y="349.333"/>
			<point x="144.333" y="368.333" type="curve" smooth="yes"/>
			<point x="144.333" y="392.667"/>
			<point x="174.333" y="403.333"/>
			<point x="212" y="403.333" type="curve" smooth="yes"/>
			<point x="274.333" y="403.333"/>
			<point x="293.333" y="343.333"/>
			<point x="293.333" y="248.667" type="curve"/>
			<point x="152.333" y="237.333"/>
			<point name=".hr04" x="37.6667" y="196.667"/>
		</contour>
		<contour>
			<point x="137.667" y="109.667" type="curve" smooth="yes"/>
			<point x="137.667" y="166.333"/>
			<point x="210.667" y="201.667"/>
			<point x="293.333" y="211" type="curve"/>
			<point x="292.667" y="163"/>
			<point x="293" y="115.333"/>
			<point x="287" y="99.6667" type="curve"/>
			<point x="268.667" y="59"/>
			<point x="222.667" y="37.3333"/>
			<point x="196" y="37.3333" type="curve" smooth="yes"/>
			<point x="151.333" y="37.3333"/>
			<point x="137.667" y="75.3333"/>
		</contour>
		<contour>
			<point x="402.667" y="254.333" type="curve"/>
			<point x="411.333" y="335.333"/>
			<point name=".hr05" x="440.333" y="403.333"/>
			<point x="497.667" y="403.333" type="curve" smooth="yes"/>
			<point x="551" y="403.333"/>
			<point x="577.667" y="343.667"/>
			<point x="577.667" y="278.667" type="curve"/>
			<point x="552.333" y="259"/>
			<point x="482.667" y="257.667"/>
		</contour>
	</outline>
	<anchor name="m.uni0302" x="338" y="644.333"/>
	<anchor name="m.uni0316_2" x="327" y="-109"/>
	<anchor name="b.uni0321_4" x="604" y="30"/>
	<anchor name="t.uni0302" x="351.333" y="500"/>
</glyph>
<glyph name="Aogonek" format="2">
	<unicode hex="0104"/>
	<advance width="725"/>
	<outline>
		<contour>
			<point x="685" y="-163" type="curve"/>
			<point x="680.333" y="-155.333"/>
			<point x="675" y="-149.333"/>
			<point x="668.667" y="-144" type="curve"/>
			<point x="654" y="-158.667"/>
			<point x="637.333" y="-167.333"/>
			<point x="618.333" y="-168" type="curve"/>
			<point x="612.667" y="-168.667"/>
			<point x="607" y="-168.333"/>
			<point x="602.667" y="-168" type="curve"/>
			<point x="583.667" y="-165.667"/>
			<point x="569" y="-153.333"/>
			<point x="569" y="-125" type="curve" smooth="yes"/>
			<point x="569" y="-73.3333"/>
			<point x="603" y="-19"/>
			<point x="647.333" y="-5" type="curve"/>
			<point x="670.667" y="-3"/>
			<point x="694.667" y="-1.33333"/>
			<point x="715" y="-2" type="curve"/>
			<point x="721" y="4"/>
			<point x="721" y="25.6667"/>
			<point x="715" y="31.6667" type="curve"/>
			<point x="676" y="35.6667"/>
			<point x="642.667" y="36"/>
			<point x="625" y="86" type="curve" smooth="yes"/>
			<point x="419" y="658" type="line"/>
			<point x="404" y="649"/>
			<point x="355" y="622"/>
			<point x="327.333" y="622" type="curve"/>
			<point x="109" y="107" type="line"/>
			<point x="107" y="102" type="line" smooth="yes"/>
			<point x="81" y="40"/>
			<point x="51" y="34.6667"/>
			<point x="7" y="31.6667" type="curve"/>
			<point x="1" y="25.6667"/>
			<point x="1" y="4"/>
			<point x="7" y="-2" type="curve"/>
			<point x="40.3333" y="-1"/>
			<point x="63.3333" y="0"/>
			<point x="99.3333" y="0" type="curve" smooth="yes"/>
			<point x="140.333" y="0"/>
			<point x="193.667" y="-1"/>
			<point x="230.667" y="-2" type="curve"/>
			<point x="236.667" y="4"/>
			<point x="236.667" y="25.6667"/>
			<point x="230.667" y="31.6667" type="curve"/>
			<point x="192.667" y="34.6667"/>
			<point x="145.667" y="38"/>
			<point x="161.667" y="79" type="curve" smooth="yes"/>
			<point x="215.333" y="220" type="line" smooth="yes"/>
			<point x="220.333" y="233"/>
			<point x="226.333" y="237"/>
			<point x="250.333" y="237" type="curve" smooth="yes"/>
			<point x="447.333" y="237" type="line"/>
			<point x="502.333" y="77" type="line"/>
			<point x="504" y="72" type="line" smooth="yes"/>
			<point x="515.333" y="38.6667"/>
			<point x="487.667" y="35.3333"/>
			<point x="450.333" y="33" type="curve" smooth="yes"/>
			<point x="444" y="32.6667"/>
			<point x="436.667" y="32"/>
			<point x="430" y="31.6667" type="curve"/>
			<point x="424" y="25.6667"/>
			<point x="424" y="4"/>
			<point x="430" y="-2" type="curve"/>
			<point x="461.667" y="-1"/>
			<point x="522.667" y="0"/>
			<point x="566.333" y="0" type="curve" smooth="yes"/>
			<point x="585" y="0" type="line"/>
			<point x="530.333" y="-29.6667"/>
			<point x="487" y="-86.6667"/>
			<point x="487" y="-132.667" type="curve" smooth="yes"/>
			<point x="487" y="-166"/>
			<point x="499.333" y="-188"/>
			<point x="518" y="-201.667" type="curve"/>
			<point x="530.333" y="-211.667"/>
			<point x="546" y="-218.667"/>
			<point x="564" y="-220" type="curve" smooth="yes"/>
			<point x="577.667" y="-221"/>
			<point x="591.667" y="-219.333"/>
			<point x="605.667" y="-216" type="curve"/>
			<point x="635.333" y="-210"/>
			<point x="664.667" y="-193.333"/>
		</contour>
		<contour>
			<point x="269.667" y="283" type="line" smooth="yes"/>
			<point x="247.667" y="283"/>
			<point x="240.667" y="286"/>
			<point x="244.667" y="296" type="curve" smooth="yes"/>
			<point x="337.333" y="531.667" type="line"/>
			<point x="344" y="531.667" type="line"/>
			<point x="430" y="283" type="line"/>
		</contour>
	</outline>
	<anchor name="m.uni0302" x="365" y="850"/>
</glyph>
<glyph name="aogonek" format="2">
	<unicode hex="0105"/>
	<advance width="490"/>
	<outline>
		<contour>
			<point x="478" y="-163" type="curve"/>
			<point x="476.667" y="-151.333"/>
			<point x="472" y="-142"/>
			<point x="461.667" y="-137.333" type="curve"/>
			<point x="444.333" y="-154.667"/>
			<point x="423" y="-162"/>
			<point x="402" y="-162" type="curve" smooth="yes"/>
			<point x="380" y="-162"/>
			<point x="363.333" y="-149.667"/>
			<point name=".hr01" x="362.333" y="-125.333" type="curve"/>
			<point x="362" y="-124"/>
			<point x="362" y="-123"/>
			<point x="362" y="-121.667" type="curve" smooth="yes"/>
			<point x="362" y="-68.3333"/>
			<point x="391.333" y="-36.3333"/>
			<point x="438" y="5" type="curve"/>
			<point x="437.333" y="5.66667" type="line"/>
			<point x="456.333" y="14"/>
			<point x="473" y="26"/>
			<point x="487.667" y="39.6667" type="curve"/>
			<point x="485.667" y="51.6667"/>
			<point x="481.667" y="60"/>
			<point x="470" y="67.3333" type="curve"/>
			<point x="459" y="58.6667"/>
			<point x="446.667" y="52.6667"/>
			<point x="429.667" y="52.6667" type="curve" smooth="yes"/>
			<point x="405.333" y="52.6667"/>
			<point x="401" y="77.6667"/>
			<point x="401" y="125.667" type="curve"/>
			<point name=".hr02" x="402.333" y="270.667" type="line"/>
			<point x="402.333" y="414"/>
			<point x="317" y="442.333"/>
			<point x="238" y="442.333" type="curve" smooth="yes"/>
			<point x="163.333" y="442.333"/>
			<point x="62.6667" y="398.333"/>
			<point x="60" y="336.333" type="curve"/>
			<point x="59.6667" y="332.667"/>
			<point x="59.6667" y="329"/>
			<point x="60.3333" y="325.333" type="curve"/>
			<point x="61.6667" y="305.333"/>
			<point x="72.3333" y="292"/>
			<point x="95.3333" y="288.667" type="curve" smooth="yes"/>
			<point x="99.6667" y="288"/>
			<point x="104.333" y="288.333"/>
			<point x="110" y="288.667" type="curve" smooth="yes"/>
			<point x="141" y="290.333"/>
			<point x="162.333" y="310.333"/>
			<point x="162.333" y="330" type="curve" smooth="yes"/>
			<point x="162.333" y="335.667"/>
			<point x="161.333" y="342"/>
			<point x="160" y="347.333" type="curve"/>
			<point x="159" y="353"/>
			<point x="157.333" y="359"/>
			<point x="157.333" y="367.333" type="curve" smooth="yes"/>
			<point x="157.333" y="370.333"/>
			<point x="157.667" y="374.333"/>
			<point x="158.333" y="377.333" type="curve" smooth="yes"/>
			<point x="161" y="390.333"/>
			<point x="174" y="401.667"/>
			<point x="204.333" y="402.667" type="curve" smooth="yes"/>
			<point x="211" y="403"/>
			<point x="217.333" y="403.333"/>
			<point x="223.333" y="402.667" type="curve" smooth="yes"/>
			<point x="256" y="399.333"/>
			<point x="288.333" y="377"/>
			<point x="291" y="279.333" type="curve"/>
			<point x="291" y="271.667"/>
			<point x="290" y="265"/>
			<point x="289" y="259.333" type="curve"/>
			<point x="215.667" y="238.333" type="line" smooth="yes"/>
			<point x="115.333" y="208.667"/>
			<point x="43.6667" y="173"/>
			<point name=".hr03" x="41.6667" y="99.3333" type="curve"/>
			<point x="41.3333" y="95"/>
			<point x="41.3333" y="91"/>
			<point x="42" y="87.3333" type="curve"/>
			<point x="44.6667" y="21"/>
			<point x="87" y="-9"/>
			<point x="162.333" y="-10" type="curve"/>
			<point x="165.667" y="-10"/>
			<point x="169.333" y="-10"/>
			<point x="172.667" y="-9.33333" type="curve"/>
			<point x="202.333" y="-6.66667"/>
			<point x="241.667" y="12"/>
			<point x="276.333" y="38" type="curve"/>
			<point x="281.333" y="41"/>
			<point x="285.333" y="45"/>
			<point x="289.667" y="48" type="curve"/>
			<point x="294.333" y="48.6667" type="line"/>
			<point x="300.333" y="13.3333"/>
			<point x="321.333" y="-6"/>
			<point x="359.667" y="-8.66667" type="curve"/>
			<point x="362.333" y="-9"/>
			<point x="365" y="-9.33333"/>
			<point x="368" y="-9.66667" type="curve"/>
			<point x="317.333" y="-47.3333"/>
			<point x="273.333" y="-92.3333"/>
			<point x="273.333" y="-139.333" type="curve" smooth="yes"/>
			<point x="273.333" y="-192.333"/>
			<point x="311.667" y="-220"/>
			<point x="359.667" y="-221" type="curve"/>
			<point x="363.667" y="-221.333"/>
			<point x="367" y="-221.333"/>
			<point x="371.333" y="-221.333" type="curve"/>
			<point x="409.667" y="-218.667"/>
			<point x="452.333" y="-200"/>
		</contour>
		<contour>
			<point x="291" y="223" type="line"/>
			<point name=".hr04" x="291" y="110.333" type="line"/>
			<point x="291" y="91" type="line"/>
			<point x="288.333" y="84.6667"/>
			<point x="283.667" y="79.6667"/>
			<point x="278.333" y="75.6667" type="curve" smooth="yes"/>
			<point x="255.667" y="58.6667"/>
			<point x="231" y="43.6667"/>
			<point x="211.667" y="43.6667" type="curve" smooth="yes"/>
			<point x="166.333" y="43.6667"/>
			<point x="149" y="76.3333"/>
			<point x="149" y="107.333" type="curve" smooth="yes"/>
			<point x="149" y="147"/>
			<point x="158" y="183"/>
			<point name=".hr05" x="230" y="204.667" type="curve" smooth="yes"/>
		</contour>
	</outline>
	<anchor name="m.uni0302" x="209" y="645"/>
	<anchor name="m.uni0316_2" x="146" y="-108"/>
</glyph>
<glyph name="Dcroat" format="2">
	<unicode hex="0110"/>
	<advance width="723"/>
	<outline>
		<contour>
			<point x="173" y="0" type="curve" smooth="yes"/>
			<point x="212" y="0"/>
			<point x="280.667" y="-2"/>
			<point x="341.667" y="-2" type="curve" smooth="yes"/>
			<point x="426.667" y="-2"/>
			<point x="523.667" y="19.3333"/>
			<point x="593.333" y="81" type="curve" smooth="yes"/>
			<point x="642.667" y="125"/>
			<point x="676.667" y="204.667"/>
			<point x="676.667" y="308.667" type="curve" smooth="yes"/>
			<point x="676.667" y="494"/>
			<point x="545.667" y="646.333"/>
			<point x="317.667" y="646.333" type="curve" smooth="yes"/>
			<point x="264.667" y="646.333"/>
			<point x="222" y="645.333"/>
			<point x="183.333" y="645" type="curve"/>
			<point x="176.333" y="645"/>
			<point x="168.667" y="645"/>
			<point x="160.667" y="645" type="curve" smooth="yes"/>
			<point x="116" y="645"/>
			<point x="40.3333" y="646.667"/>
			<point x="27" y="647" type="curve"/>
			<point x="18.3333" y="641"/>
			<point x="18.3333" y="619.333"/>
			<point x="27" y="613.333" type="curve"/>
			<point x="87" y="610.333"/>
			<point x="111.333" y="606"/>
			<point x="111.333" y="523" type="curve" smooth="yes"/>
			<point x="111.333" y="327" type="line"/>
			<point x="83.6667" y="327.667"/>
			<point x="55.6667" y="328.333"/>
			<point x="30" y="329" type="curve"/>
			<point x="24.6667" y="321"/>
			<point x="20.3333" y="308.667"/>
			<point x="18.3333" y="298" type="curve"/>
			<point x="17.6667" y="292.333"/>
			<point x="18" y="287"/>
			<point x="20.3333" y="282.333" type="curve"/>
			<point x="49" y="283.667"/>
			<point x="80" y="284.333"/>
			<point x="111.333" y="284.333" type="curve"/>
			<point x="111.333" y="122" type="line" smooth="yes"/>
			<point x="111.333" y="39"/>
			<point x="87" y="34.6667"/>
			<point x="27" y="31.6667" type="curve"/>
			<point x="18.3333" y="25.6667"/>
			<point x="18.3333" y="4"/>
			<point x="27" y="-2" type="curve"/>
			<point x="40" y="-1.66667"/>
			<point x="133.667" y="0"/>
		</contour>
		<contour>
			<point x="233" y="107.333" type="curve" smooth="yes"/>
			<point x="233" y="284.333" type="line"/>
			<point x="267.333" y="284.333"/>
			<point x="301.333" y="283.667"/>
			<point x="333" y="282.333" type="curve"/>
			<point x="339" y="294.333"/>
			<point x="345.333" y="310.333"/>
			<point x="347.333" y="324.667" type="curve"/>
			<point x="343.333" y="326.333"/>
			<point x="337.333" y="328"/>
			<point x="329.667" y="328.333" type="curve"/>
			<point x="298.667" y="327.667"/>
			<point x="266.667" y="327"/>
			<point x="233" y="327" type="curve"/>
			<point x="233" y="530.667" type="line" smooth="yes"/>
			<point x="233" y="541.333"/>
			<point x="233.667" y="551.333"/>
			<point x="235" y="560" type="curve" smooth="yes"/>
			<point x="240.333" y="593.667"/>
			<point x="266.667" y="607"/>
			<point x="302.333" y="607" type="curve" smooth="yes"/>
			<point x="505.667" y="607"/>
			<point x="544" y="436"/>
			<point x="544" y="284" type="curve" smooth="yes"/>
			<point x="544" y="95.3333"/>
			<point x="431" y="37.3333"/>
			<point x="333.333" y="37.3333" type="curve" smooth="yes"/>
			<point x="254" y="37.3333"/>
			<point x="233" y="52"/>
		</contour>
	</outline>
</glyph>
<glyph name="Eogonek" format="2">
	<unicode hex="0118"/>
	<advance width="592"/>
	<outline>
		<contour>
			<point x="497.333" y="-163" type="curve"/>
			<point x="492.667" y="-155.333"/>
			<point x="487.333" y="-149.333"/>
			<point x="481" y="-144" type="curve"/>
			<point x="466.333" y="-158.667"/>
			<point x="449.667" y="-167.333"/>
			<point x="430.667" y="-168" type="curve"/>
			<point x="425" y="-168.667"/>
			<point x="419.333" y="-168.333"/>
			<point x="415" y="-168" type="curve"/>
			<point x="396" y="-165.667"/>
			<point x="381.333" y="-153.333"/>
			<point x="381.333" y="-125" type="curve" smooth="yes"/>
			<point x="381.333" y="-71"/>
			<point x="419.667" y="-11.6667"/>
			<point x="471" y="-1.66667" type="curve" smooth="yes"/>
			<point x="472.667" y="-1.33333"/>
			<point x="474.667" y="-1.33333"/>
			<point x="476.667" y="-1.33333" type="curve" smooth="yes"/>
			<point x="501.333" y="-1.33333"/>
			<point x="522.667" y="-2"/>
			<point x="522.667" y="-2" type="curve"/>
			<point x="525.667" y="-2" type="line"/>
			<point x="539.667" y="48"/>
			<point x="548" y="114"/>
			<point x="556" y="165" type="curve"/>
			<point x="546" y="171"/>
			<point x="527.333" y="173"/>
			<point x="514.333" y="170" type="curve"/>
			<point x="494.333" y="98"/>
			<point x="452.667" y="41"/>
			<point x="376.667" y="41" type="curve" smooth="yes"/>
			<point x="275.667" y="41" type="line"/>
			<point x="270.667" y="41" type="line" smooth="yes"/>
			<point x="244" y="41"/>
			<point x="226.333" y="59"/>
			<point x="225" y="88" type="curve" smooth="yes"/>
			<point x="224.667" y="93"/>
			<point x="224.667" y="98.3333"/>
			<point x="224.667" y="104" type="curve" smooth="yes"/>
			<point x="224.667" y="320.333" type="line"/>
			<point x="291" y="320.333" type="line" smooth="yes"/>
			<point x="300" y="320.333"/>
			<point x="309" y="320.333"/>
			<point x="317.333" y="320" type="curve" smooth="yes"/>
			<point x="383.667" y="318.667"/>
			<point x="397" y="298.333"/>
			<point x="400" y="255" type="curve"/>
			<point x="406" y="249"/>
			<point x="433.667" y="249"/>
			<point x="439.667" y="255" type="curve"/>
			<point x="438.667" y="287"/>
			<point x="437.667" y="309"/>
			<point x="437.667" y="343" type="curve" smooth="yes"/>
			<point x="437.667" y="375"/>
			<point x="438.667" y="401"/>
			<point x="439.667" y="429" type="curve"/>
			<point x="433.667" y="435"/>
			<point x="406" y="435"/>
			<point x="400" y="429" type="curve"/>
			<point x="397" y="376"/>
			<point x="382.333" y="364.667"/>
			<point x="317.333" y="364" type="curve"/>
			<point x="312.333" y="363.667"/>
			<point x="306" y="363.667"/>
			<point x="300.333" y="363.667" type="curve" smooth="yes"/>
			<point x="224.667" y="363.667" type="line"/>
			<point x="224.667" y="549.667" type="line" smooth="yes"/>
			<point x="224.667" y="580.333"/>
			<point x="240" y="603.667"/>
			<point x="274" y="603.667" type="curve" smooth="yes"/>
			<point x="346.333" y="603.667" type="line"/>
			<point x="355.667" y="603.667" type="line" smooth="yes"/>
			<point x="430.667" y="603.667"/>
			<point x="450" y="565"/>
			<point x="472" y="496" type="curve"/>
			<point x="484" y="494"/>
			<point x="501.667" y="496"/>
			<point x="511.667" y="501" type="curve"/>
			<point x="506.667" y="542"/>
			<point x="498.333" y="638"/>
			<point x="496.333" y="646" type="curve"/>
			<point x="496.333" y="648"/>
			<point x="495.333" y="649"/>
			<point x="492.333" y="649" type="curve"/>
			<point x="478.333" y="646.667"/>
			<point x="470.667" y="645.667"/>
			<point x="452.333" y="645.333" type="curve" smooth="yes"/>
			<point x="443.333" y="645"/>
			<point x="433.333" y="645"/>
			<point x="422.667" y="645" type="curve" smooth="yes"/>
			<point x="167" y="645" type="line"/>
			<point x="154.333" y="645" type="line" smooth="yes"/>
			<point x="125.667" y="645"/>
			<point x="56" y="646"/>
			<point x="16" y="647" type="curve"/>
			<point x="10" y="641"/>
			<point x="10" y="619.333"/>
			<point x="16" y="613.333" type="curve"/>
			<point x="86" y="610.333"/>
			<point x="103" y="605.333"/>
			<point x="103" y="522.333" type="curve" smooth="yes"/>
			<point x="103" y="127" type="line" smooth="yes"/>
			<point x="103" y="120"/>
			<point x="103" y="113"/>
			<point x="102.333" y="106.667" type="curve"/>
			<point x="100.333" y="38.3333"/>
			<point x="81.3333" y="34.6667"/>
			<point x="16" y="31.6667" type="curve"/>
			<point x="10" y="25.6667"/>
			<point x="10" y="4"/>
			<point x="16" y="-2" type="curve"/>
			<point x="54.3333" y="-1"/>
			<point name=".hr01" x="125" y="0"/>
			<point x="155.333" y="0" type="curve" smooth="yes"/>
			<point x="167.667" y="0" type="line"/>
			<point x="376.333" y="0" type="line"/>
			<point x="397.333" y="0" type="line"/>
			<point x="342.667" y="-29.6667"/>
			<point x="299.333" y="-87"/>
			<point x="299.333" y="-132.667" type="curve" smooth="yes"/>
			<point x="299.333" y="-167.333"/>
			<point x="312.667" y="-189.667"/>
			<point x="332" y="-203.667" type="curve" smooth="yes"/>
			<point x="344.667" y="-212.667"/>
			<point x="360" y="-219.333"/>
			<point x="377.667" y="-220.333" type="curve" smooth="yes"/>
			<point x="387.333" y="-221"/>
			<point x="397.667" y="-220.667"/>
			<point x="408" y="-218.667" type="curve"/>
			<point x="441.667" y="-214"/>
			<point x="475" y="-196"/>
		</contour>
	</outline>
	<anchor name="m.uni0302" x="273" y="850"/>
	<anchor name="m.uni0316_2" x="279" y="-110"/>
	<anchor name="m.uni031A_3" x="519" y="732"/>
</glyph>
<glyph name="uni0122" format="2">
	<unicode hex="0122"/>
	<advance width="716"/>
	<outline>
		<contour>
			<point x="389" y="658" type="curve" smooth="yes"/>
			<point x="296" y="658"/>
			<point x="208.333" y="626.333"/>
			<point x="140.667" y="565" type="curve" smooth="yes"/>
			<point x="74.6667" y="505"/>
			<point x="34.3333" y="415.667"/>
			<point x="34.3333" y="307" type="curve" smooth="yes"/>
			<point x="34.3333" y="214.667"/>
			<point x="70.3333" y="124.333"/>
			<point x="137.667" y="66.3333" type="curve" smooth="yes"/>
			<point x="194.333" y="17"/>
			<point x="266.667" y="-7.33333"/>
			<point x="358" y="-10" type="curve"/>
			<point x="366" y="-10"/>
			<point x="374" y="-10"/>
			<point x="381.667" y="-10" type="curve"/>
			<point x="492" y="-9"/>
			<point x="592.667" y="22.3333"/>
			<point x="656.333" y="76.3333" type="curve"/>
			<point x="646" y="85.3333"/>
			<point x="641" y="93.3333"/>
			<point x="641" y="104.333" type="curve" smooth="yes"/>
			<point x="641" y="221" type="line" smooth="yes"/>
			<point x="641" y="256"/>
			<point x="656.667" y="266"/>
			<point x="685" y="269" type="curve"/>
			<point x="691" y="275"/>
			<point x="691" y="299.667"/>
			<point x="685" y="305.667" type="curve"/>
			<point x="661.667" y="304.667"/>
			<point x="628.667" y="303.667"/>
			<point x="593.333" y="303.667" type="curve" smooth="yes"/>
			<point x="587" y="303.667"/>
			<point x="580.333" y="303.667"/>
			<point x="574" y="303.667" type="curve" smooth="yes"/>
			<point x="539" y="303.667"/>
			<point x="482.333" y="304.667"/>
			<point x="440" y="305.667" type="curve"/>
			<point x="434" y="299.667"/>
			<point x="434" y="275"/>
			<point x="440" y="269" type="curve"/>
			<point x="493" y="265"/>
			<point x="519.333" y="261"/>
			<point x="519.333" y="221" type="curve" smooth="yes"/>
			<point x="519.333" y="70.6667" type="line"/>
			<point x="488" y="40"/>
			<point x="453.667" y="30.6667"/>
			<point x="403.333" y="30" type="curve"/>
			<point x="401" y="30"/>
			<point x="398.667" y="30"/>
			<point x="396.333" y="30" type="curve" smooth="yes"/>
			<point x="231" y="30"/>
			<point x="167" y="195"/>
			<point x="167" y="327" type="curve" smooth="yes"/>
			<point x="167" y="416.333"/>
			<point x="187" y="495"/>
			<point x="228.667" y="546.333" type="curve" smooth="yes"/>
			<point x="268.333" y="596"/>
			<point x="322.333" y="618"/>
			<point x="375" y="618" type="curve" smooth="yes"/>
			<point x="510" y="618"/>
			<point x="567.667" y="539"/>
			<point x="593" y="453" type="curve"/>
			<point x="607.333" y="451.333"/>
			<point x="621.667" y="453.333"/>
			<point x="633.333" y="459" type="curve"/>
			<point x="626.667" y="501"/>
			<point x="621.667" y="547.667"/>
			<point x="611.667" y="619.667" type="curve"/>
			<point x="557" y="623"/>
			<point x="509.333" y="658"/>
		</contour>
		<contour>
			<point x="372.333" y="-47.6667" type="curve" smooth="yes"/>
			<point x="348.333" y="-47.6667"/>
			<point x="323.333" y="-66.6667"/>
			<point x="322" y="-84.6667" type="curve" smooth="yes"/>
			<point x="321.667" y="-88.3333"/>
			<point x="321.667" y="-91"/>
			<point x="322.333" y="-94" type="curve"/>
			<point x="323.667" y="-114.333"/>
			<point x="337" y="-125.667"/>
			<point x="355" y="-129.667" type="curve"/>
			<point x="357.333" y="-130"/>
			<point x="359.667" y="-131"/>
			<point x="361.667" y="-131" type="curve"/>
			<point x="373.333" y="-133"/>
			<point x="386" y="-136.667"/>
			<point x="387" y="-151.333" type="curve"/>
			<point x="387.333" y="-152.333"/>
			<point x="387.333" y="-153.333"/>
			<point x="387.333" y="-154.333" type="curve"/>
			<point x="387.333" y="-172.333"/>
			<point x="362" y="-196.333"/>
			<point x="319" y="-207.333" type="curve"/>
			<point x="316.333" y="-218.333"/>
			<point x="317" y="-228"/>
			<point x="325.667" y="-234" type="curve"/>
			<point x="388" y="-223.667"/>
			<point x="437.667" y="-189"/>
			<point x="441" y="-133.667" type="curve"/>
			<point x="441" y="-131"/>
			<point x="441" y="-128"/>
			<point x="441" y="-124.667" type="curve"/>
			<point x="440" y="-67.3333"/>
			<point x="405.333" y="-47.6667"/>
		</contour>
	</outline>
</glyph>
<glyph name="uni0136" format="2">
	<unicode hex="0136"/>
	<advance width="703"/>
	<outline>
		<contour>
			<point x="135.667" y="389.333" type="curve" smooth="yes"/>
			<point x="135.667" y="184.333" type="line"/>
			<point x="147" y="128.667"/>
			<point x="138" y="122.333"/>
			<point x="108" y="111.667" type="curve"/>
			<point x="109.027" y="97.9636"/>
			<point x="145.973" y="36.7031"/>
			<point x="160.333" y="23" type="curve"/>
			<point x="193.667" y="15"/>
			<point x="247.667" y="6.66667"/>
			<point x="275" y="1.33333" type="curve"/>
			<point x="301.667" y="0.333333"/>
			<point x="350" y="-1.33333"/>
			<point x="378" y="-2" type="curve"/>
			<point x="391.333" y="2.33333"/>
			<point x="395.667" y="17.3333"/>
			<point x="396" y="21.3333" type="curve"/>
			<point x="370.667" y="23.3333"/>
			<point x="363.333" y="25.6667"/>
			<point name=".hr01" x="374.333" y="80.6667" type="curve"/>
			<point x="376.333" y="98.2892"/>
			<point x="376.333" y="204.711"/>
			<point x="374.333" y="222.333" type="curve"/>
			<point x="384.667" y="218.667"/>
			<point x="385.333" y="210.333"/>
			<point x="388.333" y="205" type="curve"/>
			<point x="416" y="160.333" type="line"/>
			<point x="426.667" y="146"/>
			<point x="434.333" y="130"/>
			<point x="435.667" y="122" type="curve"/>
			<point x="435.667" y="122.333"/>
			<point x="436.667" y="122.667"/>
			<point x="450.667" y="134.333" type="curve"/>
			<point x="468.762" y="139.892"/>
			<point x="541.199" y="178.672"/>
			<point x="568.333" y="186" type="curve"/>
			<point x="609.667" y="202.333"/>
			<point name=".hr02" x="649.667" y="203"/>
			<point x="689" y="203.333" type="curve"/>
			<point x="695" y="209.333"/>
			<point x="695" y="231"/>
			<point x="689" y="237" type="curve"/>
			<point x="658.667" y="239.333"/>
			<point x="633.333" y="244.333"/>
			<point x="605.333" y="264.333" type="curve"/>
			<point x="569.102" y="292.596"/>
			<point x="457.907" y="409.06"/>
			<point x="421.667" y="437.667" type="curve"/>
			<point x="408.333" y="449"/>
			<point x="399.667" y="453.333"/>
			<point x="401.667" y="456.667" type="curve"/>
			<point x="413.667" y="460.333"/>
			<point x="425.667" y="467"/>
			<point x="419" y="458.667" type="curve"/>
			<point x="436.667" y="464.667" type="line"/>
			<point x="469" y="491.667"/>
			<point x="498.667" y="520"/>
			<point name=".hr03" x="526.333" y="524.333" type="curve"/>
			<point x="530.333" y="535.155"/>
			<point x="530.333" y="594.845"/>
			<point x="526.333" y="605.667" type="curve"/>
			<point x="509.667" y="632.667"/>
			<point x="492" y="633.667"/>
			<point x="492" y="634.667" type="curve"/>
			<point x="467.333" y="636.667"/>
			<point x="437.333" y="644.333"/>
			<point x="410" y="647" type="curve"/>
			<point x="390.667" y="642.667"/>
			<point x="375" y="627.667"/>
			<point x="366.667" y="623.667" type="curve"/>
			<point x="393.333" y="619.667"/>
			<point x="375.333" y="599.333"/>
			<point x="327" y="565.667" type="curve"/>
			<point x="304.333" y="542.333"/>
			<point x="253.667" y="493.333"/>
			<point x="255.667" y="491.333" type="curve"/>
			<point x="235.667" y="451.667"/>
			<point x="222.667" y="437.333"/>
			<point x="200.667" y="402.333" type="curve"/>
			<point x="200.667" y="389.333" type="line"/>
			<point x="200.667" y="417"/>
			<point x="213.667" y="418"/>
			<point x="227" y="419" type="curve"/>
			<point x="231.667" y="421"/>
			<point x="231.667" y="428.667"/>
			<point x="227" y="430.667" type="curve"/>
			<point x="215.333" y="430.333"/>
			<point x="182.667" y="430"/>
			<point x="169" y="430" type="curve" smooth="yes"/>
			<point x="155" y="430"/>
			<point x="121" y="430.333"/>
			<point x="109.333" y="430.667" type="curve"/>
			<point x="104.667" y="428.667"/>
			<point x="104.667" y="421"/>
			<point x="109.333" y="419" type="curve"/>
			<point x="122.667" y="418"/>
			<point x="135.667" y="417"/>
		</contour>
		<contour>
			<point x="364.667" y="-47.6667" type="curve" smooth="yes"/>
			<point x="339.667" y="-47.6667"/>
			<point x="314" y="-68"/>
			<point x="314" y="-87.3333" type="curve" smooth="yes"/>
			<point x="314" y="-113"/>
			<point x="329.667" y="-126"/>
			<point x="350" y="-130.333" type="curve"/>
			<point x="361.333" y="-132.333"/>
			<point x="379.667" y="-134.333"/>
			<point name=".hr04" x="379.667" y="-154.333" type="curve" smooth="yes"/>
			<point x="379.667" y="-172.333"/>
			<point x="354.333" y="-196.333"/>
			<point x="311.333" y="-207.333" type="curve"/>
			<point x="308.667" y="-218.333"/>
			<point x="309.333" y="-228"/>
			<point x="318" y="-234" type="curve"/>
			<point x="382.333" y="-223"/>
			<point x="433.333" y="-186.333"/>
			<point x="433.333" y="-128.333" type="curve" smooth="yes"/>
			<point x="433.333" y="-69"/>
			<point x="398.667" y="-47.6667"/>
		</contour>
	</outline>
</glyph>
<glyph name="uni0137" format="2">
	<unicode hex="0137"/>
	<advance width="579"/>
	<outline>
		<contour>
			<point x="95.3333" y="125.333" type="line" smooth="yes"/>
			<point x="95.3333" y="42.3333"/>
			<point x="81" y="35"/>
			<point x="21.6667" y="31.6667" type="curve"/>
			<point x="15.6667" y="25.6667"/>
			<point x="15.6667" y="4"/>
			<point x="21.6667" y="-2" type="curve"/>
			<point x="58" y="-1"/>
			<point x="96.6667" y="0"/>
			<point x="142" y="0" type="curve" smooth="yes"/>
			<point x="156.333" y="0" type="line" smooth="yes"/>
			<point x="195.667" y="0"/>
			<point x="234.333" y="-1"/>
			<point x="257" y="-2" type="curve"/>
			<point x="263" y="4"/>
			<point x="263" y="25.6667"/>
			<point x="257" y="31.6667" type="curve"/>
			<point x="223.333" y="35.6667"/>
			<point x="208.333" y="42.3333"/>
			<point x="208.333" y="125.333" type="curve" smooth="yes"/>
			<point x="208.333" y="209" type="line"/>
			<point x="220.667" y="208.667"/>
			<point x="232" y="208.333"/>
			<point x="241.333" y="206.667" type="curve"/>
			<point x="257" y="202.667"/>
			<point x="270.667" y="196.333"/>
			<point x="279.333" y="183.667" type="curve" smooth="yes"/>
			<point x="302.667" y="150"/>
			<point x="329.667" y="112"/>
			<point x="349" y="76.3333" type="curve" smooth="yes"/>
			<point x="364.667" y="48.3333"/>
			<point x="370.667" y="36.3333"/>
			<point x="372.333" y="22.3333" type="curve"/>
			<point x="373.333" y="18"/>
			<point x="373.667" y="13.3333"/>
			<point x="373.667" y="9.66667" type="curve" smooth="yes"/>
			<point x="373.667" y="6.66667"/>
			<point x="373.667" y="2.66667"/>
			<point x="374" y="-0.333333" type="curve"/>
			<point x="375.333" y="-1.66667" type="line"/>
			<point x="375.667" y="-2"/>
			<point x="376.667" y="-2"/>
			<point x="378.333" y="-2" type="curve"/>
			<point x="389" y="-1.33333"/>
			<point x="415.667" y="-0.333333"/>
			<point x="438" y="-0.333333" type="curve"/>
			<point x="450" y="0"/>
			<point x="463.667" y="0"/>
			<point x="477" y="0" type="curve"/>
			<point x="509.333" y="-0.666667"/>
			<point x="543" y="-1"/>
			<point x="567" y="-2" type="curve"/>
			<point x="573" y="4"/>
			<point x="573" y="25.6667"/>
			<point x="567" y="31.6667" type="curve"/>
			<point x="529.667" y="35.6667"/>
			<point x="506.667" y="35"/>
			<point x="477.667" y="76.3333" type="curve" smooth="yes"/>
			<point x="356.333" y="245.667" type="line"/>
			<point x="355" y="247.333"/>
			<point x="354" y="248.667"/>
			<point x="354" y="250.333" type="curve"/>
			<point x="350.667" y="256.333"/>
			<point x="349.333" y="262.333"/>
			<point x="353.333" y="267" type="curve"/>
			<point x="410" y="328" type="line" smooth="yes"/>
			<point x="415.333" y="334"/>
			<point x="421.333" y="340"/>
			<point x="426.667" y="345.333" type="curve"/>
			<point x="454" y="375.333"/>
			<point x="485.667" y="394.667"/>
			<point x="541" y="400.667" type="curve"/>
			<point x="547" y="406.667"/>
			<point x="547" y="428.333"/>
			<point x="541" y="434.333" type="curve"/>
			<point x="518.667" y="433.333"/>
			<point x="467.333" y="432.333"/>
			<point x="438" y="432.333" type="curve" smooth="yes"/>
			<point x="400.667" y="432.333"/>
			<point x="357" y="433.333"/>
			<point x="324.667" y="434.333" type="curve"/>
			<point x="318.667" y="428.333"/>
			<point x="318.667" y="406.667"/>
			<point x="324.667" y="400.667" type="curve"/>
			<point x="376.667" y="397"/>
			<point x="383.667" y="382"/>
			<point x="361" y="350.333" type="curve" smooth="yes"/>
			<point x="358.667" y="347"/>
			<point x="356" y="343.667"/>
			<point x="353.667" y="340.333" type="curve"/>
			<point x="336" y="317.333"/>
			<point x="317" y="296.667"/>
			<point x="299.333" y="280.667" type="curve" smooth="yes"/>
			<point x="292.333" y="274.333"/>
			<point x="282" y="267.667"/>
			<point x="269.667" y="262.333" type="curve"/>
			<point x="250.333" y="253"/>
			<point x="226" y="245"/>
			<point x="208.333" y="244" type="curve"/>
			<point x="208.333" y="583" type="line" smooth="yes"/>
			<point x="208.333" y="648"/>
			<point x="211.667" y="686"/>
			<point x="211.667" y="686" type="curve"/>
			<point x="211.667" y="694.333"/>
			<point x="205.667" y="698"/>
			<point x="196.667" y="698" type="curve"/>
			<point x="163.667" y="686.667"/>
			<point x="85.3333" y="674.667"/>
			<point x="24.6667" y="671.667" type="curve"/>
			<point x="22" y="661"/>
			<point x="23.3333" y="648.333"/>
			<point x="28.6667" y="640.333" type="curve"/>
			<point x="34.3333" y="639.667"/>
			<point x="39.3333" y="639.667"/>
			<point x="44.3333" y="639" type="curve"/>
			<point x="89" y="635.333"/>
			<point x="95.3333" y="630"/>
			<point x="95.3333" y="563" type="curve" smooth="yes"/>
		</contour>
		<contour>
			<point x="290" y="-47.6667" type="curve" smooth="yes"/>
			<point x="266" y="-47.6667"/>
			<point x="241" y="-66.6667"/>
			<point x="239.667" y="-84.6667" type="curve" smooth="yes"/>
			<point x="239.333" y="-88.3333"/>
			<point x="239.333" y="-91"/>
			<point x="240" y="-94" type="curve"/>
			<point x="241.333" y="-114.333"/>
			<point x="254.667" y="-125.667"/>
			<point x="272.667" y="-129.667" type="curve"/>
			<point x="275" y="-130"/>
			<point x="277.333" y="-131"/>
			<point x="279.333" y="-131" type="curve"/>
			<point x="291" y="-133"/>
			<point x="303.667" y="-136.667"/>
			<point x="304.667" y="-151.333" type="curve"/>
			<point x="305" y="-152.333"/>
			<point x="305" y="-153.333"/>
			<point x="305" y="-154.333" type="curve"/>
			<point x="305" y="-172.333"/>
			<point x="279.667" y="-196.333"/>
			<point x="236.667" y="-207.333" type="curve"/>
			<point x="234" y="-218.333"/>
			<point x="234.667" y="-228"/>
			<point x="243.333" y="-234" type="curve"/>
			<point x="305.667" y="-223.667"/>
			<point x="355.333" y="-189"/>
			<point x="358.667" y="-133.667" type="curve"/>
			<point x="358.667" y="-131"/>
			<point x="358.667" y="-128"/>
			<point x="358.667" y="-124.667" type="curve"/>
			<point x="357.333" y="-67.3333"/>
			<point x="323" y="-47.6667"/>
		</contour>
	</outline>
</glyph>
<glyph name="kgreenlandic" format="2">
	<unicode hex="0138"/>
	<advance width="575"/>
	<outline>
		<contour>
			<point x="213" y="122" type="curve" smooth="yes"/>
			<point x="213" y="209" type="line"/>
			<point x="225" y="208.667"/>
			<point x="234.667" y="208.333"/>
			<point x="243" y="206" type="curve" smooth="yes"/>
			<point x="255.333" y="202.667"/>
			<point x="265" y="197"/>
			<point x="272.667" y="186.667" type="curve"/>
			<point x="274.667" y="183.667"/>
			<point x="277" y="180.667"/>
			<point x="279" y="177.667" type="curve" smooth="yes"/>
			<point x="301" y="146.333"/>
			<point x="324.667" y="111.667"/>
			<point x="342.667" y="79" type="curve"/>
			<point x="344.667" y="76.3333" type="line"/>
			<point x="358.667" y="50.3333"/>
			<point x="364" y="39.6667"/>
			<point x="366" y="26" type="curve"/>
			<point x="367.667" y="19"/>
			<point x="368.667" y="12.6667"/>
			<point x="369.333" y="7" type="curve" smooth="yes"/>
			<point x="369.667" y="4.66667"/>
			<point x="369.667" y="2"/>
			<point x="369.667" y="-0.333333" type="curve"/>
			<point x="370.667" y="-1.33333"/>
			<point x="371" y="-1.33333"/>
			<point x="372" y="-2" type="curve"/>
			<point x="377.667" y="-1.66667"/>
			<point x="427.333" y="0"/>
			<point x="458" y="0" type="curve" smooth="yes"/>
			<point x="470.667" y="0" type="line" smooth="yes"/>
			<point x="507" y="0"/>
			<point x="552" y="-1.66667"/>
			<point x="562" y="-2" type="curve"/>
			<point x="564" y="-0.666667" type="line"/>
			<point x="565.667" y="7"/>
			<point x="566" y="16.3333"/>
			<point x="565" y="25.3333" type="curve"/>
			<point x="565" y="27.6667"/>
			<point x="564" y="30"/>
			<point x="562.667" y="31" type="curve"/>
			<point x="561" y="31.6667"/>
			<point x="558.333" y="32"/>
			<point x="555.333" y="32" type="curve"/>
			<point x="546.667" y="33"/>
			<point x="538.333" y="34"/>
			<point x="530" y="35" type="curve"/>
			<point x="513" y="38"/>
			<point x="491" y="51"/>
			<point x="473.333" y="76.3333" type="curve" smooth="yes"/>
			<point x="352" y="245.667" type="line"/>
			<point x="349.333" y="250"/>
			<point x="347" y="253.333"/>
			<point x="346.333" y="257.667" type="curve"/>
			<point x="346.333" y="260.333"/>
			<point x="346.333" y="263.667"/>
			<point x="348" y="265.333" type="curve"/>
			<point x="348" y="266"/>
			<point x="348.333" y="266.333"/>
			<point x="349.667" y="267.667" type="curve"/>
			<point x="364.667" y="283.667"/>
			<point x="404" y="325.333"/>
			<point x="428.333" y="352" type="curve"/>
			<point x="452.667" y="377"/>
			<point x="486.667" y="396.333"/>
			<point x="509.333" y="398.667" type="curve" smooth="yes"/>
			<point x="517.333" y="399.333"/>
			<point x="525" y="399.667"/>
			<point x="532.667" y="400.333" type="curve"/>
			<point x="537" y="401"/>
			<point x="539.667" y="401.333"/>
			<point x="541.333" y="402" type="curve"/>
			<point x="543.333" y="404"/>
			<point x="543.667" y="406"/>
			<point x="543.667" y="409.667" type="curve"/>
			<point x="544.667" y="417.333"/>
			<point x="544.333" y="427"/>
			<point x="542.667" y="433" type="curve"/>
			<point x="540.667" y="434.333" type="line"/>
			<point x="528.333" y="434"/>
			<point x="473" y="432.333"/>
			<point x="435" y="432.333" type="curve" smooth="yes"/>
			<point x="400.333" y="432.333"/>
			<point x="335" y="434"/>
			<point x="324.667" y="434.333" type="curve"/>
			<point x="317.667" y="433" type="line"/>
			<point x="316.333" y="427"/>
			<point x="315.667" y="417.333"/>
			<point x="316.667" y="409.667" type="curve"/>
			<point x="316.667" y="406.667"/>
			<point x="318" y="404.667"/>
			<point x="319" y="402.667" type="curve"/>
			<point x="322.667" y="402"/>
			<point x="327.333" y="401"/>
			<point x="332" y="399.667" type="curve"/>
			<point x="346" y="398.333" type="line"/>
			<point x="365.667" y="395"/>
			<point x="375.333" y="375"/>
			<point x="356.667" y="350" type="curve"/>
			<point x="356" y="349.333"/>
			<point x="355.667" y="349"/>
			<point x="355.333" y="348.333" type="curve"/>
			<point x="334.333" y="321.667"/>
			<point x="313" y="297"/>
			<point x="292.667" y="278.667" type="curve"/>
			<point x="287.667" y="273.667"/>
			<point x="280.333" y="269.333"/>
			<point x="271.333" y="264.333" type="curve" smooth="yes"/>
			<point x="253.667" y="254.333"/>
			<point x="232" y="246"/>
			<point x="213" y="244.333" type="curve"/>
			<point x="213" y="321" type="line" smooth="yes"/>
			<point x="213" y="369.667"/>
			<point x="216.667" y="426"/>
			<point x="217" y="429.333" type="curve"/>
			<point x="217" y="432.333"/>
			<point x="216.333" y="434.333"/>
			<point x="215" y="435.667" type="curve"/>
			<point x="213.667" y="439"/>
			<point x="210.667" y="441.333"/>
			<point x="205.333" y="442" type="curve"/>
			<point x="203.333" y="442.667"/>
			<point x="200.667" y="443.333"/>
			<point x="197.333" y="443.333" type="curve"/>
			<point x="169.333" y="432.333"/>
			<point x="102" y="424"/>
			<point x="33" y="415" type="curve"/>
			<point x="31" y="409"/>
			<point x="33" y="390.333"/>
			<point x="35" y="384.333" type="curve"/>
			<point x="90" y="379.333"/>
			<point x="100" y="372"/>
			<point x="100" y="315" type="curve" smooth="yes"/>
			<point x="100" y="122" type="line" smooth="yes"/>
			<point x="100" y="39"/>
			<point x="89" y="36.6667"/>
			<point x="28" y="31.6667" type="curve"/>
			<point x="22" y="25.6667"/>
			<point x="22" y="4"/>
			<point x="28" y="-2" type="curve"/>
			<point x="68" y="-1"/>
			<point x="102.667" y="0"/>
			<point x="148.667" y="0" type="curve" smooth="yes"/>
			<point x="160" y="0" type="line" smooth="yes"/>
			<point x="204.667" y="0"/>
			<point x="236.667" y="-1"/>
			<point x="278.333" y="-2" type="curve"/>
			<point x="284.333" y="4"/>
			<point x="284.333" y="25.6667"/>
			<point x="278.333" y="31.6667" type="curve"/>
			<point x="223.667" y="36"/>
			<point x="213" y="39"/>
		</contour>
	</outline>
	<anchor name="m.uni0302" x="240" y="644"/>
	<anchor name="m.uni0316_2" x="132" y="-108"/>
</glyph>
<glyph name="Lcaron" format="2">
	<unicode hex="013D"/>
	<advance width="561"/>
	<outline>
		<contour>
			<point x="282.333" y="28" type="curve"/>
			<point x="313.333" y="28" type="line"/>
			<point x="308.333" y="28"/>
			<point x="329.667" y="40"/>
			<point x="329.667" y="80" type="curve"/>
			<point x="333" y="137.083"/>
			<point x="336.333" y="344.843"/>
			<point x="338.333" y="403.667" type="curve"/>
			<point x="335" y="460.667"/>
			<point x="350" y="464"/>
			<point x="382.667" y="465.333" type="curve"/>
			<point x="382.667" y="445.333"/>
			<point x="370.333" y="440.333"/>
			<point x="328.333" y="444.333" type="curve"/>
			<point x="268.002" y="443.667"/>
			<point x="235.429" y="443"/>
			<point x="206" y="443" type="curve" smooth="yes"/>
			<point x="166.333" y="443"/>
			<point x="84.3333" y="450.667"/>
			<point x="84.3333" y="467.667" type="curve"/>
			<point x="77.6667" y="483.955"/>
			<point x="77.6667" y="566.712"/>
			<point x="84.3333" y="583" type="curve"/>
			<point x="121" y="608.667"/>
			<point x="145.333" y="607.667"/>
			<point x="168.667" y="553.333" type="curve"/>
			<point x="170.667" y="523.371"/>
			<point x="170.667" y="326.963"/>
			<point name=".hr01" x="168.667" y="297" type="curve"/>
			<point x="153.667" y="241.333"/>
			<point x="119.333" y="238.333"/>
			<point x="70" y="236.333" type="curve"/>
			<point x="51.3333" y="232.333"/>
			<point x="35.6667" y="218"/>
			<point x="27" y="214.333" type="curve"/>
			<point x="25" y="212.333"/>
			<point x="101.667" y="206.667"/>
			<point x="129.667" y="204.667" type="curve"/>
			<point x="188.109" y="203.667"/>
			<point x="265.742" y="202"/>
			<point x="307.333" y="174.333" type="curve"/>
			<point x="326.667" y="158.185"/>
			<point x="387.333" y="39.3333"/>
			<point x="387.333" y="39.3333" type="curve"/>
			<point x="394" y="45"/>
			<point x="395" y="86.6667"/>
			<point x="375.667" y="120.333" type="curve"/>
			<point x="367" y="121.667"/>
			<point x="353" y="116"/>
			<point x="347" y="112.667" type="curve"/>
			<point x="346.667" y="65"/>
			<point name=".hr02" x="341" y="28"/>
		</contour>
		<contour>
			<point x="420" y="698" type="curve" smooth="yes"/>
			<point x="386" y="698"/>
			<point x="374" y="680"/>
			<point x="374" y="664" type="curve" smooth="yes"/>
			<point x="374" y="648"/>
			<point x="379" y="624"/>
			<point x="420" y="624" type="curve" smooth="yes"/>
			<point x="427.333" y="624"/>
			<point x="432" y="616"/>
			<point x="432" y="605" type="curve" smooth="yes"/>
			<point x="432" y="582"/>
			<point x="413" y="545"/>
			<point x="371" y="536" type="curve"/>
			<point x="375.333" y="519" type="line"/>
			<point name=".hr03" x="459.333" y="525"/>
			<point x="480" y="595.667"/>
			<point x="480" y="625" type="curve" smooth="yes"/>
			<point x="480" y="661"/>
			<point x="458" y="698"/>
		</contour>
	</outline>
</glyph>
<glyph name="lcaron" format="2">
	<unicode hex="013E"/>
	<advance width="342"/>
	<outline>
		<contour>
			<point x="98.3333" y="125.333" type="line" smooth="yes"/>
			<point x="98.3333" y="42.3333"/>
			<point x="84" y="34.6667"/>
			<point x="23" y="31.6667" type="curve"/>
			<point x="17" y="25.6667"/>
			<point x="17" y="4"/>
			<point x="23" y="-2" type="curve"/>
			<point x="62.6667" y="-1"/>
			<point x="105" y="0"/>
			<point x="155" y="0" type="curve" smooth="yes"/>
			<point x="205" y="0"/>
			<point x="247" y="-1"/>
			<point x="286.667" y="-2" type="curve"/>
			<point x="292.667" y="4"/>
			<point x="292.667" y="25.6667"/>
			<point x="286.667" y="31.6667" type="curve"/>
			<point x="225.667" y="34.6667"/>
			<point x="211.333" y="42.3333"/>
			<point x="211.333" y="125.333" type="curve" smooth="yes"/>
			<point x="211.333" y="583" type="line" smooth="yes"/>
			<point x="211.333" y="648"/>
			<point x="214.667" y="686"/>
			<point x="214.667" y="686" type="curve"/>
			<point x="214.667" y="694.333"/>
			<point x="208.667" y="698"/>
			<point x="199.667" y="698" type="curve"/>
			<point x="166.667" y="686.667"/>
			<point x="88.3333" y="674.667"/>
			<point x="27.6667" y="671.667" type="curve"/>
			<point x="25" y="661"/>
			<point x="26.3333" y="648.333"/>
			<point x="31.6667" y="640.333" type="curve"/>
			<point x="93" y="635.667"/>
			<point x="98.3333" y="634"/>
			<point x="98.3333" y="563" type="curve" smooth="yes"/>
		</contour>
		<contour>
			<point x="312.333" y="698" type="curve" smooth="yes"/>
			<point x="278.333" y="698"/>
			<point x="266.333" y="680"/>
			<point x="266.333" y="664" type="curve" smooth="yes"/>
			<point x="266.333" y="648"/>
			<point name=".hr01" x="271.333" y="624"/>
			<point x="312.333" y="624" type="curve" smooth="yes"/>
			<point x="319.667" y="624"/>
			<point x="324.333" y="616"/>
			<point x="324.333" y="605" type="curve" smooth="yes"/>
			<point x="324.333" y="582"/>
			<point x="305.333" y="545"/>
			<point x="263.333" y="536" type="curve"/>
			<point x="267.667" y="519" type="line"/>
			<point x="351.667" y="525"/>
			<point x="372.333" y="595.667"/>
			<point x="372.333" y="625" type="curve" smooth="yes"/>
			<point x="372.333" y="661"/>
			<point x="350.333" y="698"/>
		</contour>
	</outline>
</glyph>
<glyph name="Ldot" format="2">
	<unicode hex="013F"/>
	<advance width="561"/>
	<outline>
		<contour>
			<point x="282.333" y="28" type="curve"/>
			<point x="313.333" y="28" type="line"/>
			<point x="308.333" y="28"/>
			<point x="329.667" y="40"/>
			<point x="329.667" y="80" type="curve"/>
			<point x="333" y="137.083"/>
			<point x="336.333" y="344.843"/>
			<point x="338.333" y="403.667" type="curve"/>
			<point x="335" y="460.667"/>
			<point x="350" y="464"/>
			<point x="382.667" y="465.333" type="curve"/>
			<point x="382.667" y="445.333"/>
			<point x="370.333" y="440.333"/>
			<point x="328.333" y="444.333" type="curve"/>
			<point x="268.002" y="443.667"/>
			<point x="235.429" y="443"/>
			<point x="206" y="443" type="curve" smooth="yes"/>
			<point x="166.333" y="443"/>
			<point x="84.3333" y="450.667"/>
			<point x="84.3333" y="467.667" type="curve"/>
			<point x="77.6667" y="483.955"/>
			<point x="77.6667" y="566.712"/>
			<point x="84.3333" y="583" type="curve"/>
			<point x="121" y="608.667"/>
			<point x="145.333" y="607.667"/>
			<point x="168.667" y="553.333" type="curve"/>
			<point x="170.667" y="523.371"/>
			<point x="170.667" y="326.963"/>
			<point name=".hr01" x="168.667" y="297" type="curve"/>
			<point x="153.667" y="241.333"/>
			<point x="119.333" y="238.333"/>
			<point x="70" y="236.333" type="curve"/>
			<point x="51.3333" y="232.333"/>
			<point x="35.6667" y="218"/>
			<point x="27" y="214.333" type="curve"/>
			<point x="25" y="212.333"/>
			<point x="101.667" y="206.667"/>
			<point x="129.667" y="204.667" type="curve"/>
			<point x="188.109" y="203.667"/>
			<point x="265.742" y="202"/>
			<point x="307.333" y="174.333" type="curve"/>
			<point x="326.667" y="158.185"/>
			<point x="387.333" y="39.3333"/>
			<point x="387.333" y="39.3333" type="curve"/>
			<point x="394" y="45"/>
			<point x="395" y="86.6667"/>
			<point x="375.667" y="120.333" type="curve"/>
			<point x="367" y="121.667"/>
			<point x="353" y="116"/>
			<point x="347" y="112.667" type="curve"/>
			<point x="346.667" y="65"/>
			<point name=".hr02" x="341" y="28"/>
		</contour>
		<contour>
			<point x="343.667" y="368.333" type="curve" smooth="yes"/>
			<point x="343.667" y="337"/>
			<point x="367.667" y="307"/>
			<point name=".hr03" x="403.667" y="307" type="curve" smooth="yes"/>
			<point x="443" y="307"/>
			<point x="468.333" y="339"/>
			<point x="468.333" y="365.667" type="curve" smooth="yes"/>
			<point x="468.333" y="395"/>
			<point x="445" y="427"/>
			<point x="407.667" y="427" type="curve" smooth="yes"/>
			<point x="367" y="427"/>
			<point x="343.667" y="397.667"/>
		</contour>
	</outline>
</glyph>
<glyph name="ldot" format="2">
	<unicode hex="0140"/>
	<advance width="354"/>
	<outline>
		<contour>
			<point x="98.3333" y="125.333" type="line" smooth="yes"/>
			<point x="98.3333" y="42.3333"/>
			<point x="84" y="34.6667"/>
			<point x="23" y="31.6667" type="curve"/>
			<point x="17" y="25.6667"/>
			<point x="17" y="4"/>
			<point x="23" y="-2" type="curve"/>
			<point x="62.6667" y="-1"/>
			<point x="105" y="0"/>
			<point x="155" y="0" type="curve" smooth="yes"/>
			<point x="205" y="0"/>
			<point x="247" y="-1"/>
			<point x="286.667" y="-2" type="curve"/>
			<point x="292.667" y="4"/>
			<point x="292.667" y="25.6667"/>
			<point x="286.667" y="31.6667" type="curve"/>
			<point x="225.667" y="34.6667"/>
			<point x="211.333" y="42.3333"/>
			<point x="211.333" y="125.333" type="curve" smooth="yes"/>
			<point x="211.333" y="583" type="line" smooth="yes"/>
			<point x="211.333" y="648"/>
			<point x="214.667" y="686"/>
			<point x="214.667" y="686" type="curve"/>
			<point x="214.667" y="694.333"/>
			<point x="208.667" y="698"/>
			<point x="199.667" y="698" type="curve"/>
			<point x="166.667" y="686.667"/>
			<point x="88.3333" y="674.667"/>
			<point x="27.6667" y="671.667" type="curve"/>
			<point x="25" y="661"/>
			<point x="26.3333" y="648.333"/>
			<point x="31.6667" y="640.333" type="curve"/>
			<point x="93" y="635.667"/>
			<point x="98.3333" y="634"/>
			<point x="98.3333" y="563" type="curve" smooth="yes"/>
		</contour>
		<contour>
			<point x="245.667" y="377.333" type="curve" smooth="yes"/>
			<point x="245.667" y="347.333"/>
			<point x="267.667" y="317.667"/>
			<point x="304.333" y="317.667" type="curve" smooth="yes"/>
			<point x="343.333" y="317.667"/>
			<point x="367.333" y="349"/>
			<point x="367.333" y="374.667" type="curve" smooth="yes"/>
			<point x="367.333" y="403.667"/>
			<point x="344" y="435"/>
			<point x="308.333" y="435" type="curve" smooth="yes"/>
			<point x="268" y="435"/>
			<point x="245.667" y="405.667"/>
		</contour>
	</outline>
</glyph>
<glyph name="uni0145" format="2">
	<unicode hex="0145"/>
	<advance width="726"/>
	<outline>
		<contour>
			<point x="614.667" y="-3.33333" type="curve"/>
			<point x="619.333" y="-3.33333"/>
			<point x="621.667" y="8"/>
			<point x="621" y="25" type="curve" smooth="yes"/>
			<point x="620.333" y="49.6667"/>
			<point x="619" y="81.3333"/>
			<point x="619" y="103.333" type="curve" smooth="yes"/>
			<point x="619" y="512" type="line" smooth="yes"/>
			<point x="619" y="601"/>
			<point x="636" y="606.333"/>
			<point x="706" y="613.333" type="curve"/>
			<point x="712" y="619.333"/>
			<point x="712" y="641"/>
			<point x="706" y="647" type="curve"/>
			<point x="659.667" y="646"/>
			<point x="632.667" y="645"/>
			<point x="596.667" y="645" type="curve" smooth="yes"/>
			<point x="559.667" y="645"/>
			<point x="530.333" y="646"/>
			<point x="482.333" y="647" type="curve"/>
			<point x="476.333" y="641"/>
			<point x="476.333" y="619.333"/>
			<point x="482.333" y="613.333" type="curve"/>
			<point x="552.333" y="606.333"/>
			<point x="569.333" y="603"/>
			<point x="569.333" y="512" type="curve" smooth="yes"/>
			<point x="569.333" y="230.333" type="line"/>
			<point x="569.333" y="215.667" type="line" smooth="yes"/>
			<point x="569.333" y="198"/>
			<point x="565.333" y="192.333"/>
			<point x="557.667" y="195.667" type="curve" smooth="yes"/>
			<point x="554.667" y="197"/>
			<point x="551.333" y="200"/>
			<point x="547.333" y="204.667" type="curve" smooth="yes"/>
			<point x="542.333" y="210.333"/>
			<point x="534.333" y="219.333"/>
			<point x="524.333" y="232.667" type="curve"/>
			<point x="272.667" y="536" type="line"/>
			<point x="182.667" y="645" type="line"/>
			<point x="29" y="647" type="line"/>
			<point x="23" y="641"/>
			<point x="23" y="619.333"/>
			<point x="29" y="613.333" type="curve"/>
			<point x="72" y="610.333"/>
			<point x="102" y="576"/>
			<point x="108" y="550" type="curve"/>
			<point x="108" y="133" type="line" smooth="yes"/>
			<point x="108" y="44"/>
			<point x="91" y="38.6667"/>
			<point x="21" y="31.6667" type="curve"/>
			<point x="15" y="25.6667"/>
			<point x="15" y="4"/>
			<point x="21" y="-2" type="curve"/>
			<point x="68" y="-1"/>
			<point x="95.6667" y="0"/>
			<point x="133" y="0" type="curve" smooth="yes"/>
			<point x="170" y="0"/>
			<point x="197.333" y="-1"/>
			<point x="244.667" y="-2" type="curve"/>
			<point x="250.667" y="4"/>
			<point x="250.667" y="25.6667"/>
			<point x="244.667" y="31.6667" type="curve"/>
			<point x="174.667" y="38.6667"/>
			<point x="157.667" y="42"/>
			<point x="157.667" y="133" type="curve" smooth="yes"/>
			<point x="157.667" y="433" type="line" smooth="yes"/>
			<point x="157.667" y="451"/>
			<point x="159" y="462.667"/>
			<point x="165.667" y="462.667" type="curve" smooth="yes"/>
			<point x="171" y="462.667"/>
			<point x="180" y="454.333"/>
			<point x="193" y="438.333" type="curve" smooth="yes"/>
			<point x="523.667" y="37.3333" type="line"/>
			<point x="535.333" y="22.3333"/>
			<point x="547.667" y="9"/>
			<point x="555.333" y="0.666667" type="curve"/>
			<point x="558" y="-2"/>
			<point x="559.333" y="-3.33333"/>
			<point x="559.333" y="-3.33333" type="curve"/>
			<point x="586.333" y="-8.33333"/>
			<point x="597.333" y="-9.33333"/>
		</contour>
		<contour>
			<point x="355.333" y="-47.6667" type="curve" smooth="yes"/>
			<point x="331.333" y="-47.6667"/>
			<point x="306.333" y="-66.6667"/>
			<point x="305" y="-84.6667" type="curve" smooth="yes"/>
			<point x="304.667" y="-88.3333"/>
			<point x="304.667" y="-91"/>
			<point x="305.333" y="-94" type="curve"/>
			<point x="306.667" y="-114.333"/>
			<point x="320" y="-125.667"/>
			<point x="338" y="-129.667" type="curve"/>
			<point x="340.333" y="-130"/>
			<point x="342.667" y="-131"/>
			<point x="344.667" y="-131" type="curve"/>
			<point x="356.333" y="-133"/>
			<point x="369" y="-136.667"/>
			<point x="370" y="-151.333" type="curve"/>
			<point x="370.333" y="-152.333"/>
			<point x="370.333" y="-153.333"/>
			<point x="370.333" y="-154.333" type="curve"/>
			<point x="370.333" y="-172.333"/>
			<point x="345" y="-196.333"/>
			<point x="302" y="-207.333" type="curve"/>
			<point x="299.333" y="-218.333"/>
			<point x="300" y="-228"/>
			<point x="308.667" y="-234" type="curve"/>
			<point x="371" y="-223.667"/>
			<point x="420.667" y="-189"/>
			<point x="424" y="-133.667" type="curve"/>
			<point x="424" y="-131"/>
			<point x="424" y="-128"/>
			<point x="424" y="-124.667" type="curve"/>
			<point x="423" y="-67.3333"/>
			<point x="388.333" y="-47.6667"/>
		</contour>
	</outline>
</glyph>
<glyph name="napostrophe" format="2">
	<unicode hex="0149"/>
	<advance width="557"/>
	<outline>
		<contour>
			<point x="223.333" y="122" type="curve" smooth="yes"/>
			<point x="223.333" y="291.333" type="line" smooth="yes"/>
			<point x="223.333" y="305"/>
			<point x="226.333" y="315"/>
			<point x="229" y="324.667" type="curve"/>
			<point x="265.667" y="352.667"/>
			<point x="304" y="372.667"/>
			<point x="327" y="374.667" type="curve" smooth="yes"/>
			<point x="336.333" y="375.333"/>
			<point x="345" y="375"/>
			<point x="353.667" y="373" type="curve"/>
			<point x="368.333" y="370.333"/>
			<point x="382.667" y="361.333"/>
			<point x="391.333" y="346.333" type="curve"/>
			<point x="399" y="334"/>
			<point x="402.667" y="317.667"/>
			<point x="403" y="297.667" type="curve" smooth="yes"/>
			<point x="403.333" y="288.667"/>
			<point x="403.333" y="278.667"/>
			<point x="403.333" y="269.333" type="curve" smooth="yes"/>
			<point x="403.333" y="126" type="line" smooth="yes"/>
			<point x="403.333" y="42.6667"/>
			<point x="389.333" y="35.3333"/>
			<point x="344.667" y="31.6667" type="curve"/>
			<point x="339" y="25.6667"/>
			<point x="339" y="4"/>
			<point x="344.667" y="-2" type="curve"/>
			<point x="381.333" y="-1"/>
			<point x="412" y="0"/>
			<point x="455" y="0" type="curve" smooth="yes"/>
			<point x="470.667" y="0" type="line" smooth="yes"/>
			<point x="516" y="0"/>
			<point x="554" y="-1"/>
			<point x="590" y="-2" type="curve"/>
			<point x="595.667" y="4"/>
			<point x="595.667" y="25.6667"/>
			<point x="590" y="31.6667" type="curve"/>
			<point x="530.667" y="35.3333"/>
			<point x="516.333" y="42.6667"/>
			<point x="516.333" y="126" type="curve" smooth="yes"/>
			<point x="516.333" y="270.333" type="line" smooth="yes"/>
			<point x="516.333" y="275.667"/>
			<point x="516.333" y="280"/>
			<point x="516.333" y="285" type="curve"/>
			<point x="516" y="337.667"/>
			<point x="506.333" y="378.333"/>
			<point x="484.667" y="405" type="curve" smooth="yes"/>
			<point x="463.667" y="430.333"/>
			<point x="431.333" y="442.333"/>
			<point x="391" y="442.333" type="curve" smooth="yes"/>
			<point x="350" y="442.333"/>
			<point x="289.333" y="413.333"/>
			<point x="234.333" y="366.667" type="curve"/>
			<point x="229.667" y="362.333"/>
			<point x="224.333" y="359.667"/>
			<point name=".hr01" x="221.667" y="360.667" type="curve"/>
			<point x="219.333" y="391.667"/>
			<point x="216.333" y="421.667"/>
			<point x="215" y="427" type="curve"/>
			<point x="215" y="428"/>
			<point x="214.667" y="428.667"/>
			<point x="214.333" y="429.333" type="curve"/>
			<point x="213" y="436.333"/>
			<point x="210.333" y="440.667"/>
			<point name=".hr02" x="203" y="442" type="curve"/>
			<point x="201" y="442.667"/>
			<point x="198.333" y="443.333"/>
			<point x="195" y="443.333" type="curve"/>
			<point x="161" y="433"/>
			<point x="112.333" y="420.667"/>
			<point x="43.3333" y="411.667" type="curve"/>
			<point x="41.3333" y="405.667"/>
			<point x="43.3333" y="387"/>
			<point x="45.3333" y="381" type="curve"/>
			<point x="100" y="376"/>
			<point x="110.333" y="369"/>
			<point x="110.333" y="311.667" type="curve" smooth="yes"/>
			<point x="110.333" y="122" type="line" smooth="yes"/>
			<point x="110.333" y="39.3333"/>
			<point x="99.6667" y="36.6667"/>
			<point x="39" y="31.6667" type="curve"/>
			<point x="33" y="25.6667"/>
			<point x="33" y="4"/>
			<point x="39" y="-2" type="curve"/>
			<point x="74.3333" y="-1"/>
			<point x="113" y="0"/>
			<point x="156.333" y="0" type="curve" smooth="yes"/>
			<point x="172" y="0" type="line" smooth="yes"/>
			<point x="213.667" y="0"/>
			<point x="241" y="-1"/>
			<point x="278.333" y="-2" type="curve"/>
			<point x="284.333" y="4"/>
			<point x="284.333" y="25.6667"/>
			<point x="278.333" y="31.6667" type="curve"/>
			<point x="233.333" y="36"/>
			<point name=".hr03" x="223.333" y="39.3333"/>
		</contour>
		<contour>
			<point x="72" y="698" type="curve" smooth="yes"/>
			<point x="38" y="698"/>
			<point x="26" y="680"/>
			<point x="26" y="664" type="curve" smooth="yes"/>
			<point x="26" y="648"/>
			<point x="31" y="624"/>
			<point x="72" y="624" type="curve" smooth="yes"/>
			<point x="79.3333" y="624"/>
			<point x="84" y="616"/>
			<point name=".hr04" x="84" y="605" type="curve" smooth="yes"/>
			<point x="84" y="582"/>
			<point x="65" y="545"/>
			<point x="23" y="536" type="curve"/>
			<point x="27.3333" y="519" type="line"/>
			<point x="111.333" y="525"/>
			<point x="132" y="595.667"/>
			<point x="132" y="625" type="curve" smooth="yes"/>
			<point x="132" y="661"/>
			<point x="110" y="698"/>
		</contour>
	</outline>
</glyph>
<glyph name="Eng" format="2">
	<unicode hex="014A"/>
	<advance width="725"/>
	<outline>
		<contour>
			<point x="674.667" y="106.333" type="curve" smooth="yes"/>
			<point x="674.667" y="329" type="line" smooth="yes"/>
			<point x="674.667" y="459.667"/>
			<point x="653.333" y="541.333"/>
			<point x="613" y="590.667" type="curve"/>
			<point x="610.333" y="594.333"/>
			<point x="606.667" y="597.333"/>
			<point x="604" y="601" type="curve"/>
			<point x="567.667" y="637.333"/>
			<point name=".hr01" x="513.333" y="658"/>
			<point x="455.333" y="658" type="curve" smooth="yes"/>
			<point x="375.667" y="658"/>
			<point x="295.333" y="602.333"/>
			<point x="240" y="525.667" type="curve"/>
			<point x="239" y="524"/>
			<point x="237.667" y="522.667"/>
			<point x="236.667" y="521" type="curve"/>
			<point x="236.667" y="521"/>
			<point x="230.667" y="514"/>
			<point x="227.667" y="514" type="curve"/>
			<point x="227.667" y="532" type="line" smooth="yes"/>
			<point x="227.667" y="597"/>
			<point name=".hr02" x="231.667" y="637"/>
			<point x="231.667" y="637" type="curve"/>
			<point x="231.667" y="644"/>
			<point x="227.667" y="647"/>
			<point x="218.667" y="647" type="curve"/>
			<point x="210.667" y="646"/>
			<point x="190.333" y="645.333"/>
			<point x="179" y="645" type="curve"/>
			<point x="174.333" y="645"/>
			<point x="169.333" y="645"/>
			<point x="164" y="645" type="curve" smooth="yes"/>
			<point x="115.333" y="645"/>
			<point x="65.6667" y="646"/>
			<point x="19" y="647" type="curve"/>
			<point x="15.6667" y="643.667"/>
			<point x="14" y="635.333"/>
			<point x="14.3333" y="628" type="curve" smooth="yes"/>
			<point x="14.6667" y="622"/>
			<point x="16.3333" y="616"/>
			<point x="19" y="613.333" type="curve"/>
			<point x="89" y="610.333"/>
			<point x="106" y="606"/>
			<point x="106" y="523" type="curve" smooth="yes"/>
			<point x="106" y="127" type="line"/>
			<point x="106" y="122" type="line" smooth="yes"/>
			<point x="106" y="39"/>
			<point x="89" y="34.6667"/>
			<point x="19" y="31.6667" type="curve"/>
			<point x="16.3333" y="29"/>
			<point x="14.6667" y="23"/>
			<point x="14.3333" y="17" type="curve" smooth="yes"/>
			<point x="14" y="9.66667"/>
			<point x="15.6667" y="1.33333"/>
			<point x="19" y="-2" type="curve"/>
			<point x="62" y="-1"/>
			<point x="108" y="0"/>
			<point x="156.333" y="0" type="curve" smooth="yes"/>
			<point x="165" y="0"/>
			<point x="173.333" y="0"/>
			<point x="181" y="0" type="curve" smooth="yes"/>
			<point x="228" y="0"/>
			<point x="266.667" y="-1"/>
			<point x="314.667" y="-2" type="curve"/>
			<point x="318" y="1.33333"/>
			<point x="319.667" y="9.66667"/>
			<point x="319.333" y="17" type="curve" smooth="yes"/>
			<point x="319" y="23"/>
			<point x="317.333" y="29"/>
			<point x="314.667" y="31.6667" type="curve"/>
			<point x="244.667" y="34.6667"/>
			<point x="227.667" y="39"/>
			<point x="227.667" y="122" type="curve" smooth="yes"/>
			<point x="227.667" y="439.667" type="line"/>
			<point x="230.667" y="456.333"/>
			<point x="238.667" y="469.333"/>
			<point x="245.667" y="477.333" type="curve" smooth="yes"/>
			<point x="298.667" y="540.333"/>
			<point name=".hr03" x="362.667" y="595.333"/>
			<point x="412.667" y="595.333" type="curve" smooth="yes"/>
			<point x="456.667" y="595.333"/>
			<point x="479.333" y="582.667"/>
			<point x="505.667" y="547.333" type="curve"/>
			<point x="507" y="546"/>
			<point x="508.333" y="544.667"/>
			<point x="509.333" y="543" type="curve"/>
			<point x="535.333" y="506"/>
			<point x="551.333" y="440"/>
			<point x="551.333" y="339" type="curve" smooth="yes"/>
			<point x="551.333" y="86" type="line"/>
			<point x="551.333" y="81" type="line"/>
			<point x="550.667" y="-95.3333"/>
			<point x="532" y="-126.333"/>
			<point x="492.333" y="-127.667" type="curve"/>
			<point x="489" y="-127.667"/>
			<point x="485" y="-127"/>
			<point x="481.667" y="-126.333" type="curve"/>
			<point x="468.333" y="-124.333"/>
			<point x="455.667" y="-116.333"/>
			<point x="448" y="-106.333" type="curve" smooth="yes"/>
			<point x="436" y="-90.6667"/>
			<point x="431.333" y="-65"/>
			<point x="394.333" y="-65" type="curve" smooth="yes"/>
			<point x="377.667" y="-65"/>
			<point x="341" y="-90"/>
			<point x="341" y="-116.667" type="curve" smooth="yes"/>
			<point x="341" y="-160"/>
			<point x="404.667" y="-182"/>
			<point x="431.333" y="-182" type="curve" smooth="yes"/>
			<point x="477.667" y="-182"/>
			<point x="516" y="-169.333"/>
			<point x="553.667" y="-141.667" type="curve"/>
			<point x="561.333" y="-137"/>
			<point x="569" y="-130.667"/>
			<point x="576" y="-124.667" type="curve" smooth="yes"/>
			<point x="619.333" y="-87"/>
			<point x="674.667" y="-30.6667"/>
		</contour>
	</outline>
	<anchor name="m.uni0302" x="346" y="804"/>
	<anchor name="m.uni0316_2" x="353" y="-109"/>
</glyph>
<glyph name="eng" format="2">
	<unicode hex="014B"/>
	<advance width="550"/>
	<outline>
		<contour>
			<point x="500" y="279" type="line" smooth="yes"/>
			<point x="500" y="332"/>
			<point x="490.667" y="374"/>
			<point x="469" y="401.667" type="curve" smooth="yes"/>
			<point x="449.333" y="427"/>
			<point x="418.333" y="440.333"/>
			<point name=".hr01" x="381.333" y="441.667" type="curve"/>
			<point x="376.667" y="442.333"/>
			<point x="372" y="442.333"/>
			<point x="367.667" y="442.333" type="curve"/>
			<point x="330.333" y="441.667"/>
			<point x="275.333" y="420.333"/>
			<point x="220.667" y="380" type="curve"/>
			<point x="220.333" y="379.667" type="line"/>
			<point x="217.333" y="377"/>
			<point x="213.333" y="374.667"/>
			<point x="209.333" y="372.333" type="curve"/>
			<point x="208" y="377.333"/>
			<point x="207.667" y="383.333"/>
			<point x="207" y="390" type="curve"/>
			<point x="205.667" y="412"/>
			<point x="204" y="426"/>
			<point x="202.333" y="429.333" type="curve"/>
			<point x="201" y="436.333"/>
			<point name=".hr02" x="198.333" y="440.667"/>
			<point name=".hr03" x="191" y="442" type="curve"/>
			<point x="189" y="442.667"/>
			<point x="186.333" y="443.333"/>
			<point x="183" y="443.333" type="curve"/>
			<point x="149" y="433"/>
			<point x="99.3333" y="420.667"/>
			<point x="30.3333" y="411.667" type="curve"/>
			<point x="28.3333" y="405.667"/>
			<point x="30.3333" y="387"/>
			<point x="32.3333" y="381" type="curve"/>
			<point x="87" y="376"/>
			<point x="97.3333" y="369"/>
			<point x="97.3333" y="311.667" type="curve" smooth="yes"/>
			<point x="97.3333" y="122" type="line" smooth="yes"/>
			<point x="97.3333" y="39.3333"/>
			<point x="86.6667" y="36.6667"/>
			<point x="26" y="31.6667" type="curve"/>
			<point x="20" y="25.6667"/>
			<point x="20" y="4"/>
			<point x="26" y="-2" type="curve"/>
			<point x="65" y="-1"/>
			<point x="99" y="0"/>
			<point x="143.333" y="0" type="curve" smooth="yes"/>
			<point x="154" y="0" type="line" smooth="yes"/>
			<point x="197.667" y="0"/>
			<point x="222.333" y="-1"/>
			<point x="265" y="-2" type="curve"/>
			<point x="271" y="4"/>
			<point x="271" y="25.6667"/>
			<point x="265" y="31.6667" type="curve"/>
			<point x="220" y="36"/>
			<point x="210.333" y="39.3333"/>
			<point x="210.333" y="122" type="curve" smooth="yes"/>
			<point x="210.333" y="280.667" type="line" smooth="yes"/>
			<point x="210.333" y="296"/>
			<point x="212" y="308.667"/>
			<point x="214" y="321" type="curve"/>
			<point x="214.667" y="324.333"/>
			<point x="215.333" y="328"/>
			<point x="216" y="331.333" type="curve"/>
			<point x="216" y="338.667" type="line"/>
			<point x="251" y="363.333"/>
			<point x="279" y="370.667"/>
			<point x="300" y="373.667" type="curve"/>
			<point x="312.667" y="375"/>
			<point x="326" y="374.333"/>
			<point x="338" y="371" type="curve"/>
			<point x="354.667" y="367"/>
			<point x="370.333" y="355.333"/>
			<point x="379.667" y="335" type="curve"/>
			<point x="383.333" y="325.667"/>
			<point x="385.667" y="315"/>
			<point x="386.333" y="302" type="curve" smooth="yes"/>
			<point x="387" y="287.667"/>
			<point x="387" y="273.667"/>
			<point x="387" y="258.667" type="curve" smooth="yes"/>
			<point x="387" y="85.3333" type="line" smooth="yes"/>
			<point x="387" y="76.3333"/>
			<point x="387" y="66.3333"/>
			<point x="387.667" y="57.3333" type="curve"/>
			<point x="388.333" y="4.33333"/>
			<point x="391.333" y="-44.6667"/>
			<point x="388.667" y="-97.3333" type="curve" smooth="yes"/>
			<point x="386" y="-136.333"/>
			<point x="369" y="-176.333"/>
			<point x="344.333" y="-176.333" type="curve" smooth="yes"/>
			<point x="331.333" y="-176.333"/>
			<point x="315.667" y="-171.667"/>
			<point x="307.333" y="-163.333" type="curve" smooth="yes"/>
			<point x="295.333" y="-151.333"/>
			<point x="280.667" y="-132"/>
			<point x="254.667" y="-132" type="curve" smooth="yes"/>
			<point x="241" y="-132"/>
			<point x="216" y="-156"/>
			<point x="216" y="-177.333" type="curve" smooth="yes"/>
			<point x="216" y="-210.667"/>
			<point x="255.667" y="-227.333"/>
			<point x="278" y="-228.667" type="curve" smooth="yes"/>
			<point x="284" y="-229"/>
			<point x="290" y="-229"/>
			<point x="295" y="-228.333" type="curve"/>
			<point x="340" y="-226.333"/>
			<point x="382.667" y="-214.667"/>
			<point x="415" y="-190.333" type="curve"/>
			<point x="420.333" y="-186"/>
			<point x="426.333" y="-181.333"/>
			<point x="431.667" y="-176.667" type="curve" smooth="yes"/>
			<point x="476.333" y="-137.667"/>
			<point x="500" y="-73.3333"/>
			<point x="500" y="110" type="curve" smooth="yes"/>
		</contour>
	</outline>
	<anchor name="m.uni0302" x="264" y="646"/>
	<anchor name="m.uni0316_2" x="265" y="-111"/>
</glyph>
